<svg xmlns="http://www.w3.org/2000/svg" viewBox="0 0 260.48 260.48"><defs><style>.a99b3e30-c56d-42a2-8dd1-303489e9533d{fill:#ffc700;}.b62e1e09-b450-4f4c-b201-7f36ec6caf2a{fill:#ff313e;}.bb399906-191e-4c5a-a9b7-599d68aaa9f0{fill:#ffffe4;}.aae55a9a-8de0-4803-9d4f-34f3bcbaffd2{fill:#ffd2d4;}.b8c5e492-cc8f-404c-976a-5036d1d460b1{fill:#eccfc9;}.afab4085-b878-4651-97d1-5b7f81af76bc{fill:#ff8e89;}.fdb85a73-2192-4429-ba83-ab36234303df{fill:#ff9e00;}.ef8064b3-49c4-4455-a270-0faf40be18bd{fill:#fff7f9;}.fe1a5714-b2a0-491a-9bce-3b4fd1d354de{fill:#5fac23;}.a8916247-20c4-457f-ac8f-23e8d4071590{fill:#d0313e;}.bd3b944f-e08a-484b-9fc0-7f73708826b6{fill:#9a0014;}.ec9f2547-f912-411a-8d83-1afac6c6bfc6{fill:#ffbd20;}.e168c09f-1bd1-47ff-aaa1-44dd3f5ed104{fill:#e78100;}.e22b3a42-c9ed-4629-9a8a-04feea2adafe{fill:#ffda2e;}</style></defs><title>cakes_</title><g id="a3d461c5-d892-414f-9e83-704cbebbbfd5" data-name="OBJECTS"><ellipse class="a99b3e30-c56d-42a2-8dd1-303489e9533d" cx="130.24" cy="208.26" rx="100.54" ry="36.02"/><path class="b62e1e09-b450-4f4c-b201-7f36ec6caf2a" d="M130.24,139.5c-49.47,0-89.57-12.53-89.57-28v95.33c0,15.45,40.1,28,89.57,28s89.58-12.53,89.58-28V111.52C219.82,127,179.71,139.5,130.24,139.5Z"/><ellipse class="bb399906-191e-4c5a-a9b7-599d68aaa9f0" cx="130.24" cy="111.52" rx="89.57" ry="27.98"/><path class="aae55a9a-8de0-4803-9d4f-34f3bcbaffd2" d="M174.79,93.41l-9.9,4.8-.92.33c-1.82,2.8-.54,6.79,2,8.95s6,2.9,9.3,3.31a64.65,64.65,0,0,0,15.48,0c4.39-.51,9.24-1.83,11.45-5.65,2-3.44,1-8-1.61-11a112,112,0,0,0-13.46-4.3C182.87,90.35,178.8,91.88,174.79,93.41Z"/><path class="b8c5e492-cc8f-404c-976a-5036d1d460b1" d="M106.39,84.55c-2.18.19-4.34.4-6.45.64L95,90.1h5.82Z"/><path class="b8c5e492-cc8f-404c-976a-5036d1d460b1" d="M95,85.79c-2,.27-3.9.55-5.8.86L78.63,97.23l5.76-.83Z"/><path class="b8c5e492-cc8f-404c-976a-5036d1d460b1" d="M121.93,83.66l-17.59,17.59,5.81.23,17.93-17.92C126,83.57,124,83.61,121.93,83.66Z"/><path class="afab4085-b878-4651-97d1-5b7f81af76bc" d="M95,32.56c0,.51,1.31.91,2.91.91s2.91-.4,2.91-.91V90.1c0,.5-1.3.91-2.91.91S95,90.6,95,90.1Z"/><ellipse class="aae55a9a-8de0-4803-9d4f-34f3bcbaffd2" cx="97.93" cy="32.56" rx="2.91" ry="0.91"/><path class="a99b3e30-c56d-42a2-8dd1-303489e9533d" d="M95.38,28a2.56,2.56,0,0,0,5.11,0c0-1.41-2.56-6.45-2.56-6.45S95.38,26.61,95.38,28Z"/><path class="fdb85a73-2192-4429-ba83-ab36234303df" d="M96.37,28.5a1.56,1.56,0,1,0,3.12,0c0-.86-1.56-3.94-1.56-3.94S96.37,27.64,96.37,28.5Z"/><path class="ef8064b3-49c4-4455-a270-0faf40be18bd" d="M100.84,54.51v-4a54.58,54.58,0,0,1-5.82,4v3.79A59.32,59.32,0,0,0,100.84,54.51Z"/><path class="ef8064b3-49c4-4455-a270-0faf40be18bd" d="M100.84,37.08a54.58,54.58,0,0,1-5.82,4v3.79a59.32,59.32,0,0,0,5.82-3.74Z"/><path class="ef8064b3-49c4-4455-a270-0faf40be18bd" d="M100.84,67.88v-4a56.09,56.09,0,0,1-5.82,4v3.78A55.83,55.83,0,0,0,100.84,67.88Z"/><path class="ef8064b3-49c4-4455-a270-0faf40be18bd" d="M100.84,81.26V77.21a53.15,53.15,0,0,1-5.82,4V85A55.83,55.83,0,0,0,100.84,81.26Z"/><path class="afab4085-b878-4651-97d1-5b7f81af76bc" d="M70.5,40.27c.07.5,1.41.71,3,.49s2.83-.82,2.76-1.31l8.13,57c.07.5-1.16,1.09-2.75,1.32s-2.94,0-3-.49Z"/><path class="aae55a9a-8de0-4803-9d4f-34f3bcbaffd2" d="M76.26,39.45c.07.49-1.16,1.08-2.76,1.31s-2.93,0-3-.49,1.16-1.09,2.75-1.31S76.19,39,76.26,39.45Z"/><path class="a99b3e30-c56d-42a2-8dd1-303489e9533d" d="M70.21,35.72A2.55,2.55,0,0,0,75.26,35c-.2-1.4-3.44-6-3.44-6S70,34.32,70.21,35.72Z"/><path class="fdb85a73-2192-4429-ba83-ab36234303df" d="M71.26,36.06a1.56,1.56,0,0,0,3.09-.45,18.94,18.94,0,0,0-2.1-3.67S71.14,35.2,71.26,36.06Z"/><path class="ef8064b3-49c4-4455-a270-0faf40be18bd" d="M79.36,61.17l-.57-4a54.64,54.64,0,0,1-5.2,4.78l.54,3.75A59,59,0,0,0,79.36,61.17Z"/><path class="ef8064b3-49c4-4455-a270-0faf40be18bd" d="M76.9,43.91a54.64,54.64,0,0,1-5.2,4.79l.54,3.75a57.54,57.54,0,0,0,5.23-4.53Z"/><path class="ef8064b3-49c4-4455-a270-0faf40be18bd" d="M81.25,74.41l-.57-4a53.46,53.46,0,0,1-5.2,4.79L76,78.93A55.91,55.91,0,0,0,81.25,74.41Z"/><path class="ef8064b3-49c4-4455-a270-0faf40be18bd" d="M83.14,87.65l-.57-4a55.76,55.76,0,0,1-5.19,4.78l.53,3.75A56.22,56.22,0,0,0,83.14,87.65Z"/><path class="afab4085-b878-4651-97d1-5b7f81af76bc" d="M106.63,43.76c0,.5,1.27,1,2.87,1s2.93-.29,3-.79l-2.3,57.49c0,.5-1.33.86-2.94.8s-2.89-.53-2.87-1Z"/><path class="aae55a9a-8de0-4803-9d4f-34f3bcbaffd2" d="M112.45,44c0,.5-1.34.86-3,.79s-2.89-.52-2.87-1,1.34-.86,3-.79S112.47,43.49,112.45,44Z"/><path class="a99b3e30-c56d-42a2-8dd1-303489e9533d" d="M107.17,39.23a2.55,2.55,0,0,0,5.1.21c.06-1.41-2.29-6.55-2.29-6.55S107.23,37.82,107.17,39.23Z"/><path class="fdb85a73-2192-4429-ba83-ab36234303df" d="M108.14,39.75a1.56,1.56,0,0,0,3.12.13c0-.86-1.4-4-1.4-4S108.18,38.89,108.14,39.75Z"/><path class="ef8064b3-49c4-4455-a270-0faf40be18bd" d="M111.57,65.92l.16-4.05a54.49,54.49,0,0,1-6,3.77l-.15,3.78A56.64,56.64,0,0,0,111.57,65.92Z"/><path class="ef8064b3-49c4-4455-a270-0faf40be18bd" d="M112.27,48.5a54.07,54.07,0,0,1-6,3.77l-.15,3.78a56.78,56.78,0,0,0,6-3.5Z"/><path class="ef8064b3-49c4-4455-a270-0faf40be18bd" d="M111,79.28l.16-4a53.86,53.86,0,0,1-6,3.76l-.15,3.79A58.51,58.51,0,0,0,111,79.28Z"/><path class="ef8064b3-49c4-4455-a270-0faf40be18bd" d="M110.51,92.65l.16-4a54,54,0,0,1-6,3.76l-.15,3.79A58.66,58.66,0,0,0,110.51,92.65Z"/><path class="aae55a9a-8de0-4803-9d4f-34f3bcbaffd2" d="M130.24,139.5c-49.47,0-89.57-12.53-89.57-28v53.07a3.15,3.15,0,0,0,2.34.51c2.73-.41,4.7-2.89,5.71-5.45s1.39-5.36,2.49-7.89,3.28-4.89,6-5c3.71-.18,6.35,3.64,7.43,7.2,1.71,5.66,1.48,11.7,1.4,17.61s.06,12,2.44,17.44S76,199,82,199c5.54,0,10.44-4,13.06-8.92s3.37-10.52,4-16,1.22-11.13,3.55-16.14a13.19,13.19,0,0,1,5.3-6.24c2.44-1.31,5.74-1.3,7.77.6,3.93,3.66.76,10.78,3.65,15.31,2.68,4.19,9.32,3.8,13.22.71s5.91-7.9,8.35-12.23,5.93-8.7,10.84-9.51c6.09-1,11.67,3.94,14.51,9.41s4,11.73,7.13,17.06,9.31,9.76,15.18,7.88,8.29-8.72,9-14.78c.48-4,1.39-23.51,10.36-18.55,2.47,1.37,3.59,4.29,4.22,7s1.06,5.69,2.79,7.91a6.08,6.08,0,0,0,4.95,2.29V111.52C219.82,127,179.71,139.5,130.24,139.5Z"/><path class="fe1a5714-b2a0-491a-9bce-3b4fd1d354de" d="M167.75,92.71a33.68,33.68,0,0,1-12.17-.55l4.92-3.94a17,17,0,0,1-3.65-5.79,25,25,0,0,1,8.37,1.26c-.56-2.25-1.12-4.49-1.69-6.74a19.7,19.7,0,0,1,6.24,4.23c.34-2.5,1.1-5,3-6.63a27.17,27.17,0,0,1,2.77,6.33,9,9,0,0,1-.71,6.72A10.24,10.24,0,0,1,167.75,92.71Z"/><path class="a8916247-20c4-457f-ac8f-23e8d4071590" d="M160.43,90.51c-2.69,3.58-.31,9,2.35,11.81,3,3.17,7.32,4.86,11.64,5.5a54.74,54.74,0,0,0,8.48.63,26.86,26.86,0,0,0,4.67-.19,5.42,5.42,0,0,0,2.61-1.08c1.67-1.39,1.72-3.54,1.61-5.55a44,44,0,0,0-1.91-10.72A24.07,24.07,0,0,0,186,83.05a12.61,12.61,0,0,0-7.26-4.68A7.86,7.86,0,0,0,171.16,81c-3.72-1.52-7.62,2.94-7.22,6.45A13.47,13.47,0,0,0,160.43,90.51Z"/><path class="bd3b944f-e08a-484b-9fc0-7f73708826b6" d="M190.44,93a11.23,11.23,0,0,1-6,6.07c-4.86,1.93-10.76,0-14.11-4a16.14,16.14,0,0,1-3.51-9,12.88,12.88,0,0,1,.16-4.46,6.7,6.7,0,0,0-3,5.84,13.47,13.47,0,0,0-3.51,3.08c-2.69,3.58-.31,9,2.35,11.81,3,3.17,7.32,4.86,11.64,5.5a54.74,54.74,0,0,0,8.48.63,26.86,26.86,0,0,0,4.67-.19,5.42,5.42,0,0,0,2.61-1.08c1.67-1.39,1.72-3.54,1.61-5.55A43,43,0,0,0,190.44,93Z"/><path class="ec9f2547-f912-411a-8d83-1afac6c6bfc6" d="M178,80.2c-1.1.86,2.88,2.62,2.88,2.62S179.32,79.19,178,80.2Z"/><path class="ec9f2547-f912-411a-8d83-1afac6c6bfc6" d="M170.39,83c-.71.78,1.74,1.76,1.74,1.76S171.37,82,170.39,83Z"/><path class="ec9f2547-f912-411a-8d83-1afac6c6bfc6" d="M183.69,84.37c-.81.68,1.49,2,1.49,2S184.8,83.43,183.69,84.37Z"/><path class="ec9f2547-f912-411a-8d83-1afac6c6bfc6" d="M182,92.91c-.81.68,1.48,2,1.48,2S183.14,92,182,92.91Z"/><path class="ec9f2547-f912-411a-8d83-1afac6c6bfc6" d="M176.48,85c-.7.78,2.44,2.59,2.44,2.59S177.46,84,176.48,85Z"/><path class="ec9f2547-f912-411a-8d83-1afac6c6bfc6" d="M182.43,87.74c-.77.71,1.81,2.23,1.81,2.23S183.5,86.75,182.43,87.74Z"/><path class="ec9f2547-f912-411a-8d83-1afac6c6bfc6" d="M172.28,93.86c-.78.72,1.81,2.24,1.81,2.24S173.34,92.88,172.28,93.86Z"/><path class="ec9f2547-f912-411a-8d83-1afac6c6bfc6" d="M170.36,88.21c-.77.72,1.81,2.23,1.81,2.23S171.43,87.22,170.36,88.21Z"/><path class="e168c09f-1bd1-47ff-aaa1-44dd3f5ed104" d="M188.14,97c-.93.49,1.16,2.63,1.16,2.63S189.43,96.35,188.14,97Z"/><path class="ec9f2547-f912-411a-8d83-1afac6c6bfc6" d="M175.68,90.16c-.77.71,1.81,2.23,1.81,2.23S176.75,89.17,175.68,90.16Z"/><path class="ec9f2547-f912-411a-8d83-1afac6c6bfc6" d="M187.52,91.18c-.93.48,1.16,2.63,1.16,2.63S188.81,90.51,187.52,91.18Z"/><path class="ec9f2547-f912-411a-8d83-1afac6c6bfc6" d="M177.71,96.35c-.73.77,2,2.1,2,2.1S178.7,95.29,177.71,96.35Z"/><path class="e168c09f-1bd1-47ff-aaa1-44dd3f5ed104" d="M173.91,100c-.72.77,2,2.11,2,2.11S174.91,99,173.91,100Z"/><path class="e168c09f-1bd1-47ff-aaa1-44dd3f5ed104" d="M184.76,101.24c-.65.82,2.13,1.93,2.13,1.93S185.67,100.1,184.76,101.24Z"/><path class="e168c09f-1bd1-47ff-aaa1-44dd3f5ed104" d="M179.89,103.09c-.65.83,2.13,1.94,2.13,1.94S180.8,102,179.89,103.09Z"/><path class="e168c09f-1bd1-47ff-aaa1-44dd3f5ed104" d="M167.83,98.54c-.66.82,2.12,1.94,2.12,1.94S168.73,97.41,167.83,98.54Z"/><path class="e168c09f-1bd1-47ff-aaa1-44dd3f5ed104" d="M164.54,91.39c-.84.63,1.58,2.4,1.58,2.4S165.7,90.51,164.54,91.39Z"/><path class="e168c09f-1bd1-47ff-aaa1-44dd3f5ed104" d="M163.2,97.16c-.84.64,1.58,2.4,1.58,2.4S164.35,96.29,163.2,97.16Z"/><path class="b62e1e09-b450-4f4c-b201-7f36ec6caf2a" d="M175.6,100.68c2.69,3.58.32,9-2.35,11.81-3,3.17-7.31,4.86-11.63,5.51a57.45,57.45,0,0,1-8.49.63,28.83,28.83,0,0,1-4.66-.19,5.53,5.53,0,0,1-2.61-1.09c-1.67-1.39-1.72-3.54-1.62-5.55a43.81,43.81,0,0,1,1.92-10.71A23.82,23.82,0,0,1,150,93.22a12.59,12.59,0,0,1,7.26-4.68,7.83,7.83,0,0,1,7.57,2.61c3.72-1.52,7.63,2.94,7.23,6.46A13.21,13.21,0,0,1,175.6,100.68Z"/><path class="a8916247-20c4-457f-ac8f-23e8d4071590" d="M145.59,103.13a11.24,11.24,0,0,0,6,6.07c4.85,1.93,10.76,0,14.1-4a16.15,16.15,0,0,0,3.52-9,13.13,13.13,0,0,0-.16-4.46,6.73,6.73,0,0,1,3,5.85,13.21,13.21,0,0,1,3.5,3.07c2.69,3.58.32,9-2.35,11.81-3,3.17-7.31,4.86-11.63,5.51a57.45,57.45,0,0,1-8.49.63,28.83,28.83,0,0,1-4.66-.19,5.53,5.53,0,0,1-2.61-1.09c-1.67-1.39-1.72-3.54-1.62-5.55A44.58,44.58,0,0,1,145.59,103.13Z"/><path class="e22b3a42-c9ed-4629-9a8a-04feea2adafe" d="M158,90.38c1.09.85-2.89,2.61-2.89,2.61S156.72,89.36,158,90.38Z"/><path class="e22b3a42-c9ed-4629-9a8a-04feea2adafe" d="M165.64,93.21c.71.78-1.74,1.75-1.74,1.75S164.67,92.13,165.64,93.21Z"/><path class="e22b3a42-c9ed-4629-9a8a-04feea2adafe" d="M152.35,94.54c.81.68-1.49,2-1.49,2S151.24,93.61,152.35,94.54Z"/><path class="e22b3a42-c9ed-4629-9a8a-04feea2adafe" d="M154,103.09c.81.67-1.49,2-1.49,2S152.9,102.15,154,103.09Z"/><path class="e22b3a42-c9ed-4629-9a8a-04feea2adafe" d="M159.55,95.2c.71.78-2.43,2.59-2.43,2.59S158.58,94.13,159.55,95.2Z"/><path class="e22b3a42-c9ed-4629-9a8a-04feea2adafe" d="M153.6,97.91c.78.72-1.81,2.23-1.81,2.23S152.54,96.92,153.6,97.91Z"/><path class="e22b3a42-c9ed-4629-9a8a-04feea2adafe" d="M163.76,104c.77.71-1.81,2.23-1.81,2.23S162.69,103.05,163.76,104Z"/><path class="e22b3a42-c9ed-4629-9a8a-04feea2adafe" d="M165.67,98.38c.77.72-1.81,2.23-1.81,2.23S164.61,97.4,165.67,98.38Z"/><path class="ec9f2547-f912-411a-8d83-1afac6c6bfc6" d="M147.9,107.19c.93.49-1.17,2.63-1.17,2.63S146.61,106.52,147.9,107.19Z"/><path class="e22b3a42-c9ed-4629-9a8a-04feea2adafe" d="M160.35,100.33c.78.72-1.81,2.23-1.81,2.23S159.29,99.34,160.35,100.33Z"/><path class="e22b3a42-c9ed-4629-9a8a-04feea2adafe" d="M148.51,101.35c.94.48-1.15,2.63-1.15,2.63S147.23,100.68,148.51,101.35Z"/><path class="e22b3a42-c9ed-4629-9a8a-04feea2adafe" d="M158.33,106.52c.72.77-2,2.1-2,2.1S157.33,105.46,158.33,106.52Z"/><path class="ec9f2547-f912-411a-8d83-1afac6c6bfc6" d="M162.12,110.22c.73.76-2,2.1-2,2.1S161.13,109.16,162.12,110.22Z"/><path class="ec9f2547-f912-411a-8d83-1afac6c6bfc6" d="M151.27,111.41c.66.82-2.12,1.94-2.12,1.94S150.36,110.28,151.27,111.41Z"/><path class="ec9f2547-f912-411a-8d83-1afac6c6bfc6" d="M156.14,113.26c.66.83-2.12,1.94-2.12,1.94S155.24,112.13,156.14,113.26Z"/><path class="ec9f2547-f912-411a-8d83-1afac6c6bfc6" d="M168.21,108.71c.66.83-2.13,1.94-2.13,1.94S167.3,107.58,168.21,108.71Z"/><path class="ec9f2547-f912-411a-8d83-1afac6c6bfc6" d="M171.5,101.56c.84.63-1.58,2.4-1.58,2.4S170.34,100.68,171.5,101.56Z"/><path class="ec9f2547-f912-411a-8d83-1afac6c6bfc6" d="M172.84,107.33c.84.64-1.58,2.4-1.58,2.4S171.68,106.46,172.84,107.33Z"/><path class="a8916247-20c4-457f-ac8f-23e8d4071590" d="M206,169a1.64,1.64,0,0,0,0,3.28A1.64,1.64,0,0,0,206,169Z"/><path class="a8916247-20c4-457f-ac8f-23e8d4071590" d="M214,178.06a1.65,1.65,0,0,0,0,3.29A1.65,1.65,0,0,0,214,178.06Z"/><path class="a8916247-20c4-457f-ac8f-23e8d4071590" d="M200.36,189.81h-.27a1.64,1.64,0,0,0,0,3.28h.27A1.64,1.64,0,0,0,200.36,189.81Z"/><path class="a8916247-20c4-457f-ac8f-23e8d4071590" d="M165.15,180.57a1.64,1.64,0,0,0,0,3.28A1.64,1.64,0,0,0,165.15,180.57Z"/><path class="a8916247-20c4-457f-ac8f-23e8d4071590" d="M174.52,195v.12a1.64,1.64,0,0,0,3.28,0V195A1.64,1.64,0,0,0,174.52,195Z"/><path class="a8916247-20c4-457f-ac8f-23e8d4071590" d="M184.82,198.75a1.65,1.65,0,0,0,0,3.29A1.65,1.65,0,0,0,184.82,198.75Z"/><path class="a8916247-20c4-457f-ac8f-23e8d4071590" d="M174.88,204.72v.13a.41.41,0,0,0,.82,0v-.13A.41.41,0,0,0,174.88,204.72Z"/><path class="a8916247-20c4-457f-ac8f-23e8d4071590" d="M199.41,205.06a.41.41,0,0,0,0,.82A.41.41,0,0,0,199.41,205.06Z"/><path class="a8916247-20c4-457f-ac8f-23e8d4071590" d="M209.11,201.75v.13a.82.82,0,0,0,1.64,0v-.13A.82.82,0,0,0,209.11,201.75Z"/><path class="a8916247-20c4-457f-ac8f-23e8d4071590" d="M189,213.51v.12a.82.82,0,0,0,1.64,0v-.12A.82.82,0,0,0,189,213.51Z"/><path class="a8916247-20c4-457f-ac8f-23e8d4071590" d="M132.86,216.77h-.12a.82.82,0,0,0,0,1.64h.12A.82.82,0,0,0,132.86,216.77Z"/><path class="a8916247-20c4-457f-ac8f-23e8d4071590" d="M212.9,193.8a1.65,1.65,0,0,0,0,3.29A1.65,1.65,0,0,0,212.9,193.8Z"/><path class="a8916247-20c4-457f-ac8f-23e8d4071590" d="M215.13,203.82H215a1.65,1.65,0,0,0,0,3.29h.13A1.65,1.65,0,0,0,215.13,203.82Z"/><path class="a8916247-20c4-457f-ac8f-23e8d4071590" d="M150.06,207.29a1.64,1.64,0,0,0,0,3.28A1.64,1.64,0,0,0,150.06,207.29Z"/><path class="a8916247-20c4-457f-ac8f-23e8d4071590" d="M160.32,219.78h-.12a1.65,1.65,0,0,0,0,3.29h.12A1.65,1.65,0,0,0,160.32,219.78Z"/><path class="a8916247-20c4-457f-ac8f-23e8d4071590" d="M76.21,209.51a1.65,1.65,0,0,0,0,3.29A1.65,1.65,0,0,0,76.21,209.51Z"/><path class="a8916247-20c4-457f-ac8f-23e8d4071590" d="M51.27,201.09l-.13-.12a1.64,1.64,0,0,0-2.32,2.32l.12.12A1.65,1.65,0,0,0,51.27,201.09Z"/><path class="a8916247-20c4-457f-ac8f-23e8d4071590" d="M50.85,179.33a1.64,1.64,0,0,0,0,3.28A1.64,1.64,0,0,0,50.85,179.33Z"/><path class="a8916247-20c4-457f-ac8f-23e8d4071590" d="M58.27,211.25h-.12a1.64,1.64,0,0,0,0,3.28h.12A1.64,1.64,0,0,0,58.27,211.25Z"/><path class="a8916247-20c4-457f-ac8f-23e8d4071590" d="M108,216.94a1.64,1.64,0,0,0,0,3.28A1.64,1.64,0,0,0,108,216.94Z"/><path class="a8916247-20c4-457f-ac8f-23e8d4071590" d="M62.35,192l-.13.12A1.23,1.23,0,0,0,64,193.84l.13-.12A1.23,1.23,0,0,0,62.35,192Z"/><path class="a8916247-20c4-457f-ac8f-23e8d4071590" d="M67.05,205.22a1.24,1.24,0,0,0,0,2.47A1.24,1.24,0,0,0,67.05,205.22Z"/><path class="a8916247-20c4-457f-ac8f-23e8d4071590" d="M93.52,224.52a1.23,1.23,0,0,0,0,2.46A1.23,1.23,0,0,0,93.52,224.52Z"/><path class="a8916247-20c4-457f-ac8f-23e8d4071590" d="M130.76,229.47a1.23,1.23,0,0,0,0,2.46A1.23,1.23,0,0,0,130.76,229.47Z"/><path class="a8916247-20c4-457f-ac8f-23e8d4071590" d="M183.46,218.7v.13a1.24,1.24,0,0,0,2.47,0v-.13A1.24,1.24,0,0,0,183.46,218.7Z"/><path class="a8916247-20c4-457f-ac8f-23e8d4071590" d="M206.59,211.53a1.24,1.24,0,0,0,0,2.47A1.24,1.24,0,0,0,206.59,211.53Z"/><path class="a8916247-20c4-457f-ac8f-23e8d4071590" d="M44.79,191.62a1.23,1.23,0,0,0,0,2.46A1.23,1.23,0,0,0,44.79,191.62Z"/><path class="a8916247-20c4-457f-ac8f-23e8d4071590" d="M55.18,206.21v.12a1.23,1.23,0,0,0,2.46,0v-.12A1.23,1.23,0,0,0,55.18,206.21Z"/><path class="a8916247-20c4-457f-ac8f-23e8d4071590" d="M47.39,209.79l-.13-.12a1.23,1.23,0,0,0-1.74,1.74l.13.12A1.23,1.23,0,0,0,47.39,209.79Z"/><path class="a8916247-20c4-457f-ac8f-23e8d4071590" d="M73.86,220.73a.82.82,0,0,0,0,1.64A.82.82,0,0,0,73.86,220.73Z"/><path class="a8916247-20c4-457f-ac8f-23e8d4071590" d="M91.17,215.16a.82.82,0,0,0,0,1.64A.82.82,0,0,0,91.17,215.16Z"/><path class="a8916247-20c4-457f-ac8f-23e8d4071590" d="M113.44,228.4a.82.82,0,0,0,0,1.64A.82.82,0,0,0,113.44,228.4Z"/><path class="a8916247-20c4-457f-ac8f-23e8d4071590" d="M145.73,223.45a.82.82,0,0,0,0,1.64A.82.82,0,0,0,145.73,223.45Z"/><path class="a8916247-20c4-457f-ac8f-23e8d4071590" d="M156.49,227.78a.82.82,0,0,0,0,1.64A.82.82,0,0,0,156.49,227.78Z"/><path class="a8916247-20c4-457f-ac8f-23e8d4071590" d="M180.86,213.3a.83.83,0,0,0,0,1.65A.83.83,0,0,0,180.86,213.3Z"/><path class="a8916247-20c4-457f-ac8f-23e8d4071590" d="M106.88,189.31a.82.82,0,0,0,0,1.64A.82.82,0,0,0,106.88,189.31Z"/><path class="a8916247-20c4-457f-ac8f-23e8d4071590" d="M102.8,200.56a.82.82,0,0,0,0,1.64A.82.82,0,0,0,102.8,200.56Z"/><path class="a8916247-20c4-457f-ac8f-23e8d4071590" d="M109,156.77a.82.82,0,0,0,0,1.64A.82.82,0,0,0,109,156.77Z"/><path class="a8916247-20c4-457f-ac8f-23e8d4071590" d="M113.94,156.28a.82.82,0,0,0,0,1.64A.82.82,0,0,0,113.94,156.28Z"/><path class="a8916247-20c4-457f-ac8f-23e8d4071590" d="M112.62,162.91V163a.82.82,0,0,0,1.64,0v-.13A.82.82,0,0,0,112.62,162.91Z"/><path class="a8916247-20c4-457f-ac8f-23e8d4071590" d="M160.45,166.05a.82.82,0,0,0,0,1.64A.82.82,0,0,0,160.45,166.05Z"/><path class="a8916247-20c4-457f-ac8f-23e8d4071590" d="M58,158.63a.82.82,0,0,0,0,1.64A.82.82,0,0,0,58,158.63Z"/><path class="a8916247-20c4-457f-ac8f-23e8d4071590" d="M206.76,181v.13a.82.82,0,0,0,1.64,0V181A.82.82,0,0,0,206.76,181Z"/></g></svg>