<svg xmlns="http://www.w3.org/2000/svg" viewBox="0 0 314.11 274.72"><defs><style>.ef1c6b2f-e173-49d4-a5a1-ca272aadd8e4{isolation:isolate;}.a90af1d6-7873-4e96-98ed-8cecfaac0209,.b24030d0-4b9a-4b69-a882-1273c3277200{fill:#e63e57;}.b24030d0-4b9a-4b69-a882-1273c3277200{opacity:0.5;mix-blend-mode:multiply;}.a5eff3c0-b2df-4bd1-95ef-3d70da568c20{fill:#ffc6b3;}.b58e7d0c-5ab7-4d05-8f91-ba50a58a71f1{fill:#79c4db;}.b5471074-2f01-40a7-a2a8-39306d212bae{fill:#fff;}.add8606c-1674-4bf5-9f07-f34159edc980{fill:#5eb5ea;}.a017ffb0-be7a-4902-9de7-e3c580960e0b{fill:#9dd4ea;}.a6564ac2-fafb-4e6e-bf63-a1c84e40a3b6{fill:#f7ad9a;}.a3b86792-3997-42fb-9ebb-97bbbccb0801{fill:#743b2c;}.bda6fc29-0150-428a-a2d2-f66d37cbab2e{fill:#874e3d;}.eb89f9f4-de53-477f-97e0-50cc16c21d2e{fill:#5a2c1d;}.ee3e057a-a17e-4fca-a075-e9fe15015063{fill:#dbb8a5;}.b3578146-dc27-4f50-9c0c-892db15b22ed{fill:#7c4437;}.af79d14d-75d1-4145-adde-e5dcde933091{fill:#5db5c9;}.ea55495b-3eeb-4a77-83b8-4d254f0e6ca4{fill:#662617;}.e759fb42-e52a-4032-8e40-08ec03ef465c{fill:#561d11;}.fbd40f92-8507-4ecc-bda7-955306a38dec{fill:#d82e4f;}.aeb9b1dd-ad15-47f4-8807-11f864644db1{fill:#f45171;}.b9b489f0-ea8d-4afc-928a-8010eac071b9{fill:#ff6187;}.bb0c7e69-7ee5-411c-b717-0b790d513e84{fill:#eacec1;}.b6eb62d5-abf9-47d3-b7d3-d897a89cbafb{fill:#ee9e6d;}.bd850b8d-e71c-4065-a91f-bef6049ed4aa{fill:#ffe9d7;}.bb9b6726-6f11-4428-a11e-9eb461b2d2cb{fill:#f9dac2;}.aea1ed65-59c2-4ffd-bbac-3f141920c657{fill:#ffcce4;}.a20ab2e8-d4a8-4a5c-9a9d-acb81cb13d05{fill:#fbb5d3;}.e7460058-1dcb-4933-9d52-b7851f9040c6{fill:#d31e4e;}.f9eb9de4-f3b4-46e4-92e4-a8cdc6fbf6ae{fill:#bf1147;}.a87332d0-57de-47a7-93dd-339c3720bfe9{fill:#ff6390;}.a5a4b16b-c1c4-47ca-be74-458a98e67133{fill:#ff8ab1;}.a71610e3-56fe-4e35-bd4e-8af3cb7ff50f{fill:#ed4c82;}.eacfc220-26e0-44f1-9fb2-f480c71e4dbd{fill:#aa0742;}.fdb88697-f541-4da8-89dd-df1a5572160a{fill:#8e033c;}.b7186d43-8f0c-4e56-999e-b29ba7ad8ee5{fill:#7f2c21;}.fe846ac1-9a05-4bab-8fe1-07e2703ac235{fill:#a54235;}.e3805cab-3b72-461c-9516-8cabc515588d{fill:#8c3828;}.ec580a1c-73ac-45b3-a537-a0350db9aba4{fill:#db9861;}.ab482969-3fbe-4cf9-b422-a7bfa728d563{fill:#edad72;}.b305d29b-7a84-4bb5-ba93-b8ba017924d8{fill:#ffc4b1;}</style></defs><title>cake_people</title><g class="ef1c6b2f-e173-49d4-a5a1-ca272aadd8e4"><g id="a0218fd5-68ca-404d-a6af-9cf424144b04" data-name="Layer 1"><path class="b24030d0-4b9a-4b69-a882-1273c3277200" d="M80.7,218.12c-14.55-5.18-43.76-2.91-43.76-2.91-15.48,5.51-18.13,15.16-8.83,18.62s31.22,10.77,43.15,4.43S95.26,223.31,80.7,218.12Z"/><polygon class="b24030d0-4b9a-4b69-a882-1273c3277200" points="79.12 180.45 233.63 269.66 297.43 232.83 142.91 143.62 79.12 180.45"/><path class="a5eff3c0-b2df-4bd1-95ef-3d70da568c20" d="M224.8,54.63C222.75,58.28,219.2,66,219.2,66s-4.93,3.18-4.62,5.1-1.19,3-.71,4.83c3.15-.88,11-2.56,11.94-4.11,2.24-3.81,6.81-10.24,6.81-10.24C229.27,59.56,226.9,57.84,224.8,54.63Z"/><path class="b58e7d0c-5ab7-4d05-8f91-ba50a58a71f1" d="M228.53,62.65c-2.72-1.13-5-1.8-6.92-3.21C223,54.18,226,47.52,228,44.77c3.92-5.27,6.87-4.86,6.87-4.86l-2.21,24.18A30.79,30.79,0,0,1,228.53,62.65Z"/><path class="b5471074-2f01-40a7-a2a8-39306d212bae" d="M222.08,57.82A66.74,66.74,0,0,0,230,61a2.31,2.31,0,0,1-.42,2.35c-3.81,0-8.37-3.21-8.37-3.21Z"/><path class="a5eff3c0-b2df-4bd1-95ef-3d70da568c20" d="M261.42,177s-1.54,4.36-1,7.87a61.93,61.93,0,0,0,1.43,6.47c.84,3.88.51,9.36-2.63,11.87s-8.18.68-7.48-4.34,1-21.87,1-21.87Z"/><path class="a5eff3c0-b2df-4bd1-95ef-3d70da568c20" d="M235.74,173.56a20.23,20.23,0,0,0,2.48,7.46c1.84,3.38-.3,4.22-4.1,6.06-3.09,1.5-7.71,7.74-11.36,7.26-5.8-.76-7.71-4.27-4.13-5.69,3.05-1.2,5.9-4.07,8-6.27s2-4.17,1.42-7.55C227.68,172.93,235.74,173.56,235.74,173.56Z"/><path class="add8606c-1674-4bf5-9f07-f34159edc980" d="M226.87,178.57c-2-9.47-9.4-31-11.74-38.54a20.38,20.38,0,0,1,.5-11.56c1.88-5.56,3.21-13,6.05-19.56,4.13-9.6,6.79-16.17,7.94-19.49,1.4-4.09,6.64,5.9,10.52,7.4,1.51.59,4,1,5,2.38,2.54,3.47,1.22,9.71,1.23,13.8,0,2.86-8.14,13.8-17.57,23.74,7,10.5,10.57,27.71,10.57,40.29C237.12,178.74,232.57,179.8,226.87,178.57Z"/><path class="add8606c-1674-4bf5-9f07-f34159edc980" d="M236.71,91.41a27,27,0,0,0,10,.62c4.34-.52,7.46-1,11.22-3.84,0,0,8.11,11.12,3.9,21.84.8,5.24.87,15.08-1.78,33.29,5.19,17.21,2.21,35.09,2.21,40.82-1.83,3.54-8.21,3.64-10.24,1.92-2.89-18.27-5.93-31.31-4.2-44.66a113.4,113.4,0,0,1-7.28-27.29C235.37,109,234.05,98.22,236.71,91.41Z"/><path class="a017ffb0-be7a-4902-9de7-e3c580960e0b" d="M260,55.75c-.43-2.45-.21-5.06-1.71-6.42-3.54-3.21-8.42-4.53-10.45-5.5-12.59-6.07-12-4-11.56-3.49-.75.75-1.86,2.65-5.19,8.79-1.64,3-5.35,8.37-5.23,10.06a14.42,14.42,0,0,0,2.92,7c1.54,2-.83,25.31-2.93,33,.71,3.54,11.32,7.78,19.74,7.78,12.22,0,16.93-4.35,17.54-7-.85-9.8-8.42-22.63-7.87-28.09C255.82,66.06,260.68,59.9,260,55.75Z"/><path class="b5471074-2f01-40a7-a2a8-39306d212bae" d="M249.62,44l3.15,1.89a44.49,44.49,0,0,1-6.08,6.73,33.39,33.39,0,0,1-13.6,6.83s-.12-7.51.84-11.36,5.39-6.59,5.39-6.59Z"/><path class="a6564ac2-fafb-4e6e-bf63-a1c84e40a3b6" d="M247.8,37c-3.61.75-7.58,1.86-10.74,1.59.64,2.67,1.55,3.47,0,8.4-1.1,3.41-2,5.55-1.56,9.59,4.15-1.41,6.29-2.77,10.09-5.58,3.3-2.44,4.07-4.21,5.45-5.84C249.52,43.29,248.51,39.22,247.8,37Z"/><path class="a3b86792-3997-42fb-9ebb-97bbbccb0801" d="M243,19.23s.83-11.63,10.27-6.34,2.3,14.37-4.09,14.83S243,19.23,243,19.23Z"/><path class="a017ffb0-be7a-4902-9de7-e3c580960e0b" d="M239.78,17.18s4.06-5.23,5.22,0c7.28-1.59,13.28,3.95,9.81,10.22s-7.19,2.94-7.19,2.94Z"/><path class="a5eff3c0-b2df-4bd1-95ef-3d70da568c20" d="M232.63,26c4.73-1.06,7.2-1.26,11.4.44a23.54,23.54,0,0,1,6.71,3.09.61.61,0,0,1,.26.54c-1.08,6.22-3.17,12.82-10.16,15.59-5.75,2.27-9-4-10-8.26C229.7,32.45,229.35,26.72,232.63,26Z"/><path class="a3b86792-3997-42fb-9ebb-97bbbccb0801" d="M247.8,19.67c-4.51-3.65-10.21-3.2-13.32-.68-3.29,2.68-6.24,9.69-8.67,10.86a8.21,8.21,0,0,0,9-1.91c1.9,2.12,5.25,4.62,9.35,4,.8,2.6,2.18,8.52,4.55,8.36C253.47,30.56,255.06,25.55,247.8,19.67Z"/><path class="a5eff3c0-b2df-4bd1-95ef-3d70da568c20" d="M243.29,34.86S244.42,31,246.91,33s-1,5.84-1,5.84Z"/><path class="a3b86792-3997-42fb-9ebb-97bbbccb0801" d="M261.84,191.37s-.13,4.54-4.5,5.45c-3.2.68-5.19-3.21-5.19-3.21s-.13,2.76-.34,4.57c-.24,2.11-.47,3.4,1.22,5,3.15,3,5.82,2.54,8.35-.68A7.13,7.13,0,0,0,263,197.1,54.46,54.46,0,0,0,261.84,191.37Z"/><path class="a3b86792-3997-42fb-9ebb-97bbbccb0801" d="M237.84,180.29a11.63,11.63,0,0,0-4.45,5c-1,2.55-6.11,5.83-8.92,5-3.49-1.08-4.14-2.42-4.14-2.42s-4.71,2.37-5.81,4.16,4.35,4,9.5,3.17c4.55-.68,5.69-4.34,10.29-6.47S241,185.89,237.84,180.29Z"/><path class="bda6fc29-0150-428a-a2d2-f66d37cbab2e" d="M216.65,114.84a244.72,244.72,0,0,1,10.71-26.4s-1.22-15.33-1.64-19.62c-.22-2.31-1.12-7.51,0-11,1.67-5.19,5.56-10.94,8.11-14.39a8.22,8.22,0,0,0,1.4,1.09C232.15,48.29,229,56.7,229,56.7s9.07,5,15.09,4.92c3.71-7.77,8.68-15.74,8.68-15.74l2.44,1.26s-8.91,13.37-8.63,25.33c.19,8,4,18,7.53,18.46a14.44,14.44,0,0,0,6.63-.86A44.4,44.4,0,0,1,263,95c3.44,12.24.07,35.68-.66,47.95-3.48,4.68-5.41,14.64-27.49,12.9-15.73-1.23-22.7-7.18-22.69-19.71C212.19,133.26,215.05,119.67,216.65,114.84Z"/><path class="eb89f9f4-de53-477f-97e0-50cc16c21d2e" d="M225.81,108.34s9.27,2.91,14.71.87,13.66-12.44,13.66-12.44-8.8,6.62-13.66,8.67A41.32,41.32,0,0,1,225.81,108.34Z"/><path class="a5eff3c0-b2df-4bd1-95ef-3d70da568c20" d="M205.24,68.59c.68-.71,15.4-3.34,15.4-3.34s5.61,5.79,2.22,8c-2.37,1.54-11.72,4.61-18.78.64C202.76,72.67,206.59,69.78,205.24,68.59Z"/><path class="ee3e057a-a17e-4fca-a075-e9fe15015063" d="M220.39,120.45s.05,9.13,7,14.91,13.16,3.8,13.16,3.8-6.28-1-12.28-7.5S220.39,120.45,220.39,120.45Z"/><polygon class="b3578146-dc27-4f50-9c0c-892db15b22ed" points="92.2 100.8 92.2 181.16 234.3 263.19 234.3 181.58 92.2 100.8"/><polygon class="eb89f9f4-de53-477f-97e0-50cc16c21d2e" points="97.06 120.63 97.06 177.61 127.97 195.46 127.97 138.21 97.06 120.63"/><polygon class="eb89f9f4-de53-477f-97e0-50cc16c21d2e" points="130.95 140.38 130.95 197.36 161.87 215.21 161.87 157.96 130.95 140.38"/><polygon class="eb89f9f4-de53-477f-97e0-50cc16c21d2e" points="165.16 160.34 165.16 217.33 196.07 235.17 196.07 177.92 165.16 160.34"/><polygon class="eb89f9f4-de53-477f-97e0-50cc16c21d2e" points="199.05 180.09 199.05 237.08 229.97 254.92 229.97 197.67 199.05 180.09"/><polygon class="bda6fc29-0150-428a-a2d2-f66d37cbab2e" points="100.08 126.16 100.08 175.71 124.94 190.06 124.94 140.29 100.08 126.16"/><polygon class="bda6fc29-0150-428a-a2d2-f66d37cbab2e" points="133.98 145.84 133.98 195.4 158.84 209.75 158.84 159.98 133.98 145.84"/><polygon class="bda6fc29-0150-428a-a2d2-f66d37cbab2e" points="168.01 166.49 168.01 216.04 192.87 230.39 192.87 180.62 168.01 166.49"/><polygon class="bda6fc29-0150-428a-a2d2-f66d37cbab2e" points="201.91 186.17 201.91 235.72 226.77 250.07 226.77 200.3 201.91 186.17"/><polygon class="bda6fc29-0150-428a-a2d2-f66d37cbab2e" points="83.63 99.54 225.73 181.58 284.39 147.71 142.29 65.67 83.63 99.54"/><polygon class="eb89f9f4-de53-477f-97e0-50cc16c21d2e" points="83.63 99.54 83.63 104.37 225.73 186.41 225.73 181.58 83.63 99.54"/><polygon class="eb89f9f4-de53-477f-97e0-50cc16c21d2e" points="284.39 147.71 225.73 181.58 225.73 186.41 234.3 181.58 234.3 263.19 284.39 234.11 284.39 147.71"/><path class="af79d14d-75d1-4145-adde-e5dcde933091" d="M168.76,115.29c-7.85,0-15.95,6.59-15.95,6.59v3c0,5.32,7.14,9.64,15.95,9.64s15.94-4.32,15.94-9.64v-3S176.6,115.29,168.76,115.29Z"/><path class="b58e7d0c-5ab7-4d05-8f91-ba50a58a71f1" d="M184.7,121.88c0,5.32-7.14,9.63-15.94,9.63s-15.95-4.31-15.95-9.63,7.14-9.63,15.95-9.63S184.7,116.56,184.7,121.88Z"/><path class="a017ffb0-be7a-4902-9de7-e3c580960e0b" d="M179,122.19c0,3.43-4.6,6.21-10.27,6.21s-10.28-2.78-10.28-6.21,4.6-6.2,10.28-6.2S179,118.76,179,122.19Z"/><path class="b5471074-2f01-40a7-a2a8-39306d212bae" d="M163.29,104.82v17.23c0,1.83,2.45,3.3,5.47,3.3s5.46-1.47,5.46-3.3V104.82Z"/><path class="b58e7d0c-5ab7-4d05-8f91-ba50a58a71f1" d="M168.75,80.94c-13.74,0-27.95,13.89-27.95,13.89v3c0,9.32,12.52,16.88,27.95,16.88s28-7.56,28-16.88v-3S182.5,80.94,168.75,80.94Z"/><path class="a017ffb0-be7a-4902-9de7-e3c580960e0b" d="M196.71,94.46c0,9.32-12.52,16.88-28,16.88s-27.95-7.56-27.95-16.88,12.52-16.89,27.95-16.89S196.71,85.13,196.71,94.46Z"/><path class="b58e7d0c-5ab7-4d05-8f91-ba50a58a71f1" d="M193.18,93.71c0,8.15-10.94,14.75-24.43,14.75s-24.42-6.6-24.42-14.75S155.27,79,168.75,79,193.18,85.56,193.18,93.71Z"/><path class="ea55495b-3eeb-4a77-83b8-4d254f0e6ca4" d="M191.31,91.71h0v-20H146.15v20h0q0,.36,0,.72c0,7.54,10.12,13.65,22.59,13.65s22.6-6.11,22.6-13.65Q191.34,92.07,191.31,91.71Z"/><path class="e759fb42-e52a-4032-8e40-08ec03ef465c" d="M168.6,96.23c8.43.4,18.1-2.84,22.71-9.84V71.73H146.15V85.32C151.42,92.19,159.83,95.81,168.6,96.23Z"/><path class="a90af1d6-7873-4e96-98ed-8cecfaac0209" d="M148.09,83.38c0,1.5-.46,4.27-.46,6.14a8.23,8.23,0,0,0,.65,3.64c.73,1.17,2.31.41,2.4-2s-.25-6.52,2.79-6.3c1.61.11,1.39,2,1,4.41-.22,1.45-.76,6.69,1.11,7.41,3.63,1.42.67-10,5.54-8.67,1,.26,1.06,1.2.93,3.4a20.79,20.79,0,0,0,0,3.51c.29,1.58,1.93,3.1,3.39,1.36s.08-7.06,1.3-7.72c2.4-1.31,2.69,3.63,2.72,5.12,0,1-.56,6.54,0,7.46,2.2,3.63,5.7,1,5.19-2.6a73.09,73.09,0,0,1-.13-8.88c.32-3.3,4.4-3.67,5.18-1.68s-.21,6.07,1,7.32c1.94,2,3.43-.19,3.18-3.89-.24-3.36.46-7.57,2.91-6,1.62,1,.59,6.44,1.75,7.59,1.37,1.36,2.71-1.75,2.71-4.82V71.73H146.15v7.08C147.5,79.62,148,81,148.09,83.38Z"/><path class="fbd40f92-8507-4ecc-bda7-955306a38dec" d="M179.46,85.85c-.81-1.27-2.81-1-4.25-.22-1.71.93-2.06,3-2,6.12,0,2.18.71,6.33-.5,8.36-.64,1.08-1.89,2.07-3.36.51a2.66,2.66,0,0,0,.16,1c1.68,3.24,5.83,1.08,5.19-3a71.08,71.08,0,0,1-.13-8.88c.32-3.3,4.4-3.67,5.18-1.68a6.25,6.25,0,0,1,.34,1.77A5.6,5.6,0,0,0,179.46,85.85Z"/><path class="fbd40f92-8507-4ecc-bda7-955306a38dec" d="M186.27,84c-1.13-1.09-2.34-.07-2.79.63a8.93,8.93,0,0,0-.91,2.93c-.28,1.87.29,3.66.15,5.49,0,.52,0,1.53-.93,1.78s-1.48-1-1.69-1.93a3.62,3.62,0,0,0,.66,2.4c1.94,2,3.43-.19,3.18-3.89-.24-3.36.46-7.57,2.91-6a1.48,1.48,0,0,1,.51.61A3.11,3.11,0,0,0,186.27,84Z"/><path class="fbd40f92-8507-4ecc-bda7-955306a38dec" d="M167.84,86.94c-1.17-.6-2.5.61-2.75,1.78-.54,1.65,0,3.5-.36,5.19-.22,1-1.26,3-2.43,1.73.57,1.25,1.93,2.11,3.16.64,1.36-1.62.08-7.06,1.3-7.72,1.65-.9,2.3,1.16,2.56,3C169.37,91.54,170.15,88.13,167.84,86.94Z"/><path class="fbd40f92-8507-4ecc-bda7-955306a38dec" d="M148,82.08c0-2.59-.83-5.69-1.84-5.74v2.47A4,4,0,0,1,148,82.08Z"/><path class="fbd40f92-8507-4ecc-bda7-955306a38dec" d="M149.25,91.92c-.13.86-1.35.48-1.42-.13a3.34,3.34,0,0,0,.45,1.37c.73,1.17,2.31.41,2.4-2,.08-1.92-.1-4.72,1.17-5.83C150.08,85.26,149.49,90.29,149.25,91.92Z"/><path class="fbd40f92-8507-4ecc-bda7-955306a38dec" d="M154.51,89.27c0,.33-.12.86-.17,1.47a7.5,7.5,0,0,0,.26-1.1l.12-2C154.67,88.12,154.59,88.68,154.51,89.27Z"/><path class="fbd40f92-8507-4ecc-bda7-955306a38dec" d="M189.6,71.73a16.21,16.21,0,0,0-3.17,7,3.4,3.4,0,0,1,3.1,2.62,13.85,13.85,0,0,1,.52,4.72c-.09,1.82.23,6.53-1.06,6.69a.92.92,0,0,1-.63-.13,1.36,1.36,0,0,0,.24.39c1.37,1.36,2.71-1.75,2.71-4.82V71.73Z"/><path class="fbd40f92-8507-4ecc-bda7-955306a38dec" d="M159.64,86.19c-3.16.56-2.12,4.94-2.75,7.38-.26,1-.89,2.52-2.17,2.07a1.69,1.69,0,0,0,.9,1c3.63,1.42.67-10,5.54-8.67a1.09,1.09,0,0,1,.8.74C161.94,87.2,161.11,85.93,159.64,86.19Z"/><path class="aeb9b1dd-ad15-47f4-8807-11f864644db1" d="M191.34,71.73c0,7.54-10.12,13.65-22.6,13.65s-22.59-6.11-22.59-13.65,10.12-13.65,22.59-13.65S191.34,64.19,191.34,71.73Z"/><path class="b9b489f0-ea8d-4afc-928a-8010eac071b9" d="M186.47,71.43c0,5.4-8,9.77-17.81,9.77s-17.82-4.37-17.82-9.77,8-9.77,17.82-9.77S186.47,66,186.47,71.43Z"/><path class="bb0c7e69-7ee5-411c-b717-0b790d513e84" d="M160.9,71.13c-1.58,4.41-4.27,3.46-4.66,5.75a2.37,2.37,0,0,0,.63,2.09,1.91,1.91,0,0,0,.75,2.4,2.44,2.44,0,0,0,2.95-.43c1.34.88,4-.35,4.7-1.85C166.7,76.21,163.73,72.8,160.9,71.13Z"/><path class="b5471074-2f01-40a7-a2a8-39306d212bae" d="M161.46,72.27c.46,3-1,6-1.48,9.06a3.35,3.35,0,0,0,.59-.39,2,2,0,0,0,.91.29C161.6,78.08,162.77,75.14,161.46,72.27Z"/><path class="b5471074-2f01-40a7-a2a8-39306d212bae" d="M160.86,71.21a3.45,3.45,0,0,1-.14.34,1.08,1.08,0,0,1-.08.19s0,0,0,0c-1.59,3.65-4,2.93-4.39,5.1a2.47,2.47,0,0,0,0,.86l.06-.11c.88-1.38,2.64-2.48,3.7-3.83a6.49,6.49,0,0,1-.75,1.4,29.63,29.63,0,0,0-2.54,3.6c.05,0,.09.12.14.17a1.91,1.91,0,0,0,.75,2.4h0a8.9,8.9,0,0,1,1-3.3,18.63,18.63,0,0,0,1.94-4.46A13.51,13.51,0,0,0,160.86,71.21Z"/><path class="ee3e057a-a17e-4fca-a075-e9fe15015063" d="M156.73,80c.57-1.64,2.21-3.47,2.91-5.35-.41.45-1,1.17-1.44,1.6a5.52,5.52,0,0,0-1.62,2.4,2.54,2.54,0,0,0,.29.36A2.31,2.31,0,0,0,156.73,80Z"/><path class="ee3e057a-a17e-4fca-a075-e9fe15015063" d="M161.45,73.4a9.62,9.62,0,0,1-1.23,3c-1.1,1.91-2.41,3.42-2.23,5.15a2.64,2.64,0,0,0,2.58-.63C160.68,80.5,161.76,75.58,161.45,73.4Z"/><path class="ee3e057a-a17e-4fca-a075-e9fe15015063" d="M162.07,71.93c1.43,2.95-.07,6.28.05,9.27a4.44,4.44,0,0,0,3.15-2.11C166.5,76.61,164.47,73.75,162.07,71.93Z"/><path class="bb0c7e69-7ee5-411c-b717-0b790d513e84" d="M153,64c-1.58,4.41-4.27,3.46-4.66,5.76a2.35,2.35,0,0,0,.63,2.08,1.91,1.91,0,0,0,.75,2.4,2.44,2.44,0,0,0,2.95-.43c1.34.89,4-.34,4.7-1.84C158.78,69.12,155.82,65.7,153,64Z"/><path class="b5471074-2f01-40a7-a2a8-39306d212bae" d="M153.55,65.17c.46,3-1,6-1.48,9.06a3.35,3.35,0,0,0,.59-.39,2,2,0,0,0,.91.29C153.69,71,154.86,68,153.55,65.17Z"/><path class="b5471074-2f01-40a7-a2a8-39306d212bae" d="M153,64.12c0,.12-.09.22-.14.34s-.05.12-.08.19,0,0,0,0c-1.59,3.65-4,2.93-4.39,5.11a2.48,2.48,0,0,0,0,.86l.06-.11c.88-1.39,2.64-2.49,3.7-3.84a6.81,6.81,0,0,1-.75,1.41,29.53,29.53,0,0,0-2.54,3.59c.05.06.09.12.14.17a1.91,1.91,0,0,0,.75,2.4l0,0a8.84,8.84,0,0,1,1-3.3,19,19,0,0,0,1.94-4.46A13.51,13.51,0,0,0,153,64.12Z"/><path class="ee3e057a-a17e-4fca-a075-e9fe15015063" d="M148.82,72.87c.57-1.64,2.21-3.48,2.91-5.36-.41.45-1,1.18-1.44,1.61a5.44,5.44,0,0,0-1.62,2.39,2.08,2.08,0,0,0,.29.36A2.19,2.19,0,0,0,148.82,72.87Z"/><path class="ee3e057a-a17e-4fca-a075-e9fe15015063" d="M153.54,66.3a9.77,9.77,0,0,1-1.23,3c-1.1,1.9-2.41,3.42-2.23,5.15a2.67,2.67,0,0,0,2.58-.64C152.77,73.4,153.85,68.48,153.54,66.3Z"/><path class="ee3e057a-a17e-4fca-a075-e9fe15015063" d="M154.16,64.84c1.43,2.94-.07,6.27.05,9.27A4.49,4.49,0,0,0,157.36,72C158.59,69.52,156.56,66.65,154.16,64.84Z"/><path class="bb0c7e69-7ee5-411c-b717-0b790d513e84" d="M184.15,64c-1.58,4.41-4.27,3.46-4.66,5.76a2.35,2.35,0,0,0,.63,2.08,1.91,1.91,0,0,0,.75,2.4,2.44,2.44,0,0,0,2.95-.43c1.34.89,4-.34,4.7-1.84C190,69.12,187,65.7,184.15,64Z"/><path class="b5471074-2f01-40a7-a2a8-39306d212bae" d="M184.71,65.17c.46,3-1,6-1.48,9.06a3.35,3.35,0,0,0,.59-.39,2,2,0,0,0,.91.29C184.85,71,186,68,184.71,65.17Z"/><path class="b5471074-2f01-40a7-a2a8-39306d212bae" d="M184.11,64.12c0,.12-.09.22-.13.34l-.09.19s0,0,0,0c-1.59,3.65-4,2.93-4.39,5.11a2.48,2.48,0,0,0,0,.86l.06-.11c.88-1.39,2.64-2.49,3.7-3.84a6.81,6.81,0,0,1-.75,1.41A28.39,28.39,0,0,0,180,71.7a1.09,1.09,0,0,0,.13.17,1.91,1.91,0,0,0,.75,2.4l0,0a8.84,8.84,0,0,1,1-3.3,19,19,0,0,0,1.94-4.46A13.51,13.51,0,0,0,184.11,64.12Z"/><path class="ee3e057a-a17e-4fca-a075-e9fe15015063" d="M180,72.87c.57-1.64,2.21-3.48,2.91-5.36-.41.45-1,1.18-1.44,1.61a5.53,5.53,0,0,0-1.62,2.39,2.08,2.08,0,0,0,.29.36A2.34,2.34,0,0,0,180,72.87Z"/><path class="ee3e057a-a17e-4fca-a075-e9fe15015063" d="M184.7,66.3a9.77,9.77,0,0,1-1.23,3c-1.1,1.9-2.41,3.42-2.23,5.15a2.67,2.67,0,0,0,2.58-.64C183.93,73.4,185,68.48,184.7,66.3Z"/><path class="ee3e057a-a17e-4fca-a075-e9fe15015063" d="M185.32,64.84c1.43,2.94-.07,6.27.05,9.27A4.47,4.47,0,0,0,188.52,72C189.75,69.52,187.72,66.65,185.32,64.84Z"/><path class="bb0c7e69-7ee5-411c-b717-0b790d513e84" d="M175.47,71.13c-1.57,4.41-4.27,3.46-4.65,5.75a2.32,2.32,0,0,0,.63,2.09,1.89,1.89,0,0,0,.75,2.4,2.44,2.44,0,0,0,3-.43c1.34.88,4-.35,4.7-1.85C181.27,76.21,178.3,72.8,175.47,71.13Z"/><path class="b5471074-2f01-40a7-a2a8-39306d212bae" d="M176,72.27c.47,3-1,6-1.47,9.06a4.29,4.29,0,0,0,.59-.39,2,2,0,0,0,.91.29C176.18,78.08,177.35,75.14,176,72.27Z"/><path class="b5471074-2f01-40a7-a2a8-39306d212bae" d="M175.44,71.21c-.05.12-.1.23-.14.34l-.09.19s0,0,0,0c-1.59,3.65-4,2.93-4.38,5.1a2.47,2.47,0,0,0,0,.86l.06-.11c.88-1.38,2.64-2.48,3.7-3.83a6.92,6.92,0,0,1-.74,1.4,27.58,27.58,0,0,0-2.54,3.6,2.09,2.09,0,0,0,.14.17,1.89,1.89,0,0,0,.75,2.4h0a8.92,8.92,0,0,1,1-3.3,19,19,0,0,0,1.94-4.46A15.65,15.65,0,0,0,175.44,71.21Z"/><path class="ee3e057a-a17e-4fca-a075-e9fe15015063" d="M171.3,80c.58-1.64,2.22-3.47,2.91-5.35-.41.45-1,1.17-1.44,1.6a5.49,5.49,0,0,0-1.61,2.4,1.64,1.64,0,0,0,.29.36A2.18,2.18,0,0,0,171.3,80Z"/><path class="ee3e057a-a17e-4fca-a075-e9fe15015063" d="M176,73.4a9.39,9.39,0,0,1-1.23,3c-1.1,1.91-2.41,3.42-2.22,5.15a2.65,2.65,0,0,0,2.58-.63C175.25,80.5,176.34,75.58,176,73.4Z"/><path class="ee3e057a-a17e-4fca-a075-e9fe15015063" d="M176.65,71.93c1.42,2.95-.08,6.28,0,9.27a4.46,4.46,0,0,0,3.16-2.11C181.07,76.61,179,73.75,176.65,71.93Z"/><path class="bb0c7e69-7ee5-411c-b717-0b790d513e84" d="M160.9,56.63c-1.58,4.41-4.27,3.45-4.66,5.75a2.37,2.37,0,0,0,.63,2.09,1.91,1.91,0,0,0,.75,2.4,2.45,2.45,0,0,0,2.95-.43c1.34.88,4-.35,4.7-1.85C166.7,61.71,163.73,58.3,160.9,56.63Z"/><path class="b5471074-2f01-40a7-a2a8-39306d212bae" d="M161.46,57.77c.46,3-1,6-1.48,9.06a3.35,3.35,0,0,0,.59-.39,1.91,1.91,0,0,0,.91.28C161.6,63.58,162.77,60.63,161.46,57.77Z"/><path class="b5471074-2f01-40a7-a2a8-39306d212bae" d="M160.86,56.71a3.45,3.45,0,0,1-.14.34,1.54,1.54,0,0,1-.08.19v0c-1.59,3.65-4,2.93-4.39,5.1a2.47,2.47,0,0,0,0,.86l.06-.11c.88-1.39,2.64-2.48,3.7-3.84a6.56,6.56,0,0,1-.75,1.41,29.53,29.53,0,0,0-2.54,3.59c.05.06.09.13.14.18a1.91,1.91,0,0,0,.75,2.4h0a8.9,8.9,0,0,1,1-3.3,18.63,18.63,0,0,0,1.94-4.46A13.51,13.51,0,0,0,160.86,56.71Z"/><path class="ee3e057a-a17e-4fca-a075-e9fe15015063" d="M156.73,65.46c.57-1.64,2.21-3.47,2.91-5.35-.41.45-1,1.17-1.44,1.6a5.56,5.56,0,0,0-1.62,2.39,2.16,2.16,0,0,0,.29.37A2.29,2.29,0,0,0,156.73,65.46Z"/><path class="ee3e057a-a17e-4fca-a075-e9fe15015063" d="M161.45,58.89a9.58,9.58,0,0,1-1.23,3c-1.1,1.91-2.41,3.42-2.23,5.15a2.64,2.64,0,0,0,2.58-.63C160.68,66,161.76,61.08,161.45,58.89Z"/><path class="ee3e057a-a17e-4fca-a075-e9fe15015063" d="M162.07,57.43c1.43,3-.07,6.28.05,9.27a4.47,4.47,0,0,0,3.15-2.11C166.5,62.11,164.47,59.25,162.07,57.43Z"/><path class="bb0c7e69-7ee5-411c-b717-0b790d513e84" d="M175.47,56.63c-1.57,4.41-4.27,3.45-4.65,5.75a2.32,2.32,0,0,0,.63,2.09,1.89,1.89,0,0,0,.75,2.4,2.46,2.46,0,0,0,3-.43c1.34.88,4-.35,4.7-1.85C181.27,61.71,178.3,58.3,175.47,56.63Z"/><path class="b5471074-2f01-40a7-a2a8-39306d212bae" d="M176,57.77c.47,3-1,6-1.47,9.06a4.29,4.29,0,0,0,.59-.39,1.84,1.84,0,0,0,.91.28C176.18,63.58,177.35,60.63,176,57.77Z"/><path class="b5471074-2f01-40a7-a2a8-39306d212bae" d="M175.44,56.71c-.05.12-.1.23-.14.34l-.09.19a.06.06,0,0,1,0,0c-1.59,3.65-4,2.93-4.38,5.1a2.48,2.48,0,0,0,0,.86l.06-.11c.88-1.39,2.64-2.48,3.7-3.84a7,7,0,0,1-.74,1.41,27.48,27.48,0,0,0-2.54,3.59,1.24,1.24,0,0,0,.14.18,1.89,1.89,0,0,0,.75,2.4h0a8.92,8.92,0,0,1,1-3.3,19,19,0,0,0,1.94-4.46A15.65,15.65,0,0,0,175.44,56.71Z"/><path class="ee3e057a-a17e-4fca-a075-e9fe15015063" d="M171.3,65.46c.58-1.64,2.22-3.47,2.91-5.35-.41.45-1,1.17-1.44,1.6a5.52,5.52,0,0,0-1.61,2.39,1.48,1.48,0,0,0,.29.37A2.16,2.16,0,0,0,171.3,65.46Z"/><path class="ee3e057a-a17e-4fca-a075-e9fe15015063" d="M176,58.89a9.35,9.35,0,0,1-1.23,3c-1.1,1.91-2.41,3.42-2.22,5.15a2.65,2.65,0,0,0,2.58-.63C175.25,66,176.34,61.08,176,58.89Z"/><path class="ee3e057a-a17e-4fca-a075-e9fe15015063" d="M176.65,57.43c1.42,3-.08,6.28,0,9.27a4.49,4.49,0,0,0,3.16-2.11C181.07,62.11,179,59.25,176.65,57.43Z"/><path class="b6eb62d5-abf9-47d3-b7d3-d897a89cbafb" d="M158.91,100.2c-.84.85-1.11,2.3-.38,2.45s2-.91,1.91-2S159.48,99.63,158.91,100.2Z"/><path class="b6eb62d5-abf9-47d3-b7d3-d897a89cbafb" d="M149.16,95.18c-.2,1.18.41,2.52,1.09,2.23a2,2,0,0,0,.4-2.75C150,93.77,149.3,94.39,149.16,95.18Z"/><path class="b6eb62d5-abf9-47d3-b7d3-d897a89cbafb" d="M152.41,88.05c-.64.7-.81,1.85-.23,2s1.53-.78,1.45-1.66S152.84,87.58,152.41,88.05Z"/><path class="b6eb62d5-abf9-47d3-b7d3-d897a89cbafb" d="M167.52,91.75c-.65.7-.81,1.86-.23,2s1.53-.78,1.45-1.66S168,91.28,167.52,91.75Z"/><path class="b6eb62d5-abf9-47d3-b7d3-d897a89cbafb" d="M159.21,92.7c.57.76,1.68,1.14,1.88.59a1.63,1.63,0,0,0-1.36-1.74C158.85,91.46,158.83,92.19,159.21,92.7Z"/><path class="b6eb62d5-abf9-47d3-b7d3-d897a89cbafb" d="M152.66,96.2c-.06,1,.54,2,1.05,1.66a1.62,1.62,0,0,0,.08-2.2C153.17,95,152.7,95.56,152.66,96.2Z"/><path class="b6eb62d5-abf9-47d3-b7d3-d897a89cbafb" d="M162.46,102.74c.56.76,1.67,1.14,1.87.58s-.48-1.64-1.36-1.73S162.07,102.22,162.46,102.74Z"/><path class="b6eb62d5-abf9-47d3-b7d3-d897a89cbafb" d="M185,89.46c.57.76,1.68,1.14,1.88.59a1.63,1.63,0,0,0-1.36-1.74C184.63,88.22,184.61,89,185,89.46Z"/><path class="b6eb62d5-abf9-47d3-b7d3-d897a89cbafb" d="M187.35,96c.56.76,1.67,1.14,1.87.58s-.48-1.64-1.36-1.73S187,95.47,187.35,96Z"/><path class="b6eb62d5-abf9-47d3-b7d3-d897a89cbafb" d="M175.81,98.05c.57.76,1.67,1.14,1.88.59s-.49-1.65-1.37-1.74S175.43,97.54,175.81,98.05Z"/><path class="b6eb62d5-abf9-47d3-b7d3-d897a89cbafb" d="M184.43,94.6c-.21,1.18.4,2.52,1.09,2.22a2.06,2.06,0,0,0,.4-2.75C185.24,93.19,184.56,93.8,184.43,94.6Z"/><path class="b6eb62d5-abf9-47d3-b7d3-d897a89cbafb" d="M180.27,100.2c-.85.85-1.11,2.3-.38,2.45s2-.91,1.9-2S180.84,99.63,180.27,100.2Z"/><circle class="ea55495b-3eeb-4a77-83b8-4d254f0e6ca4" cx="181.79" cy="63.48" r="0.7"/><path class="ea55495b-3eeb-4a77-83b8-4d254f0e6ca4" d="M154.33,62.78a.7.7,0,1,1-.69-.69A.69.69,0,0,1,154.33,62.78Z"/><path class="ea55495b-3eeb-4a77-83b8-4d254f0e6ca4" d="M153.12,76.39a.7.7,0,1,1-1.39,0,.7.7,0,1,1,1.39,0Z"/><path class="ea55495b-3eeb-4a77-83b8-4d254f0e6ca4" d="M153.12,103.59a.7.7,0,1,1-.7-.7A.69.69,0,0,1,153.12,103.59Z"/><path class="ea55495b-3eeb-4a77-83b8-4d254f0e6ca4" d="M166.45,108.36a.7.7,0,1,1-.69-.69A.69.69,0,0,1,166.45,108.36Z"/><circle class="ea55495b-3eeb-4a77-83b8-4d254f0e6ca4" cx="179.83" cy="106.08" r="0.7"/><path class="ea55495b-3eeb-4a77-83b8-4d254f0e6ca4" d="M193.43,98.9a.7.7,0,1,1-.69-.69A.69.69,0,0,1,193.43,98.9Z"/><path class="ea55495b-3eeb-4a77-83b8-4d254f0e6ca4" d="M192,101.22a.7.7,0,0,1-1.4,0,.7.7,0,1,1,1.4,0Z"/><path class="ea55495b-3eeb-4a77-83b8-4d254f0e6ca4" d="M194.13,90a.7.7,0,1,1-.7-.69A.7.7,0,0,1,194.13,90Z"/><path class="ea55495b-3eeb-4a77-83b8-4d254f0e6ca4" d="M144.28,95.37a.7.7,0,1,1-1.4,0,.7.7,0,0,1,1.4,0Z"/><path class="ea55495b-3eeb-4a77-83b8-4d254f0e6ca4" d="M144.28,92.09a.7.7,0,1,1-.7-.7A.7.7,0,0,1,144.28,92.09Z"/><path class="ea55495b-3eeb-4a77-83b8-4d254f0e6ca4" d="M149,102.87a.7.7,0,1,1-.7-.69A.7.7,0,0,1,149,102.87Z"/><path class="ea55495b-3eeb-4a77-83b8-4d254f0e6ca4" d="M171.85,67.93a.7.7,0,1,1-.69-.7A.7.7,0,0,1,171.85,67.93Z"/><path class="ea55495b-3eeb-4a77-83b8-4d254f0e6ca4" d="M160.33,68.63a.7.7,0,1,1-.69-.7A.69.69,0,0,1,160.33,68.63Z"/><path class="ea55495b-3eeb-4a77-83b8-4d254f0e6ca4" d="M167.63,61.66a.7.7,0,0,1-1.4,0,.7.7,0,1,1,1.4,0Z"/><path class="ea55495b-3eeb-4a77-83b8-4d254f0e6ca4" d="M187.6,77.29a.7.7,0,1,1-.7-.7A.69.69,0,0,1,187.6,77.29Z"/><path class="ea55495b-3eeb-4a77-83b8-4d254f0e6ca4" d="M162.91,70.19a.7.7,0,1,1-1.39,0,.7.7,0,1,1,1.39,0Z"/><path class="ea55495b-3eeb-4a77-83b8-4d254f0e6ca4" d="M176.3,68.63a.7.7,0,1,1-.7-.7A.69.69,0,0,1,176.3,68.63Z"/><path class="ea55495b-3eeb-4a77-83b8-4d254f0e6ca4" d="M182.49,80a.7.7,0,1,1-.7-.69A.7.7,0,0,1,182.49,80Z"/><path class="ea55495b-3eeb-4a77-83b8-4d254f0e6ca4" d="M168.54,74.61a.7.7,0,1,1-.7-.7A.7.7,0,0,1,168.54,74.61Z"/><path class="ea55495b-3eeb-4a77-83b8-4d254f0e6ca4" d="M165.76,83a.7.7,0,1,1-.7-.69A.7.7,0,0,1,165.76,83Z"/><path class="aeb9b1dd-ad15-47f4-8807-11f864644db1" d="M155.57,86.79c-.35.21-.88,3-.85,5.76,0,2.4,1.36,2.39,1.23-.63C155.8,88.63,156,86.52,155.57,86.79Z"/><path class="aeb9b1dd-ad15-47f4-8807-11f864644db1" d="M163.06,88.9c-.29,0-.46,2.53-.44,4.53,0,1.73,1,1.72.88-.45C163.4,90.6,163.51,88.84,163.06,88.9Z"/><path class="aeb9b1dd-ad15-47f4-8807-11f864644db1" d="M170.79,93.3c-.8-.43-.93,3.15-.91,5.15,0,1.73,1.7,1.63,1.6-.55C171.38,95.52,171.49,93.68,170.79,93.3Z"/><path class="aeb9b1dd-ad15-47f4-8807-11f864644db1" d="M148.44,86.16c-.29,0-.47,1.7-.45,3.7,0,1.73,1,1.72.89-.46C148.77,87,148.89,86.1,148.44,86.16Z"/><path class="bd850b8d-e71c-4065-a91f-bef6049ed4aa" d="M222.1,65.47c-4-5.24-9.25-6.63-14.22-.64s-5.68,11.77-8,16.61-7.36,10.07-7.36,10.07l2.14,1.83S200.94,89,203.43,87c3.71-3,9.71-2.44,15.94-8.22C225.33,73.2,225.77,70.22,222.1,65.47Z"/><path class="bb9b6726-6f11-4428-a11e-9eb461b2d2cb" d="M222.1,65.47a17.44,17.44,0,0,0-1.74-1.94c1.09,2.39.7,5.3-2.29,8.56-5.71,6.23-14.43,8.51-20.14,15.09-1.32,1.52-2.67,3.61-4.24,5.33l1,.83S200.94,89,203.43,87c3.71-3,9.71-2.44,15.94-8.22C225.33,73.2,225.77,70.22,222.1,65.47Z"/><path class="ea55495b-3eeb-4a77-83b8-4d254f0e6ca4" d="M192.52,91.51l4.63-5.57a3.85,3.85,0,0,1,2.16,1.13c1.13,1.58.88,2.32.88,2.32l-5.27,4Z"/><path class="e759fb42-e52a-4032-8e40-08ec03ef465c" d="M194.92,93.36c-.35.39-1.14.26-1.78-.29s-.88-1.33-.54-1.73,1.15-.26,1.78.29S195.26,93,194.92,93.36Z"/><path class="ea55495b-3eeb-4a77-83b8-4d254f0e6ca4" d="M194.36,92.94c-.18.22-.62.15-1-.16s-.49-.73-.3-1,.63-.14,1,.16S194.55,92.72,194.36,92.94Z"/><path class="a5eff3c0-b2df-4bd1-95ef-3d70da568c20" d="M235.16,79A34.57,34.57,0,0,1,245,77.78s1.07-4.69,1.09-4.8c1.34.29,3.64.11,5,.4,2.18.48,4.63,2.1,6.77,2.69-1,1.83-2.64,4.29-3.61,6.18-1.26,2.46-2.63,4.38-3.88,5.14-3.54,2.13-6.8,2.6-13.88,2.44a102.78,102.78,0,0,1-13-1.48l.07-6.62S230.7,80.32,235.16,79Z"/><path class="b58e7d0c-5ab7-4d05-8f91-ba50a58a71f1" d="M244.9,74.7c.95-4.08,3.48-12,6.14-16.56a31.09,31.09,0,0,1,7.21-8.81s8.3,2.67,5.6,12.46a65.92,65.92,0,0,1-7.19,17.3A78,78,0,0,0,244.9,74.7Z"/><path class="a5eff3c0-b2df-4bd1-95ef-3d70da568c20" d="M223.55,81.73a20.94,20.94,0,0,1-7-1.11c-3.46-1.24-5.88-2.47-7.17-2.85s-2,.77-.27,2,3,1.09,3.35,2.11c-1.49,1.63-5.93,2.71-9.07,5.09,3.29,1.75,11.59,2.1,13.69,1.69a41.35,41.35,0,0,1,6.36-.31s1-.53.9-3.45S223.55,81.73,223.55,81.73Z"/><path class="b5471074-2f01-40a7-a2a8-39306d212bae" d="M256.66,79.09l1-1.79a16.06,16.06,0,0,0-4.14-2.25,55.1,55.1,0,0,0-8.24-2l-.55,2.21s4.49,1.27,6.32,1.94S256.66,79.09,256.66,79.09Z"/><polygon class="aea1ed65-59c2-4ffd-bbac-3f141920c657" points="195.78 127.93 195.78 150.41 227.46 168.78 227.46 146.3 195.78 127.93"/><polygon class="a20ab2e8-d4a8-4a5c-9a9d-acb81cb13d05" points="259.17 127.99 259.17 150.47 227.46 168.78 227.46 146.3 259.17 127.99"/><polygon class="ea55495b-3eeb-4a77-83b8-4d254f0e6ca4" points="195.78 147.27 195.78 150.41 227.46 168.78 227.46 165.64 195.78 147.27"/><polygon class="e759fb42-e52a-4032-8e40-08ec03ef465c" points="259.17 147.33 259.17 150.47 227.46 168.78 227.46 165.64 259.17 147.33"/><polygon class="e7460058-1dcb-4933-9d52-b7851f9040c6" points="259.17 127.99 227.46 146.3 195.78 127.93 227.5 109.63 259.17 127.99"/><path class="f9eb9de4-f3b4-46e4-92e4-a8cdc6fbf6ae" d="M195.78,127.93c-1.05,1.07-.6,3.53-.6,6.22s-.33,6.7.13,8.3,1.44,1.12,1.31-1-.06-6.3.7-8.6c.18-.54,1-.68,1,2.37,0,1.4-.71,3.74-.67,5,.06,2,.43,3.72,1.6,2.68.49-.43-.25-2.44,0-5.12s1.79-2.57,1.66-1.14a38.1,38.1,0,0,0,0,7.53c.37,2.65,2.07,1.39,2.15-.13s1.53-2.49,2.09-1.12,2.11.21,2.16-1.29,2.72-3,2.9-.53-1.29,8-.36,9.67,1.84.35,1.76-1.86.17-7.42,1.12-7.28.46,4.05.83,5.63,2,2.49,2.13,1.09.53-4.82,1.09-4.75.64,2.23.61,4.75.34,6.87,1.22,7.23,1.14-1.57,1.2-4.15-.44-6.67.86-5.88,1.41,2.53,1,4.64c-.45,2.4,0,4,.77,3.65s1.13-2.7,1.08-3.64c-.1-1.85,1.59-3,1.59,0,0,4.66,2.31,5,2.31,5V146.3Z"/><path class="ea55495b-3eeb-4a77-83b8-4d254f0e6ca4" d="M250.44,124.5c-2.92-1-6.31-.37-9.21.47a.31.31,0,0,0,.14.61,38.46,38.46,0,0,1,4.87-.85,10.93,10.93,0,0,1,3.18.2c2.14.48,3.83,3.07,1.63,4.46a5.78,5.78,0,0,1-2.28.81c2.41-4.91-9.77-4.89-12.34-4.48a.17.17,0,1,0,0,.34,47.14,47.14,0,0,1,6.4.31,16.44,16.44,0,0,1,3.89,1c1.9,1.14,1.58,2.5,1.11,2.89a26.12,26.12,0,0,1-5.9-1.38,11.54,11.54,0,0,0-3.32-1.3,0,0,0,0,0,0,.09,42.62,42.62,0,0,1,3.8,2.25,4.42,4.42,0,0,1,2,2.64,11.12,11.12,0,0,1-4.41-.07,8.24,8.24,0,0,0-4.39-5c-.29-.11-.6.26-.32.45a11,11,0,0,1,3.82,4.34,30.87,30.87,0,0,1-4.68-2,.09.09,0,0,0-.11.15,12.3,12.3,0,0,0,5.06,2.6,3.38,3.38,0,0,1-.18,2.52c-3.1-.07-5.32-2-6.59-4.69a.33.33,0,0,0-.62.14,7.18,7.18,0,0,0-.75-.72.15.15,0,0,0-.22.19c1,1.69,2.9,4.21,2.64,6.34A13.26,13.26,0,0,1,231,133.2a14.76,14.76,0,0,0-.73-2.5c-.17-.43-.88-.19-.71.24,1.05,2.74,1.69,6.05.1,8.69a4.74,4.74,0,0,1-3.15-1.67,6.65,6.65,0,0,1-1.1-5.23.32.32,0,0,0-.63-.11c-.61,3,1,7.26,4.38,7.72-.56,1.44-3.68,2.48-4.92,2-3.24-1.33-2.8-6.48-2.21-8.23,0-.12-.15-.16-.21-.06-1.92,3.22-.71,10.18,4.59,9a5.65,5.65,0,0,0,3.87-2.69,5.89,5.89,0,0,0,1.24-.27,3.84,3.84,0,0,0,2.55-2.25,4.19,4.19,0,0,0,5.81-1.68,7.51,7.51,0,0,0,3.43-1,3.45,3.45,0,0,0,1.84-2,5.77,5.77,0,0,0,3.25-2.23c2.23,0,4.17-.72,4.79-2.7S252.11,125.1,250.44,124.5ZM231.9,139.14a3.7,3.7,0,0,1-1.29.46,10.3,10.3,0,0,0,.57-4.93,9.37,9.37,0,0,0,2.26,2.76A3.35,3.35,0,0,1,231.9,139.14Zm6.15-2.33a3.12,3.12,0,0,1-3.85.39,5.91,5.91,0,0,0-.38-3.15,8.33,8.33,0,0,0,4.92,2.09A4.42,4.42,0,0,1,238.05,136.81Zm2-1.34a4.91,4.91,0,0,0,0-2.29,17.49,17.49,0,0,0,4,.19C244.22,134.06,241.86,135.47,240.09,135.47Zm4.93-3.08a4.48,4.48,0,0,0-1.4-2.37,23.1,23.1,0,0,0,3.94.79A4.71,4.71,0,0,1,245,132.39Z"/><path class="aea1ed65-59c2-4ffd-bbac-3f141920c657" d="M227.71,112.07a4.81,4.81,0,0,1,1.66-2.77c1.26-1.12,3.72-2.72,5.22-2.68-.05,2,1.81,2.92,3.16,4.2a3.91,3.91,0,0,1,.85,4.2,3.22,3.22,0,0,1-4.49,1.37,3.33,3.33,0,0,1-1.15.42,4.24,4.24,0,0,1-3-.9C228.4,115.66,227.44,113.68,227.71,112.07Z"/><path class="b5471074-2f01-40a7-a2a8-39306d212bae" d="M230.46,112.7a13.91,13.91,0,0,1,1.45-5.18,14.08,14.08,0,0,1,3.43-1.47c0,2,1,3.09,2.66,5a3.59,3.59,0,0,1,.6,3.92q-.1.2-.21.36a5,5,0,0,0,0-.77c-.12-3-2.51-3.24-4.44-7.34C233.28,108.06,230.55,112.45,230.46,112.7Z"/><path class="a20ab2e8-d4a8-4a5c-9a9d-acb81cb13d05" d="M234.27,109a6.62,6.62,0,0,0,.78,1.33c.85,1.16,3.55,4.66,1.73,6.24a4.81,4.81,0,0,1-1.88.1C233.72,114.11,233.85,111.68,234.27,109Z"/><path class="a20ab2e8-d4a8-4a5c-9a9d-acb81cb13d05" d="M234,107.27c-.84,3.06-1.59,6.47-.26,9.31a3.08,3.08,0,0,1-.75.23,4.2,4.2,0,0,1-2.75-.74C229.39,113.13,231.74,109.55,234,107.27Z"/><path class="a20ab2e8-d4a8-4a5c-9a9d-acb81cb13d05" d="M227.71,112.07a4.81,4.81,0,0,1,1.66-2.77,14.21,14.21,0,0,1,3.91-2.48c-2.19,1.86-4.58,5.51-4.52,8.47A3.76,3.76,0,0,1,227.71,112.07Z"/><path class="aea1ed65-59c2-4ffd-bbac-3f141920c657" d="M237.88,120.21a4.8,4.8,0,0,1,1.65-2.77c1.26-1.11,3.73-2.72,5.22-2.68,0,2,1.81,2.93,3.16,4.2a3.89,3.89,0,0,1,.85,4.2,3.21,3.21,0,0,1-4.48,1.37,3.38,3.38,0,0,1-1.16.42,4.28,4.28,0,0,1-3-.89C238.56,123.8,237.6,121.82,237.88,120.21Z"/><path class="b5471074-2f01-40a7-a2a8-39306d212bae" d="M240.62,120.84a13.83,13.83,0,0,1,1.46-5.17,13.55,13.55,0,0,1,3.42-1.48c0,2,1,3.1,2.67,5a3.57,3.57,0,0,1,.59,3.92,2.12,2.12,0,0,1-.21.36,5.06,5.06,0,0,0,0-.77c-.13-3-2.52-3.24-4.44-7.33A64.42,64.42,0,0,0,240.62,120.84Z"/><path class="a20ab2e8-d4a8-4a5c-9a9d-acb81cb13d05" d="M244.44,117.17a6.2,6.2,0,0,0,.77,1.34c.85,1.15,3.55,4.65,1.73,6.23a4.44,4.44,0,0,1-1.88.1C243.88,122.25,244,119.82,244.44,117.17Z"/><path class="a20ab2e8-d4a8-4a5c-9a9d-acb81cb13d05" d="M244.14,115.42c-.84,3-1.6,6.46-.27,9.31a3.38,3.38,0,0,1-.75.22,4.15,4.15,0,0,1-2.74-.73C239.55,121.27,241.91,117.69,244.14,115.42Z"/><path class="a20ab2e8-d4a8-4a5c-9a9d-acb81cb13d05" d="M237.88,120.21a4.8,4.8,0,0,1,1.65-2.77,14.1,14.1,0,0,1,3.91-2.47c-2.19,1.85-4.57,5.5-4.52,8.46A3.72,3.72,0,0,1,237.88,120.21Z"/><path class="a87332d0-57de-47a7-93dd-339c3720bfe9" d="M214.25,103.72a2.1,2.1,0,0,1,.14-1.58c.75-1.52,3.52-1.38,4.91-1.58,1.71-.26,3.78-.63,5.3.45A2.86,2.86,0,0,1,226,103.4a37.44,37.44,0,0,1,4.82,3.14c2.45,2.06.11,4.09-1.78,5.22.29,2-2.74,5.9-3.57,6.16a8.55,8.55,0,0,1-7.58.32c-2.55-1.08-5.05-3.86-5-6.71a6.69,6.69,0,0,1-1.24-3.11C211.45,106.71,212.61,104.22,214.25,103.72Z"/><path class="a5a4b16b-c1c4-47ca-be74-458a98e67133" d="M214.25,103.72a2.1,2.1,0,0,1,.14-1.58c.75-1.52,3.52-1.38,4.91-1.58,1.71-.26,3.78-.63,5.3.45A2.86,2.86,0,0,1,226,103.4a37.44,37.44,0,0,1,4.82,3.14c2.45,2.06.11,4.09-1.78,5.22-1.07,3.39-1.27,4.82-3.57,6.16a8.93,8.93,0,0,1-7.58.32c-2.55-1.08-5.05-3.86-5-6.71a6.69,6.69,0,0,1-1.24-3.11C211.45,106.71,212.61,104.22,214.25,103.72Zm.42,5.46a5.22,5.22,0,0,0,3.21,1.83,5.14,5.14,0,0,0,3.26-.72c1.47,1.22,4.23,3.36,5.88,1.32a1.38,1.38,0,0,0,0-1.79c.94-.36,2.36.07,2.83-1,.39-.91-.45-1.78-1.07-2.32a8.39,8.39,0,0,0-3.74-1.93,4,4,0,0,0-.5,0c.06-1.34.39-2.68-1.27-3.23-1.34-.44-3.17.09-4.51.38-2,.44-4.9,2.19-2.62,3.94C214.05,105.68,213.32,107.44,214.67,109.18Z"/><path class="a71610e3-56fe-4e35-bd4e-8af3cb7ff50f" d="M215.28,105a2.94,2.94,0,0,1,3.33-1.22,2.19,2.19,0,0,1,.38-1.15,2.85,2.85,0,0,1,3.09-.7,4.56,4.56,0,0,1,2.82,2.82c3.6.69,4.09,3,3.57,4.31a3,3,0,0,1-4.12,1.71,4.64,4.64,0,0,1-1.85,1.44,4.55,4.55,0,0,1-4.95-1.08,4.25,4.25,0,0,1-1.28-3.09C215.22,107.32,214.56,106.27,215.28,105Z"/><path class="a87332d0-57de-47a7-93dd-339c3720bfe9" d="M218.19,103.19c1.49-.48,4-.14,4.94,1.32a2.56,2.56,0,0,1,3.4,1.2,2.18,2.18,0,0,1-.21,2.35,1.54,1.54,0,0,1-.56.4,1.86,1.86,0,0,1-1.48,2.22,3.28,3.28,0,0,1-3.54-1.34,2.93,2.93,0,0,1-1,.44,2.58,2.58,0,0,1-2.54-1,1.71,1.71,0,0,1,.32-2.48A1.87,1.87,0,0,1,218.19,103.19Z"/><path class="a71610e3-56fe-4e35-bd4e-8af3cb7ff50f" d="M221.55,105.86s1.17-2.5,2.68-.63a1.56,1.56,0,0,1-.69,2.65s.34.89-.86,1c-1.5.09-3.23-1.38-3.23-1.38s-2.54,0-1.62-2.2S221.55,105.86,221.55,105.86Z"/><path class="a5a4b16b-c1c4-47ca-be74-458a98e67133" d="M222,107.2s2.1,0,1.48-1.07-1.81.35-1.81.35-.83-1.45-2-1.13S218.86,106.59,222,107.2Z"/><path class="a87332d0-57de-47a7-93dd-339c3720bfe9" d="M214.75,111.88c1.06,2.49,4.22,2.58,6.92,2.07,2.11,1.77,5.24,1.1,5.89-1.68a2.15,2.15,0,0,0,1.43-.51c.07,3.35-1.38,4.88-3.57,6.16a8.93,8.93,0,0,1-7.58.32c-2.55-1.08-5.05-3.86-5-6.71a6.88,6.88,0,0,1-.48-.76A4.87,4.87,0,0,0,214.75,111.88Z"/><path class="ea55495b-3eeb-4a77-83b8-4d254f0e6ca4" d="M230.11,107.75c-1.65-.65-2.4,1.08-2.51,2.78-.55-1-1.33-1.52-2.39-.82-2.62,1.74-.51,5.77,1.26,7.2.11.09.3,0,.21-.16-1-1.62-2.54-3.24-1.91-5.34.28-.93,1.37-1.63,2.27-.62a3.91,3.91,0,0,1,.55,1.4c.3,1,.37,2,.6,3,.05.25.38.17.41,0a10.48,10.48,0,0,0-.51-3.48,5.49,5.49,0,0,1,0-1.07,4.75,4.75,0,0,1,.43-1.61c.57-1.08,2-.32,2.25.74.46,1.8-.35,3.47-.72,5.17,0,.16.17.33.29.18C231.57,113.58,232.55,108.7,230.11,107.75Z"/><path class="a87332d0-57de-47a7-93dd-339c3720bfe9" d="M212.16,113.18a2.09,2.09,0,0,0-.44-1.52c-1-1.35-3.73-.67-5.13-.6-1.73.08-3.83.12-5.11,1.47a2.9,2.9,0,0,0-.86,2.61,37.7,37.7,0,0,0-4.11,4c-2,2.51.68,4,2.75,4.78.11,2,3.84,5.26,4.7,5.35a8.55,8.55,0,0,0,7.5-1.16c2.3-1.55,4.2-4.77,3.6-7.55a6.58,6.58,0,0,0,.61-3.3C215.49,115.57,213.86,113.35,212.16,113.18Z"/><path class="a5a4b16b-c1c4-47ca-be74-458a98e67133" d="M212.16,113.18a2.09,2.09,0,0,0-.44-1.52c-1-1.35-3.73-.67-5.13-.6-1.73.08-3.83.12-5.11,1.47a2.9,2.9,0,0,0-.86,2.61,37.7,37.7,0,0,0-4.11,4c-2,2.51.68,4,2.75,4.78,1.71,3.12,2.18,4.48,4.7,5.35a8.93,8.93,0,0,0,7.5-1.16c2.3-1.55,4.2-4.77,3.6-7.55a6.58,6.58,0,0,0,.61-3.3C215.49,115.57,213.86,113.35,212.16,113.18Zm.65,5.44A5.3,5.3,0,0,1,210,121a5.23,5.23,0,0,1-3.34-.07c-1.21,1.48-3.5,4.11-5.52,2.43a1.37,1.37,0,0,1-.31-1.76c-1-.17-2.3.53-3-.45-.56-.81.1-1.83.6-2.48a8.35,8.35,0,0,1,3.3-2.62,3.68,3.68,0,0,1,.47-.15c-.31-1.31-.9-2.55.62-3.41,1.24-.7,3.13-.53,4.5-.51,2.07,0,5.24,1.2,3.34,3.36C212.73,115.07,213.8,116.65,212.81,118.62Z"/><path class="a71610e3-56fe-4e35-bd4e-8af3cb7ff50f" d="M211.4,114.61a3,3,0,0,0-3.52-.55,2,2,0,0,0-.59-1,2.82,2.82,0,0,0-3.16-.09,4.59,4.59,0,0,0-2.23,3.31c-3.39,1.38-3.44,3.69-2.66,4.92a3,3,0,0,0,4.38.88,4.44,4.44,0,0,0,6.74-1,4.3,4.3,0,0,0,.66-3.28C211.9,116.9,212.35,115.74,211.4,114.61Z"/><path class="a87332d0-57de-47a7-93dd-339c3720bfe9" d="M208.2,113.43c-1.56-.18-4,.64-4.6,2.25a2.57,2.57,0,0,0-3.1,1.83,2.21,2.21,0,0,0,.66,2.28,1.55,1.55,0,0,0,.63.27,1.87,1.87,0,0,0,1.89,1.9,3.31,3.31,0,0,0,3.21-2,2.66,2.66,0,0,0,1.08.23,2.57,2.57,0,0,0,2.29-1.5,1.72,1.72,0,0,0-.8-2.38A1.86,1.86,0,0,0,208.2,113.43Z"/><path class="a71610e3-56fe-4e35-bd4e-8af3cb7ff50f" d="M205.42,116.7s-1.64-2.22-2.75-.1a1.55,1.55,0,0,0,1.18,2.47s-.15.93,1,.77c1.48-.2,2.89-2,2.89-2s2.5-.49,1.17-2.47S205.42,116.7,205.42,116.7Z"/><path class="a5a4b16b-c1c4-47ca-be74-458a98e67133" d="M205.2,118.11s-2,.4-1.66-.77,1.85,0,1.85,0,.53-1.59,1.72-1.5S208.19,116.89,205.2,118.11Z"/><path class="a87332d0-57de-47a7-93dd-339c3720bfe9" d="M213.26,121.28c-.56,2.65-3.64,3.35-6.39,3.38-1.73,2.14-4.93,2.09-6.11-.5a2.11,2.11,0,0,1-1.5-.23c.59,3.3,2.31,4.52,4.7,5.35a8.93,8.93,0,0,0,7.5-1.16c2.3-1.55,4.2-4.77,3.6-7.55a7.21,7.21,0,0,0,.32-.84A4.85,4.85,0,0,1,213.26,121.28Z"/><path class="eacfc220-26e0-44f1-9fb2-f480c71e4dbd" d="M225.64,118.57a2,2,0,0,0-1.3-1.78,2.59,2.59,0,0,0-.6-1.87c-1.61-1.7-4.24-1-5.66.56-1.61-.77-3.81-.29-4.15,1.76a2.46,2.46,0,0,0,.75,2.18c-.15.73-.28,1.47-.38,2.17a3.51,3.51,0,0,0,4.83,4.06,3.7,3.7,0,0,0,5-1.19,4.22,4.22,0,0,0,.39-3.74A2.66,2.66,0,0,0,225.64,118.57Z"/><path class="fdb88697-f541-4da8-89dd-df1a5572160a" d="M218.2,120.47a3.55,3.55,0,0,1-3.55-.89c-.14.68-.26,1.36-.35,2a3.51,3.51,0,0,0,4.83,4.06,3.7,3.7,0,0,0,5-1.19,4.68,4.68,0,0,0,.39-3.74C221.51,121.7,219.55,121.91,218.2,120.47Z"/><path class="fdb88697-f541-4da8-89dd-df1a5572160a" d="M223.69,117.46a1.81,1.81,0,0,0-.59-.29c.08-1.13-.3-2.45-1.61-2.59-.87-.09-2.36.41-2.56,1.39a1,1,0,0,0-1.11.84c-.73-1-2.89-.45-3,.83,0,.72.61,1.21,1.22,1.44a3.07,3.07,0,0,0,2.27-.1,2.38,2.38,0,0,0,2.09,1.2,2.93,2.93,0,0,0,1.46-.5c.93.39,2.17.43,2.5-.54A1.7,1.7,0,0,0,223.69,117.46Z"/><path class="f9eb9de4-f3b4-46e4-92e4-a8cdc6fbf6ae" d="M219.77,116.36s.1-1.91,1.72-1.78,2.55,1.78,1.58,2.75-1.43.79-1.43.79a1.78,1.78,0,0,0,0-2.17C220.75,115,219.77,116.36,219.77,116.36Z"/><path class="e7460058-1dcb-4933-9d52-b7851f9040c6" d="M218.86,116.6a1.92,1.92,0,0,0-1.75-1,1.6,1.6,0,0,0-1.33,2.4,6.53,6.53,0,0,1,.71,1.16,2.12,2.12,0,0,0,1.44-.06s-1.3-.85-1-1.75S218.86,116.6,218.86,116.6Z"/><path class="f9eb9de4-f3b4-46e4-92e4-a8cdc6fbf6ae" d="M219.71,115.74c-.76-.43-2-.16-2.18,1.45a1.61,1.61,0,0,0,1.07,1.92s0-1.3.63-1.81A2.43,2.43,0,0,1,221,117,4.44,4.44,0,0,0,219.71,115.74Z"/><path class="e7460058-1dcb-4933-9d52-b7851f9040c6" d="M218.68,118.3s-.09.27.8.5,1.68.26,2.16-.68,1.37-1.75.48-2.09c-1.26-.47-1.49,1.25-2,1.43S218.35,117.33,218.68,118.3Z"/><path class="f9eb9de4-f3b4-46e4-92e4-a8cdc6fbf6ae" d="M219.82,120.1a4.63,4.63,0,0,1,1.43-2.07c1.31-1.2,2-.9,2.89-.25a1.36,1.36,0,0,1-.43,2.44,3,3,0,0,1-1.85-.17A2.61,2.61,0,0,1,219.82,120.1Z"/><path class="a87332d0-57de-47a7-93dd-339c3720bfe9" d="M228.86,113.91a2.25,2.25,0,0,1,.56-1.55c1.17-1.33,3.91-.46,5.37-.3,1.78.19,4,.37,5.21,1.85a3,3,0,0,1,.73,2.76,38.27,38.27,0,0,1,4,4.43c1.93,2.73-1,4.15-3.16,4.79-.24,2.09-4.31,5.21-5.22,5.25-2.47.83-5.63-.06-7.71-1.67-2.28-1.76-4.06-5.22-3.26-8.08a6.78,6.78,0,0,1-.42-3.45C225.26,116.18,227.09,114,228.86,113.91Z"/><path class="a5a4b16b-c1c4-47ca-be74-458a98e67133" d="M228.86,113.91a2.25,2.25,0,0,1,.56-1.55c1.17-1.33,3.91-.46,5.37-.3,1.78.19,4,.37,5.21,1.85a3,3,0,0,1,.73,2.76,38.27,38.27,0,0,1,4,4.43c1.93,2.73-1,4.15-3.16,4.79-2,3.13-2.55,4.51-5.22,5.25a9.27,9.27,0,0,1-7.71-1.67c-2.28-1.76-4.06-5.22-3.26-8.08a6.78,6.78,0,0,1-.42-3.45C225.26,116.18,227.09,114,228.86,113.91Zm-1,5.61a5.52,5.52,0,0,0,2.74,2.69,5.43,5.43,0,0,0,3.47.13c1.17,1.62,3.38,4.5,5.58,2.88a1.43,1.43,0,0,0,.44-1.81c1-.11,2.36.69,3.12-.28.63-.81,0-1.91-.47-2.62a8.61,8.61,0,0,0-3.25-2.92,4.94,4.94,0,0,0-.49-.19c.41-1.34,1.1-2.6-.43-3.58-1.23-.8-3.21-.75-4.64-.81-2.15-.09-5.51.91-3.68,3.27C228.15,115.83,227,117.41,227.85,119.52Z"/><path class="a71610e3-56fe-4e35-bd4e-8af3cb7ff50f" d="M229.57,115.44a3.07,3.07,0,0,1,3.68-.35,2.24,2.24,0,0,1,.68-1.06,3,3,0,0,1,3.3.11,4.8,4.8,0,0,1,2.1,3.58c3.43,1.65,3.33,4,2.45,5.28a3.13,3.13,0,0,1-4.6.63,4.83,4.83,0,0,1-2.25,1,4.73,4.73,0,0,1-4.69-2.4,4.46,4.46,0,0,1-.48-3.44C228.9,117.78,228.5,116.56,229.57,115.44Z"/><path class="a87332d0-57de-47a7-93dd-339c3720bfe9" d="M233,114.42c1.63-.09,4.09.92,4.63,2.63a2.66,2.66,0,0,1,3.1,2.1,2.27,2.27,0,0,1-.83,2.31,1.69,1.69,0,0,1-.67.25,1.94,1.94,0,0,1-2.08,1.85,3.45,3.45,0,0,1-3.21-2.28,3,3,0,0,1-1.13.17,2.71,2.71,0,0,1-2.29-1.71,1.78,1.78,0,0,1,1-2.42A1.94,1.94,0,0,1,233,114.42Z"/><path class="a71610e3-56fe-4e35-bd4e-8af3cb7ff50f" d="M235.65,118s1.83-2.21,2.86.07a1.61,1.61,0,0,1-1.39,2.48s.11,1-1.12.74c-1.53-.3-2.88-2.23-2.88-2.23s-2.56-.67-1.05-2.65S235.65,118,235.65,118Z"/><path class="a5a4b16b-c1c4-47ca-be74-458a98e67133" d="M235.78,119.46s2.11.55,1.77-.69-1.92-.12-1.92-.12S235.18,117,234,117,232.75,118,235.78,119.46Z"/><path class="a87332d0-57de-47a7-93dd-339c3720bfe9" d="M227.22,122.25c.41,2.78,3.57,3.71,6.42,3.91,1.66,2.34,5,2.48,6.37-.13a2.25,2.25,0,0,0,1.57-.14c-.81,3.39-2.68,4.54-5.22,5.25a9.27,9.27,0,0,1-7.71-1.67c-2.28-1.76-4.06-5.22-3.26-8.08a9.18,9.18,0,0,1-.28-.89A5,5,0,0,0,227.22,122.25Z"/><path class="ea55495b-3eeb-4a77-83b8-4d254f0e6ca4" d="M210.64,119.68c-.53-.72-1.25-1.37-2.18-.92-1.64.79-1.38,2.62-.64,4.17-1.25-1-2.58-1.37-3.71-.22-2.54,2.59,3,7.7,5.37,8.06a.07.07,0,0,0,.07-.11,32.61,32.61,0,0,0-2.66-2.31c-.67-.65-3.29-3.32-2.48-4.46,2.18-3.08,5.69,3.48,6.82,5,.25.34.94.11.74-.33a20.15,20.15,0,0,0-2.76-4.29,10.3,10.3,0,0,1-1-1.93c-.25-.77-.37-3.75,1.3-2.79.63.36,1.13,1.75,1.43,2.38.52,1.08.93,2.21,1.35,3.33.2.54,1.06.28.85-.25A22.65,22.65,0,0,0,210.64,119.68Z"/><path class="ea55495b-3eeb-4a77-83b8-4d254f0e6ca4" d="M232.78,122.78c-1.19-1.63-2.46-.76-3.37.62a6.57,6.57,0,0,0-.07-1.17c-.18-1.07-.74-2.51-2-2.61-2.85-.24-2.29,5.5-1.15,6.84.09.1.23,0,.21-.12a11,11,0,0,1-.36-2.86,14,14,0,0,1,.39-2.44c.32-.9,1.41-.41,1.88.47,1,1.94-.37,4.34-.89,6.2a.32.32,0,0,0,.58.25,10.3,10.3,0,0,0,1.32-3.53l0,0a4.15,4.15,0,0,1,.84-1.22c1.4-.67,2.14-.5,2.23.51a1.69,1.69,0,0,1-.05,1.44c-.55,1.85-2,3-3.42,4.18-.18.14,0,.48.24.4C231.3,128.85,234.52,125.16,232.78,122.78Z"/><path class="eacfc220-26e0-44f1-9fb2-f480c71e4dbd" d="M231.27,128.72a1.94,1.94,0,0,0-.85-2,2.51,2.51,0,0,0-.14-2c-1.16-2-3.87-2-5.63-.79-1.38-1.12-3.63-1.17-4.45.74a2.48,2.48,0,0,0,.22,2.3c-.32.67-.62,1.35-.88,2a3.83,3.83,0,0,0,.11,3.46,3.75,3.75,0,0,0,3.63,1.61,3.71,3.71,0,0,0,5.12,0,4.2,4.2,0,0,0,1.26-3.55A2.63,2.63,0,0,0,231.27,128.72Z"/><path class="fdb88697-f541-4da8-89dd-df1a5572160a" d="M223.59,128.82a3.56,3.56,0,0,1-3.23-1.69c-.3.62-.58,1.25-.82,1.87a3.83,3.83,0,0,0,.11,3.46,3.75,3.75,0,0,0,3.63,1.61,3.71,3.71,0,0,0,5.12,0,4.66,4.66,0,0,0,1.26-3.55C226.53,130.8,224.57,130.54,223.59,128.82Z"/><path class="fdb88697-f541-4da8-89dd-df1a5572160a" d="M229.64,127.18a1.8,1.8,0,0,0-.51-.41c.35-1.09.29-2.46-.95-2.9-.83-.29-2.39-.15-2.81.75a1.06,1.06,0,0,0-1.28.55c-.48-1.13-2.7-1.11-3.08.11a1.6,1.6,0,0,0,.86,1.69,3,3,0,0,0,2.22.44,2.38,2.38,0,0,0,1.75,1.66,2.93,2.93,0,0,0,1.54-.15c.81.6,2,.93,2.55.07A1.72,1.72,0,0,0,229.64,127.18Z"/><path class="f9eb9de4-f3b4-46e4-92e4-a8cdc6fbf6ae" d="M226.08,125.2s.56-1.83,2.1-1.33,2.06,2.33.89,3-1.58.43-1.58.43a1.78,1.78,0,0,0,.49-2.12C227.37,124.06,226.08,125.2,226.08,125.2Z"/><path class="e7460058-1dcb-4933-9d52-b7851f9040c6" d="M225.15,125.21a1.9,1.9,0,0,0-1.47-1.35,1.6,1.6,0,0,0-1.86,2,7.59,7.59,0,0,1,.41,1.29,2.11,2.11,0,0,0,1.42.28s-1.07-1.12-.57-1.93S225.15,125.21,225.15,125.21Z"/><path class="f9eb9de4-f3b4-46e4-92e4-a8cdc6fbf6ae" d="M226.17,124.58c-.64-.6-1.89-.62-2.45.9a1.59,1.59,0,0,0,.59,2.11s.25-1.27,1-1.61a2.46,2.46,0,0,1,1.79.17A4.41,4.41,0,0,0,226.17,124.58Z"/><path class="e7460058-1dcb-4933-9d52-b7851f9040c6" d="M224.58,126.82s-.16.25.65.68,1.57.65,2.26-.15,1.75-1.38,1-1.92c-1.12-.76-1.74.87-2.29.92S224.48,125.81,224.58,126.82Z"/><path class="f9eb9de4-f3b4-46e4-92e4-a8cdc6fbf6ae" d="M225.26,128.84a4.57,4.57,0,0,1,1.88-1.67c1.55-.86,2.17-.4,2.86.43a1.36,1.36,0,0,1-1,2.28,3.1,3.1,0,0,1-1.76-.61A2.57,2.57,0,0,1,225.26,128.84Z"/><path class="eacfc220-26e0-44f1-9fb2-f480c71e4dbd" d="M218.45,125.15a2,2,0,0,0-1.73-1.37,2.49,2.49,0,0,0-1.07-1.65c-2-1.22-4.35.12-5.31,2-1.75-.33-3.75.72-3.55,2.78a2.47,2.47,0,0,0,1.3,1.91c0,.75.11,1.49.2,2.19a3.51,3.51,0,0,0,5.73,2.66,3.7,3.7,0,0,0,4.49-2.46,4.18,4.18,0,0,0-.61-3.71A2.63,2.63,0,0,0,218.45,125.15Z"/><path class="fdb88697-f541-4da8-89dd-df1a5572160a" d="M211.76,128.93a3.55,3.55,0,0,1-3.65.07c0,.7.1,1.38.18,2a3.51,3.51,0,0,0,5.73,2.66,3.7,3.7,0,0,0,4.49-2.46,4.67,4.67,0,0,0-.61-3.71C215.28,129.25,213.44,130,211.76,128.93Z"/><path class="fdb88697-f541-4da8-89dd-df1a5572160a" d="M216.27,124.59a1.78,1.78,0,0,0-.64-.12c-.22-1.12-.94-2.29-2.23-2.08-.87.14-2.17,1-2.11,2a1.07,1.07,0,0,0-.85,1.11c-1-.77-2.91.32-2.64,1.57.14.71.91,1,1.55,1.07a3,3,0,0,0,2.16-.68,2.39,2.39,0,0,0,2.33.61,3,3,0,0,0,1.29-.87c1,.13,2.2-.15,2.27-1.17A1.69,1.69,0,0,0,216.27,124.59Z"/><path class="f9eb9de4-f3b4-46e4-92e4-a8cdc6fbf6ae" d="M212.2,124.56s-.4-1.87,1.2-2.17,2.92,1,2.24,2.24-1.17,1.14-1.17,1.14a1.78,1.78,0,0,0-.59-2.09C212.78,123,212.2,124.56,212.2,124.56Z"/><path class="e7460058-1dcb-4933-9d52-b7851f9040c6" d="M211.39,125a1.93,1.93,0,0,0-1.95-.48,1.6,1.6,0,0,0-.65,2.67,6.81,6.81,0,0,1,1,.93,2.1,2.1,0,0,0,1.38-.43s-1.48-.48-1.43-1.43S211.39,125,211.39,125Z"/><path class="f9eb9de4-f3b4-46e4-92e4-a8cdc6fbf6ae" d="M212,124c-.85-.22-2,.36-1.72,2a1.6,1.6,0,0,0,1.53,1.57,2.54,2.54,0,0,1,.13-1.91,2.41,2.41,0,0,1,1.65-.71A4.31,4.31,0,0,0,212,124Z"/><path class="e7460058-1dcb-4933-9d52-b7851f9040c6" d="M211.66,126.71s0,.29.9.27,1.69-.18,1.91-1.21.87-2.06-.09-2.15c-1.34-.12-1.1,1.6-1.56,1.91S211.08,125.86,211.66,126.71Z"/><path class="f9eb9de4-f3b4-46e4-92e4-a8cdc6fbf6ae" d="M213.23,128.15a4.63,4.63,0,0,1,.84-2.37c1-1.5,1.72-1.4,2.72-1a1.35,1.35,0,0,1,.22,2.47,3,3,0,0,1-1.83.32A2.61,2.61,0,0,1,213.23,128.15Z"/><path class="aea1ed65-59c2-4ffd-bbac-3f141920c657" d="M225.24,134.08a4.91,4.91,0,0,0-1.65-2.78c-1.26-1.11-3.73-2.71-5.22-2.68,0,2-1.81,2.93-3.16,4.2a3.9,3.9,0,0,0-.85,4.21,3.19,3.19,0,0,0,4.48,1.36,3.38,3.38,0,0,0,1.16.42,4.22,4.22,0,0,0,3-.89C224.56,137.66,225.52,135.69,225.24,134.08Z"/><path class="b5471074-2f01-40a7-a2a8-39306d212bae" d="M222.5,134.71a13.87,13.87,0,0,0-1.46-5.18,14.38,14.38,0,0,0-3.43-1.48c0,2-1,3.1-2.66,5a3.58,3.58,0,0,0-.59,3.93,2.6,2.6,0,0,0,.21.36,5.1,5.1,0,0,1,0-.77c.12-3,2.51-3.25,4.44-7.34A62.82,62.82,0,0,1,222.5,134.71Z"/><path class="a20ab2e8-d4a8-4a5c-9a9d-acb81cb13d05" d="M218.68,131a6.2,6.2,0,0,1-.77,1.34c-.85,1.16-3.55,4.66-1.73,6.24a4.77,4.77,0,0,0,1.87.1C219.24,136.12,219.1,133.69,218.68,131Z"/><path class="a20ab2e8-d4a8-4a5c-9a9d-acb81cb13d05" d="M219,129.28c.84,3.06,1.6,6.47.26,9.31a3.47,3.47,0,0,0,.76.22,4.15,4.15,0,0,0,2.74-.73C223.57,135.13,221.21,131.56,219,129.28Z"/><path class="a20ab2e8-d4a8-4a5c-9a9d-acb81cb13d05" d="M225.24,134.08a4.91,4.91,0,0,0-1.65-2.78,14.33,14.33,0,0,0-3.91-2.47c2.19,1.86,4.57,5.51,4.52,8.46A3.7,3.7,0,0,0,225.24,134.08Z"/><path class="eacfc220-26e0-44f1-9fb2-f480c71e4dbd" d="M227.46,155.15c.9-.38,1.69-1.81,1.53-4.27s.31-3.45,1.36-4,1.15,2.18,1.24,4.56-.58,6.11.42,6.62,1.54-.43,1.18-2.43a37.89,37.89,0,0,1-.66-7.27c.1-2.13,1.27-2.14,1.44.52s-.43,5.7.73,6,1.27-1,.69-2.63-1.16-4.51-.25-4.59,1.09.86,1.28,2.57.53,1.9,1,.76-.93-4.49,0-6.65,1.68-1.64,2.06.71-.52,6.75,1.16,7.2,1.9-2.8,1.55-4.59.36-3.17,1.15-2.2a1.42,1.42,0,0,0,2.53-1.12c-.23-1.79-1.26-4,0-5.48s2.42,0,2.79,3.5.86,5,1.9,5.3.76-1.35.57-3.94S250.41,139,251,138c.85-1.36,1.32.52,1.42,2.6s.57,7,1.8,7c1.42,0,.09-5.35-.28-7s-1.14-5.85-.1-6.07,1.33,2.21,1.52,5.28c.07,1.15,1.86.9,1.23-1a16.63,16.63,0,0,1-.38-4.74c-.09-1.61,1.71-2.63,1.71,1,0,1.36-.11,5.29,1.22,5.5s1.05-2,.77-5.5.37-6.46-.77-7.12c-3.22,1.87-31.71,18.31-31.71,18.31Z"/><path class="a5eff3c0-b2df-4bd1-95ef-3d70da568c20" d="M68.58,89.06a10,10,0,0,1-3.12,1.57,74.39,74.39,0,0,1-7.79.44L46.49,91s2.68-7.32,4.42-11.27c-3.95.26-8.34,0-12-1.51L34,87.68s1.13,7.06,2.58,9.8,8.07,4,13.49,3.62c3.35-.22,8.72-1.65,12.34-2.71.35-.1,6-2.13,8-2.46,1-.17,4.23.34,6.36.14,6.16-.6,9-2.69,8.43-4.21a.81.81,0,0,0,.13-1.57c.69-.31.72-1-.09-1.3-2.16-.83-6.94-.59-9.29-.62.42-.83,2.1-1.39,3.41-1.71,1.69-.41,2.32-2.87.8-2.68a23.35,23.35,0,0,0-4.53,1.39A40.83,40.83,0,0,0,68.58,89.06Z"/><path class="b7186d43-8f0c-4e56-999e-b29ba7ad8ee5" d="M136.93,100.93a2.24,2.24,0,0,0,0-.73V98.59H136a5.81,5.81,0,0,0-1.32-1L104.26,80c-2.72-1.57-6.88-1.75-9.24-.38L56.29,101.93a.71.71,0,0,1-.09.07H54.7v2.7h.07A4.11,4.11,0,0,0,57,107.27l30.45,17.59c2.73,1.57,6.89,1.74,9.25.38l38.72-22.36a2.91,2.91,0,0,0,1.55-1.9h0Z"/><path class="fe846ac1-9a05-4bab-8fe1-07e2703ac235" d="M135.38,100.48,96.66,122.84c-2.36,1.36-6.52,1.19-9.25-.38L57,104.88c-2.73-1.58-3-4-.67-5.34L95,77.18c2.36-1.36,6.52-1.19,9.24.38l30.46,17.59C137.44,96.72,137.74,99.12,135.38,100.48Z"/><path class="b7186d43-8f0c-4e56-999e-b29ba7ad8ee5" d="M58.14,102l37.1-21.41c2.26-1.31,6.24-1.14,8.85.37l29.17,16.84A4.73,4.73,0,0,1,135,99.36c.9-1.29.3-3-1.74-4.12L104.09,78.4c-2.61-1.51-6.59-1.67-8.85-.37L58.14,99.45c-1.54.89-1.87,2.25-1.1,3.5A3.27,3.27,0,0,1,58.14,102Z"/><path class="e3805cab-3b72-461c-9516-8cabc515588d" d="M58.78,104.56,88,121.4c2.61,1.51,6.59,1.67,8.85.37l37.1-21.42a3.35,3.35,0,0,0,1.1-1,4.73,4.73,0,0,0-1.74-1.61L104.09,80.91c-2.61-1.51-6.59-1.68-8.85-.37L58.14,102a3.27,3.27,0,0,0-1.1,1A4.81,4.81,0,0,0,58.78,104.56Z"/><path class="ec580a1c-73ac-45b3-a537-a0350db9aba4" d="M117.22,101.06V96.28H74.79v4.78h0c0,.23,0,.46,0,.68,0,7.09,9.51,12.83,21.23,12.83s21.23-5.74,21.23-12.83c0-.22,0-.45,0-.68Z"/><path class="ab482969-3fbe-4cf9-b422-a7bfa728d563" d="M117.25,95.22c0,7.09-9.5,12.83-21.23,12.83s-21.23-5.74-21.23-12.83S84.3,82.4,96,82.4,117.25,88.14,117.25,95.22Z"/><path class="a5eff3c0-b2df-4bd1-95ef-3d70da568c20" d="M40,58.53c.5-4.64,4.31-10.82,9.51-10.43S58.43,56.38,58.85,60c.7,6.23.15,18-9.68,14.21C41.51,71.31,39.26,65.46,40,58.53Z"/><path class="a90af1d6-7873-4e96-98ed-8cecfaac0209" d="M30.52,136.15s-1.45,17.44-2.93,26,7.43,15.1,15.66,15.1,23.94,6.05,23.94,6.05l-1.42-36.05Z"/><path class="a5eff3c0-b2df-4bd1-95ef-3d70da568c20" d="M26.11,211.64s-2.32,5-4.65,9.08,5.08,5.81,9.06,5.8,14.12,2.22,18.05-1.17,4.84-7.23-5.32-8.27A43.51,43.51,0,0,1,26.11,211.64Z"/><path class="e759fb42-e52a-4032-8e40-08ec03ef465c" d="M23.6,216.76c1.7.43,5.79.62,8.34,4s11,2.64,13.14,0c.87-1.1-1.83-3.64-1.83-3.64s18.58,2.35,4.06,9.08c-8.06,3.74-11.54.41-15.94.38-5.72,0-10.36-1.19-10.35-4.23C21,220.74,22.3,218.42,23.6,216.76Z"/><path class="a5eff3c0-b2df-4bd1-95ef-3d70da568c20" d="M54.13,219.43s-1.75,5.27-3.61,9.55,5.71,5.2,9.65,4.74,14.29.63,17.81-3.18,4-7.72-6.21-7.62A43.57,43.57,0,0,1,54.13,219.43Z"/><path class="e759fb42-e52a-4032-8e40-08ec03ef465c" d="M52.21,224.8c1.73.24,5.82,0,8.73,3s11.27,1.39,13-1.47c.74-1.18-2.22-3.41-2.22-3.41s18.73.26,5,8.57c-7.59,4.61-11.42,1.7-15.8,2.16-5.69.6-10.43,0-10.76-3C50.09,229.05,51.1,226.6,52.21,224.8Z"/><path class="e759fb42-e52a-4032-8e40-08ec03ef465c" d="M31.94,121s-7.16,14.52,0,23c-1.38,9.47,0,15.94,0,25.5-3.67,6.1-10.48,45.4-10.48,45.4s6.13,5.76,10.48,5.76c6.44,0,7.6-2.64,7.6-2.64s7.53-36.33,9-46.48C50.75,156.8,52.46,132,52.46,132Z"/><path class="b7186d43-8f0c-4e56-999e-b29ba7ad8ee5" d="M41.54,127.84S34.77,143,46.22,149.2c1.07,11.17,1.29,17.19,5.26,25.63-2.27,6.75,0,47,0,47s7.23,4.3,11.47,3.37c6.3-1.39,6.87-4.21,6.87-4.21s-.47-37.1-1.18-47.34c-1-14.92-4.73-39.51-4.73-39.51Z"/><path class="a20ab2e8-d4a8-4a5c-9a9d-acb81cb13d05" d="M31.88,71.48c4.57-1.63,10.12,1,10.35,5.66,2.52,4.26.05,10.51-3.88,13.37-4.57,3.32-11.63,0-13.15-5.18C23.63,80,26.55,73.39,31.88,71.48Z"/><path class="aea1ed65-59c2-4ffd-bbac-3f141920c657" d="M29.35,97.7C25.94,87.16,28,80.16,31,76.71c1.24-1.42,4.18-4.34,7.39-1.45-1,4.8,7.24,6.34,13.25,6.34C56.22,85,60.3,87.36,62.9,92c2.75,4.86,4.07,9.8-1.8,13.34,1.3,3.86-.22,8.58,0,15.65a37.44,37.44,0,0,0,2.17,9.66c-5,6.27-19.24,8.24-25.34,5.18-8.46-4.23-7.39-7.89-6-14.78C34.56,108.27,30.91,102.53,29.35,97.7Z"/><path class="a90af1d6-7873-4e96-98ed-8cecfaac0209" d="M60.88,100.38S73.64,135.61,74.27,156c.58,18.76,0,34.88,0,34.88s-11.25,2.34-13.39-8c-3.57-17.25-2.43-54.36-2.43-54.36Z"/><path class="b305d29b-7a84-4bb5-ba93-b8ba017924d8" d="M72.46,104.22s3.69,6.11,5.86,9.61a69.89,69.89,0,0,1,20.28,6l-4.72,5.28S73,124,71.09,122c-4.84-5.23-8.28-9.08-8.28-9.08Z"/><path class="a20ab2e8-d4a8-4a5c-9a9d-acb81cb13d05" d="M59.18,86.66c7.35.21,11.61,8.72,11.83,14.86,1.82,2.09-6.73,10.32-9.73,9.67-6.53,1.45-12-2.38-13.72-9.18C45.93,95.39,47.41,86.33,59.18,86.66Z"/><path class="b5471074-2f01-40a7-a2a8-39306d212bae" d="M71,101.52l1.45,2.7s.61,2.23-2.54,5.3a12.68,12.68,0,0,1-7.11,3.39l-1.53-1.72a20.23,20.23,0,0,0,6.59-3.73A11.88,11.88,0,0,0,71,101.52Z"/><polygon class="b5471074-2f01-40a7-a2a8-39306d212bae" points="39.88 84.89 54.7 83.81 51.67 81.6 39.88 84.89"/><path class="e759fb42-e52a-4032-8e40-08ec03ef465c" d="M28.28,72.09a19.58,19.58,0,0,1,6.78-11.58,15.47,15.47,0,0,1,2.75-10.94c3-4,9.15-6.19,13.57-3.67C56.7,44.55,63.05,47.31,62,54.36a9.67,9.67,0,0,1-9.9,7.74c-.82,6.25,2,11.27,0,18.06-1.68,5.52-6.94,11.89-18.91,13C30.78,86.12,27.3,76.78,28.28,72.09Z"/><path class="e7460058-1dcb-4933-9d52-b7851f9040c6" d="M48.57,67.09c-.48,4.15-6.08,4.74-6.08,4.74s-3.23-3.49-4.36-6.58c-1.76,1.82-7,1-7,1s-1.66-4.66.68-7.54a12.21,12.21,0,0,1,7.67,3.4S47.23,63.87,48.57,67.09Z"/><path class="a90af1d6-7873-4e96-98ed-8cecfaac0209" d="M48.57,63.09c0,2.53-2.68,8.3-5.6,5.68a10.17,10.17,0,0,1-3.38-5.2s-3.86,1.67-6.46-.09.23-9.74,3.65-7,3.69,4,3.69,4S48.57,59.36,48.57,63.09Z"/><path class="b5471074-2f01-40a7-a2a8-39306d212bae" d="M38.6,61.79c-.49,1.2-.41,2.37.19,2.62s1.49-.53,2-1.73.41-2.38-.19-2.62S39.09,60.59,38.6,61.79Z"/><path class="a90af1d6-7873-4e96-98ed-8cecfaac0209" d="M32.89,117.42s1.14,4.94,8.2,8.73,19.79,1.22,19.79,1.22l-.73,2.33s-10.32,5.88-20.61-.63c-6.54-4.14-7.6-8.06-7.6-8.06Z"/><path class="a90af1d6-7873-4e96-98ed-8cecfaac0209" d="M38.28,126.58s-4.06,8.44-7.76,9.57-3.92-4.78-1.44-6.81,8.2-3.86,8.2-3.86l-1.92-1.64a12,12,0,0,0-9.9,6.54c-3.31,6.43,2.18,11.37,6.65,8.89s7.77-11.9,7.77-11.9Z"/><path class="a90af1d6-7873-4e96-98ed-8cecfaac0209" d="M44,129.22s-.3,9.36-3.23,11.89-5.52-2.78-4.07-5.65,5.95-6.84,5.95-6.84l-2.42-.72a12,12,0,0,0-6.42,10c-.43,7.23,6.58,9.53,9.68,5.46s2.29-14,2.29-14Z"/><path class="b305d29b-7a84-4bb5-ba93-b8ba017924d8" d="M92.93,121a58.33,58.33,0,0,0,6.41-3.59,49.56,49.56,0,0,1,5.73-3.1c1.12-.65,2.89.56.69,2-1.69,1.09-1.32,2.41.88,2.15a17.89,17.89,0,0,0,5.36-2.15s-1.21,8.82-9.54,8.82c-6.19,0-9.53-.35-9.53-.35Z"/></g></g></svg>