<svg xmlns="http://www.w3.org/2000/svg" viewBox="0 0 260.48 260.48"><defs><style>.bf5e43ad-ab28-4913-863d-190c062e87d2{fill:#ffffe4;}.ffc38ab4-22f7-4920-9caa-f76583622c7d{fill:#ffd2d4;}.a07b281e-b8c6-4279-b6da-56c135fc3f82{fill:#fff7f9;}.ba1090d7-147c-40dc-a4c0-ddc0a7fe76ae{fill:#6d2f1d;}.bdfc28f2-ec64-4c6e-9324-7921a47836af{fill:#863e2d;}.a1447fb4-a752-4e4a-bb7e-847d229e3f9b{fill:#ff8493;}.b5461daf-4a0f-4dd4-a790-d3a459d0de4f{fill:#9a0014;}.ba42e605-d436-4b66-94d9-1bd2eee2ec3d{fill:#c60014;}.b5cde6b7-7a74-4c65-b620-bc236b6e1492{fill:#ff313e;}.fb9f94d2-8331-4c95-b0a5-cc70ae38b388{fill:#580013;}.be4800df-9a55-4d26-ab6b-b367fc562b94{fill:#ffc700;}.e1cac2a3-39cd-4230-91b2-dca8e0b7b8fa{fill:#ff9e00;}</style></defs><title>cakes_</title><g id="bdec3da5-0def-4b39-b59d-2603c3e83ac2" data-name="OBJECTS"><ellipse class="bf5e43ad-ab28-4913-863d-190c062e87d2" cx="133.79" cy="209.93" rx="102.76" ry="36.81"/><path class="ffc38ab4-22f7-4920-9caa-f76583622c7d" d="M42.24,158.1c0,15.79,41,28.59,91.55,28.59s91.55-12.8,91.55-28.59v50.39c0,15.79-41,28.6-91.55,28.6s-91.55-12.81-91.55-28.6Z"/><path class="ffc38ab4-22f7-4920-9caa-f76583622c7d" d="M42.24,111.06c0,15.79,41,28.6,91.55,28.6s91.55-12.81,91.55-28.6v47c0,15.79-41,28.59-91.55,28.59s-91.55-12.8-91.55-28.59Z"/><path class="a07b281e-b8c6-4279-b6da-56c135fc3f82" d="M133.79,183.34c-50.56,0-91.55-12.8-91.55-28.6v5.77c0,15.79,41,28.59,91.55,28.59s91.55-12.8,91.55-28.59v-5.77C225.34,170.54,184.35,183.34,133.79,183.34Z"/><path class="ba1090d7-147c-40dc-a4c0-ddc0a7fe76ae" d="M187,134.32c-1,.22-2,.42-3,.63s-1.71.36-2.59.52c-1,.2-2.13.39-3.21.57l-2.58.46a267.09,267.09,0,0,1-41.83,3.16c-50.56,0-91.55-12.81-91.55-28.6v14c4.28-.64,8.41,2.44,11.28,5.8,3,3.54,5.75,7.74,10.08,9.47,7.34,2.94,15.91-2.5,23.43,0,9.33,3,11.75,12.26,23.19,10.54,6.13-.92,12.17-3.54,18.3-2.63,6.73,1,12.68,6.15,19.45,5.54,6.56-.59,11.07-6.2,17.29-7.67,6.67-1.57,11.65,1.2,16.41,5.7,3,2.85,7,5.67,11,4.32,4.3-1.48,6.26-7.41,10.77-7.95,2.28-.26,4.45,1,6.72,1.34,4.22.63,8.36-2.12,10.66-5.71,6.13-9.54,4.57-21.92,4.57-32.68C225.34,120.66,210.18,129.14,187,134.32Z"/><ellipse class="bdfc28f2-ec64-4c6e-9324-7921a47836af" cx="133.79" cy="111.06" rx="91.55" ry="28.6"/><path class="ba1090d7-147c-40dc-a4c0-ddc0a7fe76ae" d="M87.64,117.05A30.69,30.69,0,0,0,101,120.13a16.22,16.22,0,0,0,8.32-1.91,8.37,8.37,0,0,0,4.3-7c7.57-.17,15.89-4.43,20.23-10.63,2.13-3,3.55-7.08,2-10.45s-5.51-4.91-9.14-5.78a45.83,45.83,0,0,0-16.15-1.21,28.66,28.66,0,0,0-14.86,6.08C88.22,95.39,84.44,107.87,87.64,117.05Z"/><path class="ba1090d7-147c-40dc-a4c0-ddc0a7fe76ae" d="M200.74,91.57,180.31,112h5.95l18.85-18.86C203.72,92.6,202.26,92.07,200.74,91.57Z"/><path class="ba1090d7-147c-40dc-a4c0-ddc0a7fe76ae" d="M177.22,85.88l-8.2,8.2h3.68l-14.8,14.81h5.94l21.47-21.47C182.7,86.87,180,86.35,177.22,85.88Z"/><path class="a1447fb4-a752-4e4a-bb7e-847d229e3f9b" d="M50.13,206.56l-.58.1a1.26,1.26,0,0,0,0,2.41l.58.1A1.34,1.34,0,1,0,50.13,206.56Z"/><path class="a1447fb4-a752-4e4a-bb7e-847d229e3f9b" d="M62,211.83a.89.89,0,0,0,0,1.78A.89.89,0,0,0,62,211.83Z"/><path class="a1447fb4-a752-4e4a-bb7e-847d229e3f9b" d="M59.51,217.88l-.22-.55a1,1,0,0,0-1.81,0l-.21.55C56.52,219.74,60.26,219.75,59.51,217.88Z"/><path class="a1447fb4-a752-4e4a-bb7e-847d229e3f9b" d="M56,209.26a1,1,0,0,0,0,2.07A1,1,0,0,0,56,209.26Z"/><path class="a1447fb4-a752-4e4a-bb7e-847d229e3f9b" d="M68.11,201.12a1.28,1.28,0,0,0,0,2.55A1.28,1.28,0,0,0,68.11,201.12Z"/><path class="a1447fb4-a752-4e4a-bb7e-847d229e3f9b" d="M75.4,216.5a1.08,1.08,0,0,0,0,2.16A1.08,1.08,0,0,0,75.4,216.5Z"/><path class="a1447fb4-a752-4e4a-bb7e-847d229e3f9b" d="M82.08,217.65a1.15,1.15,0,0,0,0,2.29A1.15,1.15,0,0,0,82.08,217.65Z"/><path class="a1447fb4-a752-4e4a-bb7e-847d229e3f9b" d="M92.4,228.8a.93.93,0,0,0,0,1.86A.93.93,0,0,0,92.4,228.8Z"/><path class="a1447fb4-a752-4e4a-bb7e-847d229e3f9b" d="M93.62,213.19a1.36,1.36,0,0,0,0,2.71A1.36,1.36,0,0,0,93.62,213.19Z"/><path class="a1447fb4-a752-4e4a-bb7e-847d229e3f9b" d="M106.53,225.32l-.58-.63c-1-1.06-2.65.6-1.58,1.58l.63.58A1.08,1.08,0,0,0,106.53,225.32Z"/><path class="a1447fb4-a752-4e4a-bb7e-847d229e3f9b" d="M131.11,216.8a.36.36,0,0,0,0,.71A.36.36,0,0,0,131.11,216.8Z"/><path class="a1447fb4-a752-4e4a-bb7e-847d229e3f9b" d="M153.14,223.25a1.13,1.13,0,0,0,0,2.26A1.13,1.13,0,0,0,153.14,223.25Z"/><path class="a1447fb4-a752-4e4a-bb7e-847d229e3f9b" d="M183.28,211a1,1,0,0,0,0,2.09A1,1,0,0,0,183.28,211Z"/><path class="a1447fb4-a752-4e4a-bb7e-847d229e3f9b" d="M201.08,208.83a1.11,1.11,0,0,0,0,2.21A1.11,1.11,0,0,0,201.08,208.83Z"/><path class="a1447fb4-a752-4e4a-bb7e-847d229e3f9b" d="M218.71,194.2a.93.93,0,0,0,0,1.85A.93.93,0,0,0,218.71,194.2Z"/><path class="a1447fb4-a752-4e4a-bb7e-847d229e3f9b" d="M221.17,201.53a1,1,0,0,0,0,2A1,1,0,0,0,221.17,201.53Z"/><path class="a1447fb4-a752-4e4a-bb7e-847d229e3f9b" d="M221.35,210.42a1.28,1.28,0,0,0,0,2.55A1.28,1.28,0,0,0,221.35,210.42Z"/><path class="a1447fb4-a752-4e4a-bb7e-847d229e3f9b" d="M214.41,214.18a.83.83,0,0,0-.07-.13,1.28,1.28,0,0,0-2.2,0,.83.83,0,0,1-.07.13C210.71,216.72,215.78,216.72,214.41,214.18Z"/><path class="a1447fb4-a752-4e4a-bb7e-847d229e3f9b" d="M215.53,205.3a1.46,1.46,0,0,0,0,2.92A1.46,1.46,0,0,0,215.53,205.3Z"/><path class="a1447fb4-a752-4e4a-bb7e-847d229e3f9b" d="M202.67,216.93a1.81,1.81,0,0,0,0,3.62A1.81,1.81,0,0,0,202.67,216.93Z"/><path class="a1447fb4-a752-4e4a-bb7e-847d229e3f9b" d="M185.75,220.66h-.18a1.61,1.61,0,0,0,0,3.21h.18A1.61,1.61,0,0,0,185.75,220.66Z"/><path class="a1447fb4-a752-4e4a-bb7e-847d229e3f9b" d="M180.11,227.75c-2.7,0-2.7,4.19,0,4.19S182.81,227.75,180.11,227.75Z"/><path class="a1447fb4-a752-4e4a-bb7e-847d229e3f9b" d="M140.1,230.09c-2.63,0-2.64,4.09,0,4.09S142.74,230.09,140.1,230.09Z"/><path class="a1447fb4-a752-4e4a-bb7e-847d229e3f9b" d="M166.19,215.17c-2.56,0-2.57,4,0,4S168.75,215.17,166.19,215.17Z"/><path class="a1447fb4-a752-4e4a-bb7e-847d229e3f9b" d="M74,221.82c-2.62,0-2.62,4.07,0,4.07S76.63,221.82,74,221.82Z"/><path class="a1447fb4-a752-4e4a-bb7e-847d229e3f9b" d="M50,212.66c-2.83,0-2.84,4.41,0,4.41S52.88,212.66,50,212.66Z"/><path class="a1447fb4-a752-4e4a-bb7e-847d229e3f9b" d="M48.81,197.55a1.11,1.11,0,0,0,0,2.21A1.11,1.11,0,0,0,48.81,197.55Z"/><path class="a1447fb4-a752-4e4a-bb7e-847d229e3f9b" d="M55.51,195.86a.86.86,0,0,0,0,1.71A.86.86,0,0,0,55.51,195.86Z"/><path class="a1447fb4-a752-4e4a-bb7e-847d229e3f9b" d="M46.08,189.25l-.16.06a.92.92,0,0,0,0,1.76l.16.06C47.64,191.69,47.65,188.69,46.08,189.25Z"/><path class="a1447fb4-a752-4e4a-bb7e-847d229e3f9b" d="M44.23,205.12a.76.76,0,0,0,0,1.52A.76.76,0,0,0,44.23,205.12Z"/><path class="a1447fb4-a752-4e4a-bb7e-847d229e3f9b" d="M119.13,212.07a1.21,1.21,0,0,0,0,2.42A1.21,1.21,0,0,0,119.13,212.07Z"/><path class="a1447fb4-a752-4e4a-bb7e-847d229e3f9b" d="M80.36,204.78a1.1,1.1,0,0,0,0,2.19A1.1,1.1,0,0,0,80.36,204.78Z"/><path class="a1447fb4-a752-4e4a-bb7e-847d229e3f9b" d="M61.5,204.35a1.18,1.18,0,0,0,0,2.35A1.18,1.18,0,0,0,61.5,204.35Z"/><path class="a1447fb4-a752-4e4a-bb7e-847d229e3f9b" d="M71.27,211.13l0-.07a1.26,1.26,0,1,0,0,1.27l0-.07A1,1,0,0,0,71.27,211.13Z"/><path class="a1447fb4-a752-4e4a-bb7e-847d229e3f9b" d="M65.55,220.42a1.14,1.14,0,0,0,0,2.28A1.14,1.14,0,0,0,65.55,220.42Z"/><path class="a1447fb4-a752-4e4a-bb7e-847d229e3f9b" d="M93,223.75a1.17,1.17,0,0,0,0,2.33A1.17,1.17,0,0,0,93,223.75Z"/><path class="a1447fb4-a752-4e4a-bb7e-847d229e3f9b" d="M100.66,228.43l-.13-.2c-1-1.58-3.11.57-1.53,1.52l.21.13A1.07,1.07,0,0,0,100.66,228.43Z"/><path class="a1447fb4-a752-4e4a-bb7e-847d229e3f9b" d="M114.72,231.82a.5.5,0,0,0,0,1A.5.5,0,0,0,114.72,231.82Z"/><path class="a1447fb4-a752-4e4a-bb7e-847d229e3f9b" d="M121.6,228.43a.71.71,0,0,0,0,1.42A.71.71,0,0,0,121.6,228.43Z"/><path class="a1447fb4-a752-4e4a-bb7e-847d229e3f9b" d="M53.92,187.75a.33.33,0,0,0,0,.66A.33.33,0,0,0,53.92,187.75Z"/><path class="a1447fb4-a752-4e4a-bb7e-847d229e3f9b" d="M46.52,182.7a.8.8,0,0,0,0,1.59A.8.8,0,0,0,46.52,182.7Z"/><path class="a1447fb4-a752-4e4a-bb7e-847d229e3f9b" d="M64.45,196.35a.33.33,0,0,0,0,.66A.33.33,0,0,0,64.45,196.35Z"/><path class="a1447fb4-a752-4e4a-bb7e-847d229e3f9b" d="M79.47,198.23a.78.78,0,0,0,0,1.55A.78.78,0,0,0,79.47,198.23Z"/><path class="a1447fb4-a752-4e4a-bb7e-847d229e3f9b" d="M74,206.47a.82.82,0,0,0,0,1.64A.82.82,0,0,0,74,206.47Z"/><path class="a1447fb4-a752-4e4a-bb7e-847d229e3f9b" d="M55.86,199.88a.54.54,0,0,0,0,1.07A.54.54,0,0,0,55.86,199.88Z"/><path class="a1447fb4-a752-4e4a-bb7e-847d229e3f9b" d="M188.92,207a.66.66,0,0,0,0,1.32A.66.66,0,0,0,188.92,207Z"/><path class="a1447fb4-a752-4e4a-bb7e-847d229e3f9b" d="M213.42,198.94a.42.42,0,0,0,0,.83A.42.42,0,0,0,213.42,198.94Z"/><path class="a1447fb4-a752-4e4a-bb7e-847d229e3f9b" d="M222.58,189.09a.75.75,0,0,0,0,1.5A.75.75,0,0,0,222.58,189.09Z"/><path class="a1447fb4-a752-4e4a-bb7e-847d229e3f9b" d="M221.7,181a.34.34,0,0,0,0,.68A.34.34,0,0,0,221.7,181Z"/><path class="a1447fb4-a752-4e4a-bb7e-847d229e3f9b" d="M210.42,188.64a.5.5,0,0,0,0,1A.5.5,0,0,0,210.42,188.64Z"/><path class="a1447fb4-a752-4e4a-bb7e-847d229e3f9b" d="M197.21,196.68a.92.92,0,0,0,0,1.83A.92.92,0,0,0,197.21,196.68Z"/><path class="a1447fb4-a752-4e4a-bb7e-847d229e3f9b" d="M169.89,202.68a.91.91,0,0,0,0,1.81A.91.91,0,0,0,169.89,202.68Z"/><path class="a1447fb4-a752-4e4a-bb7e-847d229e3f9b" d="M179.23,202.52a.72.72,0,0,0,0,1.43A.72.72,0,0,0,179.23,202.52Z"/><path class="a1447fb4-a752-4e4a-bb7e-847d229e3f9b" d="M194.39,212.61a1.2,1.2,0,0,0,0,2.4A1.2,1.2,0,0,0,194.39,212.61Z"/><path class="a1447fb4-a752-4e4a-bb7e-847d229e3f9b" d="M207.78,212.88a1.29,1.29,0,0,0,0,2.57A1.29,1.29,0,0,0,207.78,212.88Z"/><path class="a1447fb4-a752-4e4a-bb7e-847d229e3f9b" d="M195.19,224.56v.18a1.31,1.31,0,0,0,2.62,0v-.18A1.31,1.31,0,0,0,195.19,224.56Z"/><path class="a1447fb4-a752-4e4a-bb7e-847d229e3f9b" d="M211.31,220a1.37,1.37,0,0,0,0,2.73A1.37,1.37,0,0,0,211.31,220Z"/><path class="a1447fb4-a752-4e4a-bb7e-847d229e3f9b" d="M192.8,219.51a.64.64,0,0,0,0,1.28A.64.64,0,0,0,192.8,219.51Z"/><path class="a1447fb4-a752-4e4a-bb7e-847d229e3f9b" d="M161.43,230.78a1.54,1.54,0,0,0,0,3.07A1.54,1.54,0,0,0,161.43,230.78Z"/><path class="a1447fb4-a752-4e4a-bb7e-847d229e3f9b" d="M170.77,224.84a1.31,1.31,0,0,0,0,2.61A1.31,1.31,0,0,0,170.77,224.84Z"/><path class="a1447fb4-a752-4e4a-bb7e-847d229e3f9b" d="M150.5,231.67a1,1,0,0,0,0,2A1,1,0,0,0,150.5,231.67Z"/><path class="a1447fb4-a752-4e4a-bb7e-847d229e3f9b" d="M138,220.7a1.39,1.39,0,0,0,0,2.78A1.39,1.39,0,0,0,138,220.7Z"/><path class="a1447fb4-a752-4e4a-bb7e-847d229e3f9b" d="M116.42,220.84l0-.16a1.35,1.35,0,0,0-2.59,0l0,.16C113.1,223.08,117.05,223.09,116.42,220.84Z"/><path class="a1447fb4-a752-4e4a-bb7e-847d229e3f9b" d="M131.82,230.58a1.38,1.38,0,0,0,0,2.76A1.38,1.38,0,0,0,131.82,230.58Z"/><path class="a1447fb4-a752-4e4a-bb7e-847d229e3f9b" d="M101.68,217.33a1.06,1.06,0,0,0,0,2.12A1.06,1.06,0,0,0,101.68,217.33Z"/><path class="a1447fb4-a752-4e4a-bb7e-847d229e3f9b" d="M82.65,225.44a1.42,1.42,0,0,0,0,2.83A1.42,1.42,0,0,0,82.65,225.44Z"/><path class="a1447fb4-a752-4e4a-bb7e-847d229e3f9b" d="M113.81,208l-.14-.07c-1.33-.72-1.33,1.94,0,1.23l.14-.08A.63.63,0,0,0,113.81,208Z"/><path class="a1447fb4-a752-4e4a-bb7e-847d229e3f9b" d="M159.49,215.54a.56.56,0,0,0,0,1.12A.56.56,0,0,0,159.49,215.54Z"/><path class="a1447fb4-a752-4e4a-bb7e-847d229e3f9b" d="M166.19,227a.74.74,0,0,0,0,1.47A.74.74,0,0,0,166.19,227Z"/><path class="a1447fb4-a752-4e4a-bb7e-847d229e3f9b" d="M159.49,223.19a.84.84,0,0,0,0,1.68A.84.84,0,0,0,159.49,223.19Z"/><path class="a1447fb4-a752-4e4a-bb7e-847d229e3f9b" d="M155.44,230.56a.35.35,0,0,0,0,.69A.35.35,0,0,0,155.44,230.56Z"/><path class="a1447fb4-a752-4e4a-bb7e-847d229e3f9b" d="M148.19,213.66l-.07-.14a.93.93,0,0,0-1.58,0,.91.91,0,0,0-.07.14C145.46,215.53,149.2,215.53,148.19,213.66Z"/><path class="a1447fb4-a752-4e4a-bb7e-847d229e3f9b" d="M144,224.4a1.22,1.22,0,0,0,0,2.43A1.22,1.22,0,0,0,144,224.4Z"/><path class="a1447fb4-a752-4e4a-bb7e-847d229e3f9b" d="M126.71,223.24a1.32,1.32,0,0,0,0,2.64A1.32,1.32,0,0,0,126.71,223.24Z"/><path class="a1447fb4-a752-4e4a-bb7e-847d229e3f9b" d="M123.3,232.18l-.17,0c-.8.1-.8,1.51,0,1.62l.17,0A.86.86,0,1,0,123.3,232.18Z"/><path class="a1447fb4-a752-4e4a-bb7e-847d229e3f9b" d="M104.68,232.18a.84.84,0,0,0,0,1.68A.84.84,0,0,0,104.68,232.18Z"/><path class="a1447fb4-a752-4e4a-bb7e-847d229e3f9b" d="M175,212.31a1.5,1.5,0,0,0,0,3A1.5,1.5,0,0,0,175,212.31Z"/><path class="a1447fb4-a752-4e4a-bb7e-847d229e3f9b" d="M172.53,230.71a1.25,1.25,0,0,0,0,2.5A1.25,1.25,0,0,0,172.53,230.71Z"/><path class="a1447fb4-a752-4e4a-bb7e-847d229e3f9b" d="M179.93,220.61a1.31,1.31,0,0,0,0,2.61A1.31,1.31,0,0,0,179.93,220.61Z"/><path class="a1447fb4-a752-4e4a-bb7e-847d229e3f9b" d="M206.37,203.47a1,1,0,0,0,0,2A1,1,0,0,0,206.37,203.47Z"/><path class="a1447fb4-a752-4e4a-bb7e-847d229e3f9b" d="M189.1,226.72h-.18c-1.31-.09-1.32,2.13,0,2h.18A1,1,0,0,0,189.1,226.72Z"/><path class="b5461daf-4a0f-4dd4-a790-d3a459d0de4f" d="M81.42,62.06a4.57,4.57,0,0,0-6.82.49,1.85,1.85,0,0,0-1.36-.48,3.74,3.74,0,0,0-1.42.37,4.81,4.81,0,0,0-1.46.94,2.71,2.71,0,0,0-.83,1.5,9.79,9.79,0,0,0-2.85,2.54,3.34,3.34,0,0,0,0,3.63,3.48,3.48,0,0,0-1.58,1.57,5.68,5.68,0,0,0-.57,2.19A8.59,8.59,0,0,0,65,77.18a6.36,6.36,0,0,0-1.59,4.54,7.05,7.05,0,0,0,2.06,4.63,6.47,6.47,0,0,0,1.19,4.34,6.22,6.22,0,0,0,3.69,2.43,5.59,5.59,0,0,0,2.13,3.44,6,6,0,0,0,4,1.3,5.32,5.32,0,0,0,4.13,1.4,5.62,5.62,0,0,0,4-2,4.55,4.55,0,0,0,3-.36,5.05,5.05,0,0,0,2.28-2.15A3.09,3.09,0,0,0,92.72,93,3.76,3.76,0,0,0,96,92.48a3.84,3.84,0,0,0,1.65-2.89,1.78,1.78,0,0,0,1.18-.74,1.73,1.73,0,0,0,.36-1.32,4.84,4.84,0,0,0,3.47-7.81,7.13,7.13,0,0,0-.73-6.26c-.41-.62-1.07-1.23-1.79-1.06a4.89,4.89,0,0,0-1.29-3.21,4.29,4.29,0,0,0-3-1.27,6.66,6.66,0,0,0-6.35-3.82,2.94,2.94,0,0,0-2-1.38,3.18,3.18,0,0,0-2.51.45A3.71,3.71,0,0,0,81.42,62.06Z"/><path class="ba42e605-d436-4b66-94d9-1bd2eee2ec3d" d="M79.12,83.32a1.43,1.43,0,0,1-1,.1A6.06,6.06,0,0,1,75.06,82a1.16,1.16,0,0,1-.49-.76.86.86,0,0,1,.35-.72,1.61,1.61,0,0,1,.76-.29,3.37,3.37,0,0,1,2.22.4C78.5,81,80.25,82.66,79.12,83.32Z"/><path class="ba42e605-d436-4b66-94d9-1bd2eee2ec3d" d="M84.08,79.47a5.77,5.77,0,0,0-2-3.73,2.58,2.58,0,0,0-2.9-.46,2.22,2.22,0,0,0-.77,2.32,5.19,5.19,0,0,0,1.33,2.21A5,5,0,0,0,81.3,81.1,1.87,1.87,0,0,0,84.08,79.47Zm3.31-6.74c-.43-.91-1.3-2.3-2.34-2.57a1.87,1.87,0,0,0-1.82.53,3.22,3.22,0,0,0-.37,3,11.21,11.21,0,0,0,2,4,3.39,3.39,0,0,0,1,1,1.49,1.49,0,0,0,1.39.1A2.08,2.08,0,0,0,88.18,77,8.18,8.18,0,0,0,87.39,72.73Zm4.84,6.19a7,7,0,0,0,1.22-5.58,3.79,3.79,0,0,0-1-2,2,2,0,0,0-2-.49c-2.11.86-1.44,4-1.33,5.73.06,1-.22,2.48.75,3.16S91.69,79.63,92.23,78.92Zm5.24,1.42a6.64,6.64,0,0,0,.38-4.6,3.06,3.06,0,0,0-.63-1.26A1.49,1.49,0,0,0,96,73.94c-.81.08-1.29.92-1.59,1.67a29.38,29.38,0,0,0-1,3.31,4.66,4.66,0,0,0-.31,2.52,1.84,1.84,0,0,0,2.09,1A3.38,3.38,0,0,0,97.47,80.34Zm5.28,3A2.68,2.68,0,0,0,102,81c-1.8-1.56-4,.57-4.61,2.24-.78,2.15,1.36,3.79,3.39,2.87A3.54,3.54,0,0,0,102.75,83.37Zm-4.33,4.75c.16-.62-.72-1.49-1.16-1.77a1.7,1.7,0,0,0-1.63-.14A1.19,1.19,0,0,0,95,87.63a1.59,1.59,0,0,0,1,.83C96.59,88.69,98.18,89,98.42,88.12Zm-3.51,1.27a1.82,1.82,0,0,0-1.82.53A1.53,1.53,0,0,0,93,91.77a1.57,1.57,0,0,0,1,.6,2.37,2.37,0,0,0,1.21-.13,2,2,0,0,0,.89-.57C96.9,90.76,95.83,89.64,94.91,89.39Zm-4.07,1.4a1,1,0,0,0-1,.44,2,2,0,0,0-.09,1.33c.1.58.26,1.26.8,1.51A1.19,1.19,0,0,0,92,93.34,2.16,2.16,0,0,0,90.84,90.79Zm-4,.79a2.41,2.41,0,0,0-1.77,1.48,3.28,3.28,0,0,0,0,2.35,2.2,2.2,0,0,0,1,1.22,1.84,1.84,0,0,0,2-.27A2.78,2.78,0,0,0,89,94.5C89.15,93.07,88.68,91.28,86.86,91.58Zm-6.1-.26a1,1,0,0,0-.59.14L74.93,94c-.52.25-1.11.6-1.14,1.18a1.05,1.05,0,0,0,.5.89,2.25,2.25,0,0,0,1,.31,5.35,5.35,0,0,0,3.83-1.16C79.58,94.84,82,91.56,80.76,91.32Zm1.72,1.42a2.83,2.83,0,0,0-1.15,1L79.45,96a3.88,3.88,0,0,0-.58.87,1.25,1.25,0,0,0,0,1,1.15,1.15,0,0,0,.83.57,2.3,2.3,0,0,0,1-.1,4.64,4.64,0,0,0,2.62-2C83.9,95.47,84.72,92,82.48,92.74ZM95.89,69.5a1.58,1.58,0,0,0-.83,1.91,2.64,2.64,0,0,0,.73,1,2.5,2.5,0,0,0,1,.61,1.47,1.47,0,0,0,1.71-.84C99,70.88,97.23,68.92,95.89,69.5ZM91.5,65.64a1.7,1.7,0,0,0-1.62,1.63,2.43,2.43,0,0,0,.81,1.55,2.61,2.61,0,0,0,1.62.91,1.63,1.63,0,0,0,1.59-1C94.42,67.38,92.86,65.58,91.5,65.64ZM88.62,65a1.8,1.8,0,0,0-1-1.18c-1.12-.48-2.63.49-3,1.52a2,2,0,0,0,.06,1.76,1.42,1.42,0,0,0,1.55.67,2.48,2.48,0,0,0,.64-.35l.84-.58C88.38,66.41,88.86,65.89,88.62,65Zm-5.11.51a1.68,1.68,0,0,0,.08-.54,1.39,1.39,0,0,0-1.3-1.1,2.31,2.31,0,0,0-2.23,1.26,2.51,2.51,0,0,0,.24,2.57,1.93,1.93,0,0,0,1.37.83,1.09,1.09,0,0,0,1.22-.85C83.06,67,83.28,66.29,83.51,65.54ZM77,69.77a2.3,2.3,0,0,0-.72,2.76,1.8,1.8,0,0,0,1.14,1A1.85,1.85,0,0,0,79.07,73,3.54,3.54,0,0,0,80,71.44C80.54,69.61,78.31,68.82,77,69.77Zm-.46-4.25a2.93,2.93,0,0,0-1.22,1.29,1.36,1.36,0,0,0-.11,1.42,1.54,1.54,0,0,0,1.26.43A3.64,3.64,0,0,0,78,68.47a1.82,1.82,0,0,0,1-1.41A1.63,1.63,0,0,0,76.51,65.52Zm-.92,9.29A1.7,1.7,0,0,0,74,74.9a2.09,2.09,0,0,0-.92,1.32,1.68,1.68,0,0,0,.52,1.69,1.65,1.65,0,0,0,1.21.27C76.57,77.9,77.46,75.71,75.59,74.81Zm-5.92-7.76a2.18,2.18,0,0,0-1.12.92,1.77,1.77,0,0,0-.34,1.72,1.24,1.24,0,0,0,1.36.61,1.77,1.77,0,0,0,1.18-1C71.18,68.4,71.19,66.61,69.67,67.05Zm-.54,12.54a1.78,1.78,0,0,0-2.45-1.68A2.56,2.56,0,0,0,65.58,79a2.22,2.22,0,0,0-.35,1.37,1.76,1.76,0,0,0,1.17,1.42A2.28,2.28,0,0,0,69.13,79.59Zm.93-7.24a1.23,1.23,0,0,0-2.29.81,1.36,1.36,0,0,0,.68,1C69.55,74.72,70.59,73.33,70.06,72.35Zm8.69-10.23a1.16,1.16,0,0,0-1.1.63A.94.94,0,0,0,78,63.92a1.14,1.14,0,0,0,1.21-.14C80.07,63.13,79.94,62.18,78.75,62.12Z"/><path class="ba42e605-d436-4b66-94d9-1bd2eee2ec3d" d="M125.78,85.05a4.57,4.57,0,0,1,1.93,6.56,1.88,1.88,0,0,1,.93,1.1,3.79,3.79,0,0,1,.15,1.46,5.18,5.18,0,0,1-.37,1.7,2.76,2.76,0,0,1-1.12,1.31,9.66,9.66,0,0,1-1.37,3.55,3.36,3.36,0,0,1-3.4,1.29,3.42,3.42,0,0,1-.92,2,5.56,5.56,0,0,1-1.85,1.29,8.19,8.19,0,0,1-2.38.4,6.38,6.38,0,0,1-3.7,3.08,7,7,0,0,1-5.05-.31,6.43,6.43,0,0,1-4.48.41,6.18,6.18,0,0,1-3.57-2.6,5.6,5.6,0,0,1-4-.79A6,6,0,0,1,94,102.24a5.32,5.32,0,0,1-2.76-3.37,5.62,5.62,0,0,1,.49-4.46,4.54,4.54,0,0,1-.7-2.89,5.07,5.07,0,0,1,1.21-2.89,3.07,3.07,0,0,1,.61-3.31,3.77,3.77,0,0,1-.65-3.23,3.84,3.84,0,0,1,2.13-2.56,1.77,1.77,0,0,1,.28-1.36,1.74,1.74,0,0,1,1.11-.81,4.83,4.83,0,0,1,6.1-6,7.12,7.12,0,0,1,6.12-1.51c.72.16,1.52.57,1.62,1.3a4.88,4.88,0,0,1,3.45.08,4.37,4.37,0,0,1,2.24,2.35,6.65,6.65,0,0,1,5.8,4.61,3,3,0,0,1,2,1.4,3.22,3.22,0,0,1,.46,2.51A3.72,3.72,0,0,1,125.78,85.05Z"/><path class="b5461daf-4a0f-4dd4-a790-d3a459d0de4f" d="M120.11,105.15a8.39,8.39,0,0,0-1-1.93c-1.23-1.74-3.6-3-5.48-2a4.38,4.38,0,0,0-5.81-3.15,5,5,0,0,0-3.41-3.78,4.43,4.43,0,0,0,1.36-1.14,1.54,1.54,0,0,0,.11-1.68.94.94,0,0,0-1.5-.06,4.86,4.86,0,0,0-4.68-6.77l.33-1.87a5.58,5.58,0,0,1-4.12-2.5,5.47,5.47,0,0,1-.83-2.61,2.47,2.47,0,0,0-.49.53,1.77,1.77,0,0,0-.28,1.36,3.84,3.84,0,0,0-2.13,2.56,3.77,3.77,0,0,0,.65,3.23,3.07,3.07,0,0,0-.61,3.31A5.07,5.07,0,0,0,91,91.52a4.54,4.54,0,0,0,.7,2.89,5.62,5.62,0,0,0-.49,4.46A5.32,5.32,0,0,0,94,102.24a6,6,0,0,0,2.62,3.29,5.6,5.6,0,0,0,4,.79,6.18,6.18,0,0,0,3.57,2.6,6.43,6.43,0,0,0,4.48-.41,7,7,0,0,0,5.05.31,6.38,6.38,0,0,0,3.7-3.08,8.19,8.19,0,0,0,2.38-.4A3.9,3.9,0,0,0,120.11,105.15Z"/><path class="b5cde6b7-7a74-4c65-b620-bc236b6e1492" d="M109.67,96.42c.43,0,.88-.37.75-.83s-.46-.45-.78-.51c-.59-.11-1.4.18-.85.86A1.16,1.16,0,0,0,109.67,96.42Z"/><path class="fb9f94d2-8331-4c95-b0a5-cc70ae38b388" d="M107.11,86.15a2.3,2.3,0,0,0,.88,2.42,3.2,3.2,0,0,0-1.13,2,2.87,2.87,0,0,0,.51,2.09,2.22,2.22,0,0,0-1.58.77,2,2,0,0,0-.52,1.62,4.06,4.06,0,0,0-3.12,0,1.19,1.19,0,0,0-.14-1.73,1.84,1.84,0,0,0,.9-1.53,1.64,1.64,0,0,0-.73-1.52,1.66,1.66,0,0,0,1.28-.87,2,2,0,0,0,.14-1.69,1.23,1.23,0,0,0,1.31-1.08,1.48,1.48,0,0,0,1.22.26A1.38,1.38,0,0,0,107.11,86.15Z"/><path class="b5cde6b7-7a74-4c65-b620-bc236b6e1492" d="M108.45,91.73a4.89,4.89,0,0,0,1.75,1,5.23,5.23,0,0,0,2.54.47,2.19,2.19,0,0,0,1.9-1.53,2.55,2.55,0,0,0-1.44-2.55,5.72,5.72,0,0,0-4.21-.58A1.87,1.87,0,0,0,108.45,91.73Zm1.43-7.88c-.63.3-1.29.78-1.35,1.48a1.53,1.53,0,0,0,.58,1.27,3.72,3.72,0,0,0,1.29.64,11.3,11.3,0,0,0,4.44.44,3.2,3.2,0,0,0,2.68-1.41,1.88,1.88,0,0,0-.14-1.89c-.62-.87-2.22-1.2-3.23-1.29A8.26,8.26,0,0,0,109.88,83.85Zm-3.19-.56c1,.66,2.26-.12,3.22-.41,1.66-.5,4.84-1,4.91-3.26a2,2,0,0,0-1.18-1.75,3.72,3.72,0,0,0-2.19-.23,7,7,0,0,0-4.79,3.09C106.18,81.48,105.79,82.67,106.69,83.29Zm-4.33-4.07c.15.79.77,1.65,1.65,1.62a4.67,4.67,0,0,0,2.25-1.18,29.37,29.37,0,0,0,2.75-2.1c.6-.55,1.21-1.29,1-2.07a1.53,1.53,0,0,0-1-1,3.16,3.16,0,0,0-1.4-.15,6.75,6.75,0,0,0-4.18,2A3.36,3.36,0,0,0,102.36,79.22Zm-5.44-4c-.15,2.22,2.14,3.65,3.88,2.17,1.35-1.16,2.58-4,.48-5.1a2.66,2.66,0,0,0-2.48.13A3.58,3.58,0,0,0,96.92,75.24Zm-.52,5.32a1.58,1.58,0,0,0,1.12.62,1.19,1.19,0,0,0,1.12-1.08,1.7,1.7,0,0,0-.7-1.47c-.42-.32-1.55-.83-2.07-.47C95.09,78.7,96,80.07,96.4,80.56ZM93.24,86a1.17,1.17,0,0,0-.17,1.64,1.87,1.87,0,0,0,1.69.23A2,2,0,0,0,96,87.3a1,1,0,0,0,0-1.1A2.14,2.14,0,0,0,93.24,86Zm0,3.24a2.78,2.78,0,0,0-1.41,1.51,1.82,1.82,0,0,0,.43,2,2.18,2.18,0,0,0,1.48.48,3.2,3.2,0,0,0,2.22-.8,2.38,2.38,0,0,0,.76-2.17C96.32,88.39,94.48,88.58,93.2,89.23ZM96,98.7a5.36,5.36,0,0,0,.26,4,2.33,2.33,0,0,0,.64.85,1,1,0,0,0,1,.15c.52-.23.65-.9.7-1.48l.52-5.79a.93.93,0,0,0-.07-.6C98.41,94.75,96.19,98.16,96,98.7Zm-2.57-3.54a4.62,4.62,0,0,0-1,3.16,2.44,2.44,0,0,0,.27,1,1.17,1.17,0,0,0,.82.59,1.25,1.25,0,0,0,1-.36,3.56,3.56,0,0,0,.62-.86l1.5-2.56a2.8,2.8,0,0,0,.52-1.42C97.09,92.33,94.08,94.34,93.43,95.16Zm10.64-23.55a1.69,1.69,0,0,0-.35,1.66,1.8,1.8,0,0,0,1.56,1,4.18,4.18,0,0,0,1.9-.39,2.44,2.44,0,0,0,1.49-1.22C109.63,70.16,105.1,70.42,104.07,71.61Zm6.72.92a1.49,1.49,0,0,0-.18,1.9,2.56,2.56,0,0,0,.91.68,2.48,2.48,0,0,0,1.18.34A1.58,1.58,0,0,0,114.2,74C114.27,72.54,111.82,71.58,110.79,72.53Zm4.83,3.07a1.62,1.62,0,0,0-.38,1.84,2.58,2.58,0,0,0,1.42,1.19,2.45,2.45,0,0,0,1.73.22,1.7,1.7,0,0,0,1-2.09C118.93,75.46,116.7,74.63,115.62,75.6Zm3.91,5.14c-.08.33-.17.66-.25,1a2.16,2.16,0,0,0-.1.72,1.4,1.4,0,0,0,1.17,1.21,2,2,0,0,0,1.67-.55c.81-.76,1.19-2.51.35-3.4a1.82,1.82,0,0,0-1.44-.46C120.05,79.32,119.73,80,119.53,80.74Zm.9,4.81a1.1,1.1,0,0,0-.37,1.44,1.94,1.94,0,0,0,1.26,1,2.53,2.53,0,0,0,2.5-.68,2.33,2.33,0,0,0,.39-2.53,1.37,1.37,0,0,0-1.48-.82,1.4,1.4,0,0,0-.48.26C121.63,84.69,121.08,85.12,120.43,85.55Zm-2.48,4a3.59,3.59,0,0,0-1.16,1.4,1.87,1.87,0,0,0,.12,1.75,1.81,1.81,0,0,0,1.34.72,2.3,2.3,0,0,0,2.32-1.64C121,90.23,119.47,88.41,118,89.59ZM122.4,89a1.77,1.77,0,0,0-1,1.46,3.39,3.39,0,0,0,.36,1.51c.17.42.39.9.84,1a1.39,1.39,0,0,0,1.29-.61,3,3,0,0,0,.78-1.59A1.63,1.63,0,0,0,122.4,89Zm-8.94,7.82a1.65,1.65,0,0,0,.67,1,1.69,1.69,0,0,0,1.77-.11,2.06,2.06,0,0,0,.91-1.32,1.71,1.71,0,0,0-.47-1.52C114.84,93.44,113.1,95,113.46,96.78Zm9.74.69a1.79,1.79,0,0,0-.52,1.46,1.25,1.25,0,0,0,1,1.07,1.8,1.8,0,0,0,1.49-.93,2.27,2.27,0,0,0,.48-1.38C125.56,96.12,123.89,96.75,123.2,97.47Zm-3.74,3.86a1.4,1.4,0,0,0,1.17.29,1.23,1.23,0,0,0,0-2.43C119.48,99,118.54,100.5,119.46,101.33Zm6-13.7a1.13,1.13,0,0,0,.29,1.18.94.94,0,0,0,1.22-.1,1.15,1.15,0,0,0,.2-1.24C126.65,86.37,125.71,86.58,125.41,87.63Z"/><path class="ba42e605-d436-4b66-94d9-1bd2eee2ec3d" d="M104,106.89a4.58,4.58,0,0,1-2.12,6.51,1.82,1.82,0,0,1,.13,1.43,3.86,3.86,0,0,1-.7,1.29,4.8,4.8,0,0,1-1.27,1.19,2.69,2.69,0,0,1-1.65.44,9.6,9.6,0,0,1-3.15,2.15,3.33,3.33,0,0,1-3.53-.86,3.41,3.41,0,0,1-1.91,1.15,5.5,5.5,0,0,1-2.25,0,8.28,8.28,0,0,1-2.2-1,6.38,6.38,0,0,1-4.79.45,7,7,0,0,1-4-3.13,6.41,6.41,0,0,1-3.93-2.19,6.23,6.23,0,0,1-1.47-4.17,5.58,5.58,0,0,1-2.82-2.9,6,6,0,0,1-.29-4.19,5.28,5.28,0,0,1-.37-4.34,5.63,5.63,0,0,1,2.93-3.41,4.54,4.54,0,0,1,1.06-2.77,5.07,5.07,0,0,1,2.63-1.69,3.1,3.1,0,0,1,2.38-2.39,3.77,3.77,0,0,1,1.3-3,3.87,3.87,0,0,1,3.2-.91,1.75,1.75,0,0,1,1-1,1.72,1.72,0,0,1,1.37,0,4.84,4.84,0,0,1,8.42-1.48,7.1,7.1,0,0,1,5.89,2.22c.5.55.94,1.33.6,2a4.85,4.85,0,0,1,2.8,2,4.32,4.32,0,0,1,.52,3.2,6.64,6.64,0,0,1,2.16,7.08,3,3,0,0,1,.86,2.29,3.2,3.2,0,0,1-1,2.33A3.69,3.69,0,0,1,104,106.89Z"/><path class="ba42e605-d436-4b66-94d9-1bd2eee2ec3d" d="M83.2,104.17a1.45,1.45,0,0,0-.34.92,6.13,6.13,0,0,0,.66,3.34,1.22,1.22,0,0,0,.62.66.85.85,0,0,0,.78-.17,1.6,1.6,0,0,0,.47-.67,3.26,3.26,0,0,0,.14-2.24C85.34,105.34,84.11,103.23,83.2,104.17Z"/><path class="b5cde6b7-7a74-4c65-b620-bc236b6e1492" d="M83.93,106.37a.72.72,0,0,0,1.09-.25c.12-.34-.13-.64-.36-.87-.42-.42-1.25-.64-1.19.23A1.19,1.19,0,0,0,83.93,106.37Z"/><path class="b5461daf-4a0f-4dd4-a790-d3a459d0de4f" d="M87.64,96.46A2.29,2.29,0,0,0,87,99a3.22,3.22,0,0,0-2,1,2.88,2.88,0,0,0-.76,2,2.19,2.19,0,0,0-1.74-.26,2.06,2.06,0,0,0-1.35,1,4,4,0,0,0-2.55-1.79,1.18,1.18,0,0,0,.86-1.51A1.82,1.82,0,0,0,81,98.68,1.68,1.68,0,0,0,81.28,97a1.64,1.64,0,0,0,1.55,0,2,2,0,0,0,1.06-1.31,1.24,1.24,0,0,0,1.7-.14,1.48,1.48,0,0,0,.85.9A1.4,1.4,0,0,0,87.64,96.46Z"/><path class="b5cde6b7-7a74-4c65-b620-bc236b6e1492" d="M77.89,102.32c1.7.14,2.61,1.84,2.94,3.34A5.72,5.72,0,0,1,80,110a3.87,3.87,0,0,1-2.27,1.71,3.66,3.66,0,0,1-2.94-.76,4.82,4.82,0,0,1,3.07-8.63Zm8,.27a5.06,5.06,0,0,0,.87,1.83,5.2,5.2,0,0,0,1.82,1.82,2.19,2.19,0,0,0,2.44-.18,2.56,2.56,0,0,0,.26-2.92,5.72,5.72,0,0,0-3.14-2.86A1.87,1.87,0,0,0,85.88,102.59Zm5.65-5.69a2.11,2.11,0,0,0-2,.45,1.57,1.57,0,0,0-.24,1.38A3.48,3.48,0,0,0,90,100a11.21,11.21,0,0,0,3.41,2.87,3.25,3.25,0,0,0,3,.37,1.89,1.89,0,0,0,1-1.64c0-1.08-1.15-2.25-1.92-2.89A8.25,8.25,0,0,0,91.53,96.9Zm-2.31-2.27c.42,1.1,1.92,1.19,2.88,1.49,1.65.52,4.54,1.93,5.89.09a2,2,0,0,0,0-2.11,3.82,3.82,0,0,0-1.67-1.43,7,7,0,0,0-5.7-.16C89.82,92.86,88.82,93.61,89.22,94.63ZM88,88.83a1.82,1.82,0,0,0,.44,2.26,4.7,4.7,0,0,0,2.52.31,28.54,28.54,0,0,0,3.46-.18c.8-.11,1.73-.37,2-1.13a1.55,1.55,0,0,0-.23-1.36,3,3,0,0,0-1.07-.91,6.65,6.65,0,0,0-4.56-.74A3.34,3.34,0,0,0,88,88.83Zm-2.23-6.36c-1.38,1.74-.3,4.22,2,4,1.77-.19,4.37-1.81,3.29-3.93a2.64,2.64,0,0,0-2.12-1.29A3.55,3.55,0,0,0,85.72,82.47Zm-3.44,4.08a1.66,1.66,0,0,0,.57,1.16,1.22,1.22,0,0,0,1.54-.26,1.71,1.71,0,0,0,.25-1.62c-.17-.5-.8-1.56-1.44-1.55C82.25,84.29,82.21,85.92,82.28,86.55Zm-3.07-.91a2,2,0,0,0-.77.73A2.36,2.36,0,0,0,78,87.51a1.58,1.58,0,0,0,.33,1.15,1.55,1.55,0,0,0,1.82.36,1.8,1.8,0,0,0,1-1.64C81.11,86.43,80.27,85.12,79.21,85.64Zm-2.62,3.6a1.17,1.17,0,0,0-1.06,1.26c.11.58.72.9,1.27,1.14a1.91,1.91,0,0,0,1.31.23,1,1,0,0,0,.67-.88C78.81,90,77.46,89.14,76.59,89.24Zm-1.86,2.65a2.76,2.76,0,0,0-2,.44A1.87,1.87,0,0,0,72,94.19a2.24,2.24,0,0,0,1,1.23,3.24,3.24,0,0,0,2.27.6,2.4,2.4,0,0,0,1.86-1.36C77.78,93,76.16,92.08,74.73,91.89Zm-3,9.39a5.29,5.29,0,0,0-2.05,3.43,2.27,2.27,0,0,0,.05,1.07,1.08,1.08,0,0,0,.75.7c.56.11,1-.38,1.41-.82l3.72-4.48a1,1,0,0,0,.28-.54C75.9,99.39,72.13,100.94,71.68,101.28Zm-.12-4.38A4.57,4.57,0,0,0,69,99a2.31,2.31,0,0,0-.35,1A1.08,1.08,0,0,0,70,101.12a3.54,3.54,0,0,0,1-.35l2.7-1.26a2.71,2.71,0,0,0,1.22-.88C76.18,96.65,72.56,96.6,71.56,96.9ZM93.67,83.53a1.69,1.69,0,0,0-1.23,1.17,1.83,1.83,0,0,0,.7,1.73,4.25,4.25,0,0,0,1.79.75A2.44,2.44,0,0,0,96.85,87C99.07,85.47,95.19,83.13,93.67,83.53Zm5,4.56a1.47,1.47,0,0,0-1.22,1.46,2.42,2.42,0,0,0,.35,1.07,2.55,2.55,0,0,0,.79,1,1.58,1.58,0,0,0,2-.35C101.55,90.07,100.08,87.89,98.69,88.09Zm2.25,5.26a1.65,1.65,0,0,0-1.37,1.3,2.59,2.59,0,0,0,.5,1.79,2.41,2.41,0,0,0,1.3,1.16,1.7,1.7,0,0,0,2-1.18C103.74,95.11,102.37,93.17,100.94,93.35Zm.3,6.45-.76.68a2.28,2.28,0,0,0-.5.53,1.42,1.42,0,0,0,.28,1.67,2,2,0,0,0,1.69.48,2.64,2.64,0,0,0,2.21-2.59,1.78,1.78,0,0,0-.92-1.2C102.47,98.92,101.85,99.27,101.24,99.8Zm-2,4.48a1.09,1.09,0,0,0-1.12,1,1.9,1.9,0,0,0,.47,1.52,2.53,2.53,0,0,0,2.44.86,2.32,2.32,0,0,0,1.76-1.86,1.36,1.36,0,0,0-.75-1.52,1.43,1.43,0,0,0-.54-.06C100.73,104.25,100,104.29,99.26,104.28Zm-4.33,1.92a3.58,3.58,0,0,0-1.75.5,1.88,1.88,0,0,0-.9,1.51,1.79,1.79,0,0,0,.7,1.35,2.3,2.3,0,0,0,2.85,0C97.08,108.45,96.85,106.09,94.93,106.2Zm4,2a1.78,1.78,0,0,0-1.61.66,3.57,3.57,0,0,0-.56,1.45,1.53,1.53,0,0,0,.11,1.33,1.36,1.36,0,0,0,1.41.23,2.9,2.9,0,0,0,1.54-.87A1.64,1.64,0,0,0,99,108.2Zm-11.8,1.39a1.59,1.59,0,0,0,0,1.23,1.69,1.69,0,0,0,1.51.91,2,2,0,0,0,1.5-.57,1.72,1.72,0,0,0,.48-1.52C90.18,107.61,87.84,108,87.15,109.59Zm7.64,6.08a1.78,1.78,0,0,0-1.26.91,1.24,1.24,0,0,0,.26,1.47,1.78,1.78,0,0,0,1.75.08,2.2,2.2,0,0,0,1.17-.87C97.5,115.9,95.77,115.47,94.79,115.67Zm-13.15,1.21a1.76,1.76,0,0,0,1.1,1.49,2.27,2.27,0,0,0,1.41,0,2.51,2.51,0,0,0,1.29-.81,1.78,1.78,0,0,0-1-2.79C83.12,114.52,81.54,115.46,81.64,116.88Zm7.88-.15a1.36,1.36,0,0,0,.8.9,1.23,1.23,0,0,0,1.34-2C90.83,114.86,89.23,115.53,89.52,116.73Zm12.66-7.92a1.15,1.15,0,0,0-.43,1.14,1,1,0,0,0,1.06.61,1.15,1.15,0,0,0,.87-.91C103.91,108.48,103,108.12,102.18,108.81Z"/><path class="a1447fb4-a752-4e4a-bb7e-847d229e3f9b" d="M157.9,50.08c0,.52,1.33.93,3,.93s3-.41,3-.93v58.81c0,.51-1.33.93-3,.93s-3-.42-3-.93Z"/><path class="ffc38ab4-22f7-4920-9caa-f76583622c7d" d="M163.84,50.08c0,.52-1.33.93-3,.93s-3-.41-3-.93,1.33-.93,3-.93S163.84,49.57,163.84,50.08Z"/><path class="be4800df-9a55-4d26-ab6b-b367fc562b94" d="M158.26,45.44a2.61,2.61,0,1,0,5.22,0c0-1.44-2.61-6.59-2.61-6.59S158.26,44,158.26,45.44Z"/><path class="e1cac2a3-39cd-4230-91b2-dca8e0b7b8fa" d="M159.28,45.93a1.59,1.59,0,0,0,3.18,0c0-.88-1.59-4-1.59-4S159.28,45.05,159.28,45.93Z"/><path class="a07b281e-b8c6-4279-b6da-56c135fc3f82" d="M163.84,72.51V68.37a55.43,55.43,0,0,1-5.94,4.09v3.87A59.94,59.94,0,0,0,163.84,72.51Z"/><path class="a07b281e-b8c6-4279-b6da-56c135fc3f82" d="M163.84,54.7a56.92,56.92,0,0,1-5.94,4.09v3.87a59.94,59.94,0,0,0,5.94-3.82Z"/><path class="a07b281e-b8c6-4279-b6da-56c135fc3f82" d="M163.84,86.18V82a55.43,55.43,0,0,1-5.94,4.09V90A58.18,58.18,0,0,0,163.84,86.18Z"/><path class="a07b281e-b8c6-4279-b6da-56c135fc3f82" d="M163.84,99.85V95.72a56.92,56.92,0,0,1-5.94,4.09v3.87A58.28,58.28,0,0,0,163.84,99.85Z"/><path class="a1447fb4-a752-4e4a-bb7e-847d229e3f9b" d="M169,35.28c0,.51,1.33.93,3,.93s3-.42,3-.93v58.8c0,.52-1.33.93-3,.93s-3-.41-3-.93Z"/><path class="ffc38ab4-22f7-4920-9caa-f76583622c7d" d="M175,35.28c0,.51-1.33.93-3,.93s-3-.42-3-.93,1.33-.93,3-.93S175,34.77,175,35.28Z"/><path class="be4800df-9a55-4d26-ab6b-b367fc562b94" d="M169.38,30.63a2.61,2.61,0,1,0,5.22,0c0-1.44-2.61-6.58-2.61-6.58S169.38,29.19,169.38,30.63Z"/><path class="e1cac2a3-39cd-4230-91b2-dca8e0b7b8fa" d="M170.4,31.13a1.59,1.59,0,0,0,3.18,0c0-.88-1.59-4-1.59-4S170.4,30.25,170.4,31.13Z"/><path class="a07b281e-b8c6-4279-b6da-56c135fc3f82" d="M175,57.71V53.57A56.92,56.92,0,0,1,169,57.66v3.87A59.94,59.94,0,0,0,175,57.71Z"/><path class="a07b281e-b8c6-4279-b6da-56c135fc3f82" d="M175,39.89A55.43,55.43,0,0,1,169,44v3.87A58.18,58.18,0,0,0,175,44Z"/><path class="a07b281e-b8c6-4279-b6da-56c135fc3f82" d="M175,71.38V67.24A55.43,55.43,0,0,1,169,71.33V75.2A59.94,59.94,0,0,0,175,71.38Z"/><path class="a07b281e-b8c6-4279-b6da-56c135fc3f82" d="M175,85.05V80.91A55.43,55.43,0,0,1,169,85v3.87A58.18,58.18,0,0,0,175,85.05Z"/><path class="a1447fb4-a752-4e4a-bb7e-847d229e3f9b" d="M180.31,53.19c0,.51,1.33.93,3,.93s3-.42,3-.93V112c0,.51-1.34.93-3,.93s-3-.42-3-.93Z"/><path class="ffc38ab4-22f7-4920-9caa-f76583622c7d" d="M186.26,53.19c0,.51-1.34.93-3,.93s-3-.42-3-.93,1.33-.93,3-.93S186.26,52.68,186.26,53.19Z"/><path class="be4800df-9a55-4d26-ab6b-b367fc562b94" d="M180.67,48.55a2.61,2.61,0,1,0,5.22,0c0-1.44-2.61-6.59-2.61-6.59S180.67,47.11,180.67,48.55Z"/><path class="e1cac2a3-39cd-4230-91b2-dca8e0b7b8fa" d="M181.69,49a1.6,1.6,0,0,0,3.19,0c0-.88-1.6-4-1.6-4S181.69,48.16,181.69,49Z"/><path class="a07b281e-b8c6-4279-b6da-56c135fc3f82" d="M186.26,75.62V71.48a57,57,0,0,1-5.95,4.09v3.87A61.28,61.28,0,0,0,186.26,75.62Z"/><path class="a07b281e-b8c6-4279-b6da-56c135fc3f82" d="M186.26,57.81a57,57,0,0,1-5.95,4.09v3.87a59.54,59.54,0,0,0,5.95-3.83Z"/><path class="a07b281e-b8c6-4279-b6da-56c135fc3f82" d="M186.26,89.29V85.15a55.55,55.55,0,0,1-5.95,4.09v3.87A59.44,59.44,0,0,0,186.26,89.29Z"/><path class="a07b281e-b8c6-4279-b6da-56c135fc3f82" d="M186.26,103V98.83a55.46,55.46,0,0,1-5.95,4.08v3.87A57.71,57.71,0,0,0,186.26,103Z"/></g></svg>