<svg xmlns="http://www.w3.org/2000/svg" viewBox="0 0 260.48 260.48"><defs><style>.b6201bf8-08f7-44ed-a1dd-ea57fe24780e{fill:#ffffe4;}.ab8cf267-27fb-4dbd-8205-8f50f4c6f4b8{fill:#6d2f1d;}.b4c38be7-99e2-4b9b-a3ca-b536c4fd9410{fill:#df8435;}.bcc7f9bb-850b-4549-9e4a-5c48a9c9a17d{fill:#863e2d;}.f5b798cf-1dd4-4bbd-809e-c80c8141a39c{fill:#e78100;}.e7e3fe0e-1f70-4e01-b8e3-104ae98b7335{fill:#ffa100;}.f77ce2fe-2e2d-4668-9d19-9adf31f566cb{fill:#ffda2e;}.f4aca40e-f7ef-4dca-a574-6f73d36249c2{fill:#ff8e89;}.be388bf7-ec96-426a-a533-8a2dd0ad7831{fill:#ffd2d4;}.b66bfe53-3f9a-4aad-8894-c7e83e239adf{fill:#ffc700;}.fbf28276-8878-4bf1-b1f9-26c0ced6d5fe{fill:#ff9e00;}.a35f691b-5f64-4c56-94ae-6807057b45c4{fill:#fff7f9;}.a01b802a-f099-4b89-971e-3267fa85b6e4{fill:#ffbd20;}.b4679029-87ae-4837-97ac-5d03288995a2{fill:#ff313e;}</style></defs><title>cakes_</title><g id="f53948a4-fcda-4d8d-8b70-8dc6f6b4da38" data-name="OBJECTS"><path class="b6201bf8-08f7-44ed-a1dd-ea57fe24780e" d="M200.71,117.94c0,12.54-32.54,22.7-72.67,22.7s-72.68-10.16-72.68-22.7v15.95c0,12.54,32.54,22.71,72.68,22.71s72.67-10.17,72.67-22.71Z"/><path class="ab8cf267-27fb-4dbd-8205-8f50f4c6f4b8" d="M55.36,84c0,12.53,32.54,22.7,72.68,22.7S200.71,96.49,200.71,84v34c0,12.54-32.54,22.7-72.67,22.7s-72.68-10.16-72.68-22.7Z"/><path class="b4c38be7-99e2-4b9b-a3ca-b536c4fd9410" d="M128,247.41c-39.6,0-82.22-9.21-82.22-29.41S88.44,188.59,128,188.59s82.21,9.2,82.21,29.41S167.63,247.41,128,247.41Z"/><path class="b6201bf8-08f7-44ed-a1dd-ea57fe24780e" d="M55.36,167.84c0,12.54,32.54,22.7,72.68,22.7s72.67-10.16,72.67-22.7v16c0,12.53-32.54,22.7-72.67,22.7s-72.68-10.17-72.68-22.7Z"/><path class="ab8cf267-27fb-4dbd-8205-8f50f4c6f4b8" d="M55.36,133.86c0,12.54,32.54,22.7,72.68,22.7s72.67-10.16,72.67-22.7v34c0,12.54-32.54,22.7-72.67,22.7s-72.68-10.16-72.68-22.7Z"/><path class="ab8cf267-27fb-4dbd-8205-8f50f4c6f4b8" d="M55.36,183.76c0,12.54,32.54,22.7,72.68,22.7s72.67-10.16,72.67-22.7v34c0,12.54-32.54,22.71-72.67,22.71s-72.68-10.17-72.68-22.71Z"/><ellipse class="bcc7f9bb-850b-4549-9e4a-5c48a9c9a17d" cx="128.04" cy="83.96" rx="72.67" ry="22.7"/><path class="ab8cf267-27fb-4dbd-8205-8f50f4c6f4b8" d="M133.59,96.37s10.95,2.39,7.46-9.67l11.88,5.14s11.87-10,8-15.69S126.3,70.5,126.3,70.5s-11.22-3.67-20.42-3.25l4.35,10.56Z"/><path class="ab8cf267-27fb-4dbd-8205-8f50f4c6f4b8" d="M132.89,78.71l16.46-16.46c-1.8-.17-3.64-.32-5.5-.45L127,78.71Z"/><path class="bcc7f9bb-850b-4549-9e4a-5c48a9c9a17d" d="M83.77,167.27a1.61,1.61,0,1,1-1.61-1.6A1.61,1.61,0,0,1,83.77,167.27Z"/><path class="bcc7f9bb-850b-4549-9e4a-5c48a9c9a17d" d="M179.84,168a1.38,1.38,0,1,1-1.38-1.38A1.38,1.38,0,0,1,179.84,168Z"/><path class="bcc7f9bb-850b-4549-9e4a-5c48a9c9a17d" d="M181.59,159.85a1.47,1.47,0,1,1-1.47-1.48A1.47,1.47,0,0,1,181.59,159.85Z"/><path class="bcc7f9bb-850b-4549-9e4a-5c48a9c9a17d" d="M184.5,162.77a.58.58,0,0,1-.57.57.57.57,0,0,1,0-1.14A.58.58,0,0,1,184.5,162.77Z"/><circle class="bcc7f9bb-850b-4549-9e4a-5c48a9c9a17d" cx="189.61" cy="161.43" r="1.58"/><path class="bcc7f9bb-850b-4549-9e4a-5c48a9c9a17d" d="M77.69,160.64a.8.8,0,1,1-.79-.79A.8.8,0,0,1,77.69,160.64Z"/><path class="bcc7f9bb-850b-4549-9e4a-5c48a9c9a17d" d="M80.72,117.06a1.15,1.15,0,1,1-1.15-1.14A1.15,1.15,0,0,1,80.72,117.06Z"/><path class="bcc7f9bb-850b-4549-9e4a-5c48a9c9a17d" d="M73.34,108.59a.95.95,0,1,1-.94-1A.94.94,0,0,1,73.34,108.59Z"/><circle class="bcc7f9bb-850b-4549-9e4a-5c48a9c9a17d" cx="81.93" cy="106.53" r="1.67"/><path class="bcc7f9bb-850b-4549-9e4a-5c48a9c9a17d" d="M144.28,217.47a2,2,0,1,1,2.05-2.05A2.05,2.05,0,0,1,144.28,217.47Z"/><path class="bcc7f9bb-850b-4549-9e4a-5c48a9c9a17d" d="M150.72,219.28a.93.93,0,1,0,.93-.93A.93.93,0,0,0,150.72,219.28Z"/><path class="bcc7f9bb-850b-4549-9e4a-5c48a9c9a17d" d="M136.94,225.68a2,2,0,1,1-2-2A2,2,0,0,1,136.94,225.68Z"/><path class="bcc7f9bb-850b-4549-9e4a-5c48a9c9a17d" d="M189.61,211.48a2,2,0,1,1-2-2A2,2,0,0,1,189.61,211.48Z"/><circle class="bcc7f9bb-850b-4549-9e4a-5c48a9c9a17d" cx="72.52" cy="213.17" r="1.07"/><path class="f5b798cf-1dd4-4bbd-809e-c80c8141a39c" d="M116.21,64.28s14.34-12.47,31.23,2.65c12.18,10.9,5.49,24.91,5.49,24.91L130,68Z"/><path class="e7e3fe0e-1f70-4e01-b8e3-104ae98b7335" d="M116.21,64.28l36.72,27.56A28,28,0,0,0,141,65.57C126.32,55,116.21,64.28,116.21,64.28Z"/><path class="f77ce2fe-2e2d-4668-9d19-9adf31f566cb" d="M141.69,70.19c-1.38.13-1.95,1.23-2.74,2.28a16.45,16.45,0,0,0-2.62,4,.79.79,0,0,0,1.15.88,17.71,17.71,0,0,0,3.06-3.23c.83-.94,2-1.8,1.89-3.14A.75.75,0,0,0,141.69,70.19Z"/><path class="f77ce2fe-2e2d-4668-9d19-9adf31f566cb" d="M135.29,66.66c-.17-1.14-2-1.09-2.24,0-.57,2.75-.08,6.41.52,9.15.22,1,1.7.73,1.75-.24.07-1.54,0-3.09,0-4.63A25.47,25.47,0,0,0,135.29,66.66Z"/><path class="f77ce2fe-2e2d-4668-9d19-9adf31f566cb" d="M148.87,80.61a14.59,14.59,0,0,0-3.64-.9,14.77,14.77,0,0,0-3.6-.57.87.87,0,0,0-.44,1.61,14.54,14.54,0,0,0,3.37,1.37,14.53,14.53,0,0,0,3.62,1A1.38,1.38,0,0,0,148.87,80.61Z"/><path class="f4aca40e-f7ef-4dca-a574-6f73d36249c2" d="M127,19.92c0,.51,1.33.93,3,.93s3-.42,3-.93V78.71c0,.51-1.33.93-3,.93s-3-.42-3-.93Z"/><path class="be388bf7-ec96-426a-a533-8a2dd0ad7831" d="M132.89,19.92c0,.51-1.33.93-3,.93s-3-.42-3-.93,1.33-.93,3-.93S132.89,19.41,132.89,19.92Z"/><path class="b66bfe53-3f9a-4aad-8894-c7e83e239adf" d="M127.31,15.28a2.61,2.61,0,0,0,5.22,0c0-1.44-2.61-6.59-2.61-6.59S127.31,13.84,127.31,15.28Z"/><path class="fbf28276-8878-4bf1-b1f9-26c0ced6d5fe" d="M128.33,15.77a1.59,1.59,0,1,0,3.18,0c0-.88-1.59-4-1.59-4S128.33,14.89,128.33,15.77Z"/><path class="a35f691b-5f64-4c56-94ae-6807057b45c4" d="M132.89,42.34V38.2A55.43,55.43,0,0,1,127,42.29v3.87A59.94,59.94,0,0,0,132.89,42.34Z"/><path class="a35f691b-5f64-4c56-94ae-6807057b45c4" d="M132.89,24.53A55.43,55.43,0,0,1,127,28.62v3.87a58.18,58.18,0,0,0,5.94-3.82Z"/><path class="a35f691b-5f64-4c56-94ae-6807057b45c4" d="M132.89,56V51.87A55.43,55.43,0,0,1,127,56v3.87A59.94,59.94,0,0,0,132.89,56Z"/><path class="a35f691b-5f64-4c56-94ae-6807057b45c4" d="M132.89,69.68V65.54A56.92,56.92,0,0,1,127,69.63V73.5A59.94,59.94,0,0,0,132.89,69.68Z"/><path class="f5b798cf-1dd4-4bbd-809e-c80c8141a39c" d="M102,53s17.16-8.16,29.38,10.93c8.8,13.77-1.4,25.47-1.4,25.47L114.28,60.22Z"/><path class="a01b802a-f099-4b89-971e-3267fa85b6e4" d="M102,53l28,36.4a28,28,0,0,0-4.43-28.5C114.18,46.76,102,53,102,53Z"/><path class="e7e3fe0e-1f70-4e01-b8e3-104ae98b7335" d="M117.33,57.7a12.47,12.47,0,0,0-2.24,6,.78.78,0,0,0,1.33.55A11.51,11.51,0,0,0,118,61.52a18.69,18.69,0,0,0,1.4-3C119.72,57.26,118,56.75,117.33,57.7Z"/><path class="e7e3fe0e-1f70-4e01-b8e3-104ae98b7335" d="M122.31,64.5c-1.84.21-3.44,1.41-5.16,2.08-1,.37-.55,1.92.43,1.56,1.68-.62,3.76-.77,5.23-1.8C123.52,65.84,123.38,64.38,122.31,64.5Z"/><path class="e7e3fe0e-1f70-4e01-b8e3-104ae98b7335" d="M127.08,70.82c0-.1-.07-.21-.1-.31a1.51,1.51,0,0,0-1-1.05,25.25,25.25,0,0,0-6.54-.62,1.14,1.14,0,0,0,0,2.28,33.41,33.41,0,0,1,4.54.89c1.17.31,1.89.61,2.89-.24A1,1,0,0,0,127.08,70.82Z"/><path class="e7e3fe0e-1f70-4e01-b8e3-104ae98b7335" d="M91.59,77.81s11.16-15.39,31-4.47c14.33,7.87,11,23,11,23L105.88,78.26Z"/><path class="f77ce2fe-2e2d-4668-9d19-9adf31f566cb" d="M91.59,77.81l42,18.56a28,28,0,0,0-17.54-22.91C99.34,66.49,91.59,77.81,91.59,77.81Z"/><path class="e7e3fe0e-1f70-4e01-b8e3-104ae98b7335" d="M106.05,78.07a4.4,4.4,0,0,0-1-2.56,1,1,0,0,0-1.65.43c-.61,1.67.57,4.27,1.46,5.71.46.76,1.92.52,1.81-.49S106.26,79.1,106.05,78.07Z"/><path class="e7e3fe0e-1f70-4e01-b8e3-104ae98b7335" d="M113.34,76.9c-1.47,1.61-2.3,4.32-3.08,6.36-.42,1.09,1.27,1.73,1.84.77,1.06-1.76,2.69-4,3-6.09C115.29,77,114.13,76,113.34,76.9Z"/><path class="e7e3fe0e-1f70-4e01-b8e3-104ae98b7335" d="M124.91,82c-1.18-.93-2.21-.49-3.43.2-1.51.85-3,1.79-4.5,2.69a.78.78,0,0,0,.38,1.44,11.55,11.55,0,0,0,4-1.12c1.11-.49,2.81-.8,3.57-1.76A1,1,0,0,0,124.91,82Z"/><path class="b4679029-87ae-4837-97ac-5d03288995a2" d="M128,141.28s50.48,1.06,72.67-17.39v-8.56s-7.18-.68-12.35,3.15-10.59,14-10.59,14-7.15-4.95-15.23-4.16S146,137.71,146,137.71s-10.59-6.23-17.92-6.23-17.93,6.23-17.93,6.23-8.49-8.63-16.58-9.42-15.22,4.16-15.22,4.16-5.43-10.13-10.6-14-12.35-3.15-12.35-3.15v8.56C77.55,142.34,128,141.28,128,141.28Z"/><path class="f4aca40e-f7ef-4dca-a574-6f73d36249c2" d="M65.64,124c-3.47-2-6.9-1.74-10.28-.36v.24c.71.59,1.45,1.15,2.21,1.7q4.68-.68,9.37,4.3c.16.4.26.81.4,1.21,1.43.63,2.91,1.22,4.41,1.78C69.66,129.74,69.56,126.24,65.64,124Z"/><path class="f4aca40e-f7ef-4dca-a574-6f73d36249c2" d="M92.38,133c-3.34,0-7.55,2-11.47,2.81,2.86.77,5.75,1.43,8.63,2a12.93,12.93,0,0,1,9,1.51c2,.29,4,.53,5.93.74C100.55,136.84,98.19,132.91,92.38,133Z"/><path class="f4aca40e-f7ef-4dca-a574-6f73d36249c2" d="M160.58,132.8c-4.84.9-6.88,5.06-10.31,7.38q3-.3,6.17-.73c3.88-2.39,7.1-2.54,10.15-1.68,2.17-.43,4.35-.91,6.52-1.45C169.14,134.1,164.82,132,160.58,132.8Z"/><path class="f4aca40e-f7ef-4dca-a574-6f73d36249c2" d="M185.87,132.3a58.8,58.8,0,0,0,12.38-6.53,8.85,8.85,0,0,0-8.58.85A11.19,11.19,0,0,0,185.87,132.3Z"/><path class="f4aca40e-f7ef-4dca-a574-6f73d36249c2" d="M116.46,141c3,.16,5.58.23,7.52.26a14.16,14.16,0,0,1,8.74,0c2.13,0,4.9-.13,8.11-.32-4.17-1.4-8.38-4.06-12.93-3.86C124.19,137.23,120.31,139.47,116.46,141Z"/><path class="b4679029-87ae-4837-97ac-5d03288995a2" d="M128,191.12s50.48,1.06,72.67-17.39v-8.56s-7.18-.68-12.35,3.15-10.59,14-10.59,14-7.15-4.95-15.23-4.16S146,187.55,146,187.55s-10.59-6.24-17.92-6.24-17.93,6.24-17.93,6.24-8.49-8.63-16.58-9.42-15.22,4.16-15.22,4.16-5.43-10.14-10.6-14-12.35-3.15-12.35-3.15v8.56C77.55,192.18,128,191.12,128,191.12Z"/><path class="f4aca40e-f7ef-4dca-a574-6f73d36249c2" d="M65.64,173.85a11.14,11.14,0,0,0-10.28-.36v.24c.71.59,1.45,1.15,2.21,1.7q4.68-.69,9.37,4.3c.16.4.26.8.4,1.2,1.43.64,2.91,1.23,4.41,1.79C69.66,179.57,69.56,176.07,65.64,173.85Z"/><path class="f4aca40e-f7ef-4dca-a574-6f73d36249c2" d="M92.38,182.81c-3.34,0-7.55,2-11.47,2.82,2.86.76,5.75,1.42,8.63,2a12.87,12.87,0,0,1,9,1.51c2,.29,4,.53,5.93.74C100.55,186.68,98.19,182.75,92.38,182.81Z"/><path class="f4aca40e-f7ef-4dca-a574-6f73d36249c2" d="M160.58,182.63c-4.84.91-6.88,5.07-10.31,7.39,2-.2,4-.45,6.17-.73,3.88-2.39,7.1-2.54,10.15-1.68,2.17-.43,4.35-.91,6.52-1.45C169.14,183.94,164.82,181.84,160.58,182.63Z"/><path class="f4aca40e-f7ef-4dca-a574-6f73d36249c2" d="M185.87,182.14a58.83,58.83,0,0,0,12.38-6.54,8.88,8.88,0,0,0-8.58.86A11.15,11.15,0,0,0,185.87,182.14Z"/><path class="f4aca40e-f7ef-4dca-a574-6f73d36249c2" d="M116.46,190.84c3,.16,5.58.24,7.52.27a14,14,0,0,1,8.74,0c2.13,0,4.9-.13,8.11-.32-4.17-1.4-8.38-4.06-12.93-3.87C124.19,187.07,120.31,189.31,116.46,190.84Z"/></g></svg>