<svg xmlns="http://www.w3.org/2000/svg" viewBox="0 0 260.48 260.48"><defs><style>.e15c246c-935e-4253-8cc7-d84e72a337bb{fill:#ffc700;}.fefd50a8-7c03-4940-aef9-0a32cacfd463{fill:#d0313e;}.ad13e2e1-cbf0-4a20-a3b6-c70fcc4a1135{fill:#ffffe4;}.a93a1e0a-19d6-42bf-9ff1-783f4b990e35{fill:#ff313e;}.b1e17ec3-274b-435d-bbd5-88d574d99907{fill:#ff9e00;}.bd3776b2-947e-46e2-8307-1d942d41dcfd{fill:#a9313e;}</style></defs><title>cakes_</title><g id="ac8cefdb-91b7-4fba-a7fe-cc0c9742ba61" data-name="OBJECTS"><ellipse class="e15c246c-935e-4253-8cc7-d84e72a337bb" cx="133.22" cy="195.26" rx="103.29" ry="38.86" transform="translate(-4.22 2.95) rotate(-1.25)"/><path class="fefd50a8-7c03-4940-aef9-0a32cacfd463" d="M48.6,139.84c.32,14.38,37.89,25.23,83.94,24.23s83.11-13.48,82.79-27.86l1.21,55.28c.31,14.38-36.76,26.85-82.8,27.86s-83.62-9.84-83.93-24.23Z"/><path class="ad13e2e1-cbf0-4a20-a3b6-c70fcc4a1135" d="M133.18,193.8c-46,1-83.61-9.84-83.93-24.23l.09,3.88c.31,14.39,37.89,25.23,83.93,24.23s83.11-13.48,82.8-27.86l-.09-3.88C216.29,180.32,179.22,192.8,133.18,193.8Z"/><path class="ad13e2e1-cbf0-4a20-a3b6-c70fcc4a1135" d="M132.86,179.13c-46,1-83.61-9.85-83.93-24.23l.09,3.88C49.33,173.16,86.91,184,133,183s83.11-13.48,82.8-27.86l-.09-3.88C216,165.65,178.9,178.12,132.86,179.13Z"/><ellipse class="a93a1e0a-19d6-42bf-9ff1-783f4b990e35" cx="131.97" cy="138.03" rx="83.38" ry="26.05" transform="translate(-2.98 2.91) rotate(-1.25)"/><path class="fefd50a8-7c03-4940-aef9-0a32cacfd463" d="M66.66,100.36c.24,11.12,29.3,19.5,64.9,18.73s64.26-10.42,64-21.54l.72,33.12c.25,11.12-28.41,20.76-64,21.54s-64.66-7.61-64.9-18.73Z"/><path class="ad13e2e1-cbf0-4a20-a3b6-c70fcc4a1135" d="M132.09,143.6c-35.6.78-64.65-7.61-64.9-18.73l.08,3.42c.24,11.12,29.3,19.51,64.89,18.73s64.26-10.42,64-21.54l-.07-3.42C196.35,133.18,167.69,142.82,132.09,143.6Z"/><path class="ad13e2e1-cbf0-4a20-a3b6-c70fcc4a1135" d="M131.89,134.55c-35.6.77-64.65-7.61-64.89-18.73l.07,3.42c.24,11.12,29.3,19.51,64.9,18.73s64.26-10.42,64-21.54l-.07-3.42C196.15,124.13,167.49,133.77,131.89,134.55Z"/><path class="ad13e2e1-cbf0-4a20-a3b6-c70fcc4a1135" d="M131.7,125.5c-35.6.77-64.66-7.61-64.9-18.73l.07,3.42c.25,11.12,29.3,19.5,64.9,18.73s64.26-10.42,64-21.54l-.08-3.42C196,115.08,167.29,124.72,131.7,125.5Z"/><ellipse class="a93a1e0a-19d6-42bf-9ff1-783f4b990e35" cx="131.12" cy="98.95" rx="64.47" ry="20.14" transform="translate(-2.12 2.88) rotate(-1.25)"/><path class="fefd50a8-7c03-4940-aef9-0a32cacfd463" d="M173.74,60.92c.17,7.49-19.15,14-43.14,14.51S87,70.31,86.87,62.81l.74,33.64c.16,7.49,19.74,13.14,43.73,12.62s43.3-7,43.14-14.52Z"/><ellipse class="a93a1e0a-19d6-42bf-9ff1-783f4b990e35" cx="130.31" cy="61.87" rx="43.45" ry="13.57" transform="translate(-1.32 2.85) rotate(-1.25)"/><path class="ad13e2e1-cbf0-4a20-a3b6-c70fcc4a1135" d="M105.47,104.7a7,7,0,1,1-7.13-6.82A7,7,0,0,1,105.47,104.7Z"/><circle class="ad13e2e1-cbf0-4a20-a3b6-c70fcc4a1135" cx="111.57" cy="107.67" r="6.97"/><path class="ad13e2e1-cbf0-4a20-a3b6-c70fcc4a1135" d="M131.71,109.07a7,7,0,1,1-7.12-6.81A7,7,0,0,1,131.71,109.07Z"/><path class="ad13e2e1-cbf0-4a20-a3b6-c70fcc4a1135" d="M167.2,95.53A7,7,0,1,0,174,88.41,7,7,0,0,0,167.2,95.53Z"/><path class="ad13e2e1-cbf0-4a20-a3b6-c70fcc4a1135" d="M157,103.57a7,7,0,1,0,6.82-7.12A7,7,0,0,0,157,103.57Z"/><path class="ad13e2e1-cbf0-4a20-a3b6-c70fcc4a1135" d="M144.05,107a7,7,0,1,0,6.82-7.12A7,7,0,0,0,144.05,107Z"/><path class="ad13e2e1-cbf0-4a20-a3b6-c70fcc4a1135" d="M131,109.09a7,7,0,1,0,6.81-7.12A7,7,0,0,0,131,109.09Z"/><path class="ad13e2e1-cbf0-4a20-a3b6-c70fcc4a1135" d="M94.92,97.11a7,7,0,1,1-7.12-6.82A7,7,0,0,1,94.92,97.11Z"/><path class="ad13e2e1-cbf0-4a20-a3b6-c70fcc4a1135" d="M104.78,73.19a7,7,0,1,1-7.12-6.82A7,7,0,0,1,104.78,73.19Z"/><circle class="ad13e2e1-cbf0-4a20-a3b6-c70fcc4a1135" cx="110.89" cy="76.16" r="6.97"/><circle class="ad13e2e1-cbf0-4a20-a3b6-c70fcc4a1135" cx="124.05" cy="77.72" r="6.97"/><path class="ad13e2e1-cbf0-4a20-a3b6-c70fcc4a1135" d="M166.51,64a7,7,0,1,0,6.82-7.12A7,7,0,0,0,166.51,64Z"/><path class="ad13e2e1-cbf0-4a20-a3b6-c70fcc4a1135" d="M156.31,72.06a7,7,0,1,0,6.81-7.12A7,7,0,0,0,156.31,72.06Z"/><path class="ad13e2e1-cbf0-4a20-a3b6-c70fcc4a1135" d="M143.37,75.45a7,7,0,1,0,6.81-7.12A7,7,0,0,0,143.37,75.45Z"/><path class="ad13e2e1-cbf0-4a20-a3b6-c70fcc4a1135" d="M130.28,77.58a7,7,0,1,0,6.82-7.12A7,7,0,0,0,130.28,77.58Z"/><path class="ad13e2e1-cbf0-4a20-a3b6-c70fcc4a1135" d="M94.23,65.6a7,7,0,1,1-7.12-6.82A7,7,0,0,1,94.23,65.6Z"/><path class="ad13e2e1-cbf0-4a20-a3b6-c70fcc4a1135" d="M123.05,48.61a7,7,0,1,1,7.12,6.82A7,7,0,0,1,123.05,48.61Z"/><path class="ad13e2e1-cbf0-4a20-a3b6-c70fcc4a1135" d="M110.31,49.76a7,7,0,1,1,7.12,6.82A7,7,0,0,1,110.31,49.76Z"/><circle class="ad13e2e1-cbf0-4a20-a3b6-c70fcc4a1135" cx="105.79" cy="51.4" r="6.97"/><path class="ad13e2e1-cbf0-4a20-a3b6-c70fcc4a1135" d="M86.41,55.79a7,7,0,1,1,7.12,6.82A7,7,0,0,1,86.41,55.79Z"/><path class="ad13e2e1-cbf0-4a20-a3b6-c70fcc4a1135" d="M149.76,48.9A7,7,0,1,0,142.94,56,7,7,0,0,0,149.76,48.9Z"/><path class="ad13e2e1-cbf0-4a20-a3b6-c70fcc4a1135" d="M161.32,50.19a7,7,0,1,0-6.82,7.12A7,7,0,0,0,161.32,50.19Z"/><path class="ad13e2e1-cbf0-4a20-a3b6-c70fcc4a1135" d="M173.9,53.89A7,7,0,1,0,167.08,61,7,7,0,0,0,173.9,53.89Z"/><circle class="ad13e2e1-cbf0-4a20-a3b6-c70fcc4a1135" cx="114" cy="219.06" r="6.97"/><path class="ad13e2e1-cbf0-4a20-a3b6-c70fcc4a1135" d="M107.87,218.25a7,7,0,1,1-7.12-6.82A7,7,0,0,1,107.87,218.25Z"/><path class="ad13e2e1-cbf0-4a20-a3b6-c70fcc4a1135" d="M94.41,216.28a7,7,0,1,1-7.12-6.82A7,7,0,0,1,94.41,216.28Z"/><path class="ad13e2e1-cbf0-4a20-a3b6-c70fcc4a1135" d="M82.22,212.78A7,7,0,1,1,75.1,206,7,7,0,0,1,82.22,212.78Z"/><circle class="ad13e2e1-cbf0-4a20-a3b6-c70fcc4a1135" cx="63.03" cy="208.53" r="6.97"/><path class="ad13e2e1-cbf0-4a20-a3b6-c70fcc4a1135" d="M59.63,200.27a7,7,0,1,1-7.12-6.82A7,7,0,0,1,59.63,200.27Z"/><path class="ad13e2e1-cbf0-4a20-a3b6-c70fcc4a1135" d="M55.15,192.55A7,7,0,1,1,48,185.74,7,7,0,0,1,55.15,192.55Z"/><path class="ad13e2e1-cbf0-4a20-a3b6-c70fcc4a1135" d="M134.12,219.75a7,7,0,1,1-7.12-6.82A7,7,0,0,1,134.12,219.75Z"/><path class="e15c246c-935e-4253-8cc7-d84e72a337bb" d="M127.59,26.18c0,.32.86.57,1.9.55s1.88-.31,1.87-.63l.81,37.22c0,.32-.83.61-1.87.63s-1.89-.22-1.89-.55Z"/><path class="ad13e2e1-cbf0-4a20-a3b6-c70fcc4a1135" d="M131.36,26.1c0,.32-.83.6-1.87.63s-1.89-.23-1.9-.55.83-.61,1.87-.63S131.35,25.77,131.36,26.1Z"/><path class="e15c246c-935e-4253-8cc7-d84e72a337bb" d="M127.76,23.23a1.65,1.65,0,1,0,3.3-.07c0-.91-1.74-4.13-1.74-4.13S127.74,22.32,127.76,23.23Z"/><path class="b1e17ec3-274b-435d-bbd5-88d574d99907" d="M128.41,23.53a1,1,0,0,0,2,0A11.84,11.84,0,0,0,129.36,21,12.3,12.3,0,0,0,128.41,23.53Z"/><path class="ad13e2e1-cbf0-4a20-a3b6-c70fcc4a1135" d="M131.67,40.29l-.06-2.62a32.25,32.25,0,0,1-3.71,2.67l.06,2.45A36.49,36.49,0,0,0,131.67,40.29Z"/><path class="ad13e2e1-cbf0-4a20-a3b6-c70fcc4a1135" d="M131.42,29a35.79,35.79,0,0,1-3.7,2.67l0,2.45a38.22,38.22,0,0,0,3.71-2.5Z"/><path class="ad13e2e1-cbf0-4a20-a3b6-c70fcc4a1135" d="M131.86,49l-.06-2.62A34.87,34.87,0,0,1,128.09,49l.06,2.45A38.22,38.22,0,0,0,131.86,49Z"/><path class="ad13e2e1-cbf0-4a20-a3b6-c70fcc4a1135" d="M132.05,57.6,132,55a35.5,35.5,0,0,1-3.71,2.67l.05,2.45A35.54,35.54,0,0,0,132.05,57.6Z"/><path class="e15c246c-935e-4253-8cc7-d84e72a337bb" d="M110.33,26.56c0,.32.86.57,1.9.54s1.87-.3,1.87-.63l.81,37.23c0,.32-.83.6-1.87.63s-1.89-.23-1.9-.55Z"/><path class="ad13e2e1-cbf0-4a20-a3b6-c70fcc4a1135" d="M114.1,26.47c0,.33-.83.61-1.87.63s-1.89-.22-1.9-.54.83-.61,1.87-.63S114.09,26.15,114.1,26.47Z"/><path class="e15c246c-935e-4253-8cc7-d84e72a337bb" d="M110.5,23.61a1.65,1.65,0,1,0,3.3-.07c0-.91-1.74-4.13-1.74-4.13S110.48,22.7,110.5,23.61Z"/><path class="b1e17ec3-274b-435d-bbd5-88d574d99907" d="M111.15,23.91a1,1,0,0,0,1,1,1,1,0,0,0,1-1,12.38,12.38,0,0,0-1.07-2.53A12.08,12.08,0,0,0,111.15,23.91Z"/><path class="ad13e2e1-cbf0-4a20-a3b6-c70fcc4a1135" d="M114.41,40.67l-.06-2.62a37,37,0,0,1-3.71,2.67l0,2.45A37.18,37.18,0,0,0,114.41,40.67Z"/><path class="ad13e2e1-cbf0-4a20-a3b6-c70fcc4a1135" d="M114.16,29.4a34.87,34.87,0,0,1-3.71,2.67l.06,2.45A38.32,38.32,0,0,0,114.22,32Z"/><path class="ad13e2e1-cbf0-4a20-a3b6-c70fcc4a1135" d="M114.6,49.32l-.06-2.62a34.09,34.09,0,0,1-3.71,2.67l0,2.45A36.63,36.63,0,0,0,114.6,49.32Z"/><path class="ad13e2e1-cbf0-4a20-a3b6-c70fcc4a1135" d="M114.78,58l0-2.62A37,37,0,0,1,111,58l0,2.45A37,37,0,0,0,114.78,58Z"/><path class="e15c246c-935e-4253-8cc7-d84e72a337bb" d="M145,25.8c0,.33.86.57,1.9.55s1.87-.31,1.87-.63l.81,37.22c0,.33-.83.61-1.87.63s-1.89-.22-1.9-.55Z"/><ellipse class="ad13e2e1-cbf0-4a20-a3b6-c70fcc4a1135" cx="146.84" cy="25.76" rx="1.88" ry="0.59" transform="translate(-0.53 3.21) rotate(-1.25)"/><path class="e15c246c-935e-4253-8cc7-d84e72a337bb" d="M145.13,22.86a1.65,1.65,0,1,0,3.3-.08c0-.91-1.74-4.13-1.74-4.13S145.11,21.94,145.13,22.86Z"/><path class="b1e17ec3-274b-435d-bbd5-88d574d99907" d="M145.78,23.15a1,1,0,0,0,2,0,12.38,12.38,0,0,0-1.07-2.53A12.3,12.3,0,0,0,145.78,23.15Z"/><path class="ad13e2e1-cbf0-4a20-a3b6-c70fcc4a1135" d="M149,39.91,149,37.3A37,37,0,0,1,145.27,40l0,2.45A37.27,37.27,0,0,0,149,39.91Z"/><path class="ad13e2e1-cbf0-4a20-a3b6-c70fcc4a1135" d="M148.79,28.64a33.51,33.51,0,0,1-3.71,2.67l.06,2.45a36.49,36.49,0,0,0,3.71-2.5Z"/><path class="ad13e2e1-cbf0-4a20-a3b6-c70fcc4a1135" d="M149.23,48.57,149.17,46a37,37,0,0,1-3.71,2.67l0,2.45A38.36,38.36,0,0,0,149.23,48.57Z"/><path class="ad13e2e1-cbf0-4a20-a3b6-c70fcc4a1135" d="M149.41,57.22l0-2.62a34.09,34.09,0,0,1-3.71,2.67l0,2.45A35.41,35.41,0,0,0,149.41,57.22Z"/><path class="bd3776b2-947e-46e2-8307-1d942d41dcfd" d="M202,159.29a.52.52,0,0,0,0,1A.52.52,0,0,0,202,159.29Z"/><path class="bd3776b2-947e-46e2-8307-1d942d41dcfd" d="M195.29,178.37a.52.52,0,0,0,0,1A.52.52,0,0,0,195.29,178.37Z"/><path class="bd3776b2-947e-46e2-8307-1d942d41dcfd" d="M199,175.18a1,1,0,0,0,0,2.08A1,1,0,0,0,199,175.18Z"/><path class="bd3776b2-947e-46e2-8307-1d942d41dcfd" d="M202.39,176.79a1,1,0,0,0,0,2.08A1,1,0,0,0,202.39,176.79Z"/><path class="bd3776b2-947e-46e2-8307-1d942d41dcfd" d="M184.29,197.56a1,1,0,0,0,0,2.07A1,1,0,0,0,184.29,197.56Z"/><path class="bd3776b2-947e-46e2-8307-1d942d41dcfd" d="M202.37,193.79a1,1,0,0,0,0,2.07A1,1,0,0,0,202.37,193.79Z"/><path class="bd3776b2-947e-46e2-8307-1d942d41dcfd" d="M84.41,198.57a1,1,0,0,0,0,2.07A1,1,0,0,0,84.41,198.57Z"/><path class="bd3776b2-947e-46e2-8307-1d942d41dcfd" d="M112,203a1,1,0,0,0,0,2.08A1,1,0,0,0,112,203Z"/><path class="bd3776b2-947e-46e2-8307-1d942d41dcfd" d="M68.52,178a1,1,0,0,0,0,2.08A1,1,0,0,0,68.52,178Z"/><path class="bd3776b2-947e-46e2-8307-1d942d41dcfd" d="M84.13,168.21H84a1,1,0,0,0,0,2.07h.13A1,1,0,0,0,84.13,168.21Z"/><path class="bd3776b2-947e-46e2-8307-1d942d41dcfd" d="M155.23,84.54a1,1,0,0,0,0,2.07A1,1,0,0,0,155.23,84.54Z"/><path class="bd3776b2-947e-46e2-8307-1d942d41dcfd" d="M141.42,93.92c-2.67.06-2.59,4.21.09,4.15S144.09,93.86,141.42,93.92Z"/><path class="bd3776b2-947e-46e2-8307-1d942d41dcfd" d="M167.4,83.75c-2.67.06-2.58,4.21.09,4.15S170.08,83.69,167.4,83.75Z"/><path class="bd3776b2-947e-46e2-8307-1d942d41dcfd" d="M185,159.92v.13c.05,2.67,4.2,2.58,4.15-.1v-.12C189.11,157.15,185,157.24,185,159.92Z"/><path class="bd3776b2-947e-46e2-8307-1d942d41dcfd" d="M138.37,204c-2.67.06-2.59,4.21.09,4.15S141,204,138.37,204Z"/><path class="bd3776b2-947e-46e2-8307-1d942d41dcfd" d="M105.28,204.08c-2.67.06-2.58,4.21.1,4.15S108,204,105.28,204.08Z"/><path class="bd3776b2-947e-46e2-8307-1d942d41dcfd" d="M79.81,166.49c-2.67.06-2.58,4.21.1,4.15S82.49,166.43,79.81,166.49Z"/><path class="bd3776b2-947e-46e2-8307-1d942d41dcfd" d="M69.91,200.05a1,1,0,0,0,0,2.07A1,1,0,0,0,69.91,200.05Z"/><path class="bd3776b2-947e-46e2-8307-1d942d41dcfd" d="M96.77,206.08a.52.52,0,0,0,0,1A.52.52,0,0,0,96.77,206.08Z"/><path class="bd3776b2-947e-46e2-8307-1d942d41dcfd" d="M75.11,164.91a.52.52,0,0,0,0,1A.52.52,0,0,0,75.11,164.91Z"/><path class="bd3776b2-947e-46e2-8307-1d942d41dcfd" d="M71.59,182.24v.13a.52.52,0,0,0,1,0v-.13A.52.52,0,0,0,71.59,182.24Z"/><path class="bd3776b2-947e-46e2-8307-1d942d41dcfd" d="M184.46,164.08a.52.52,0,0,0,0,1A.52.52,0,0,0,184.46,164.08Z"/><path class="bd3776b2-947e-46e2-8307-1d942d41dcfd" d="M193.31,165.05a.52.52,0,0,0,0,1A.52.52,0,0,0,193.31,165.05Z"/><path class="bd3776b2-947e-46e2-8307-1d942d41dcfd" d="M146.18,92.13a.52.52,0,0,0,0,1A.52.52,0,0,0,146.18,92.13Z"/><path class="bd3776b2-947e-46e2-8307-1d942d41dcfd" d="M147.4,94.57v.13a.52.52,0,0,0,1,0v-.13A.52.52,0,0,0,147.4,94.57Z"/><path class="bd3776b2-947e-46e2-8307-1d942d41dcfd" d="M169.63,78.64a.52.52,0,0,0,0,1A.52.52,0,0,0,169.63,78.64Z"/><path class="bd3776b2-947e-46e2-8307-1d942d41dcfd" d="M108.21,94.12h-.13a.52.52,0,0,0,0,1h.13A.52.52,0,0,0,108.21,94.12Z"/><path class="bd3776b2-947e-46e2-8307-1d942d41dcfd" d="M103.94,88.64a.52.52,0,0,0,0,1A.52.52,0,0,0,103.94,88.64Z"/><path class="bd3776b2-947e-46e2-8307-1d942d41dcfd" d="M108.11,89.58a.52.52,0,0,0,0,1A.52.52,0,0,0,108.11,89.58Z"/><path class="ad13e2e1-cbf0-4a20-a3b6-c70fcc4a1135" d="M146.48,218.35a7,7,0,1,0,6.82-7.12A7,7,0,0,0,146.48,218.35Z"/><circle class="ad13e2e1-cbf0-4a20-a3b6-c70fcc4a1135" cx="166.51" cy="216.97" r="6.97"/><path class="ad13e2e1-cbf0-4a20-a3b6-c70fcc4a1135" d="M172.9,214.57a7,7,0,1,0,6.82-7.12A7,7,0,0,0,172.9,214.57Z"/><path class="ad13e2e1-cbf0-4a20-a3b6-c70fcc4a1135" d="M184.92,210.54a7,7,0,1,0,6.82-7.12A7,7,0,0,0,184.92,210.54Z"/><path class="ad13e2e1-cbf0-4a20-a3b6-c70fcc4a1135" d="M196.94,205.61a7,7,0,1,0,6.82-7.12A7,7,0,0,0,196.94,205.61Z"/><path class="ad13e2e1-cbf0-4a20-a3b6-c70fcc4a1135" d="M207,197.06a7,7,0,1,0,6.82-7.12A7,7,0,0,0,207,197.06Z"/><path class="ad13e2e1-cbf0-4a20-a3b6-c70fcc4a1135" d="M211.09,189.15A7,7,0,1,0,217.9,182,7,7,0,0,0,211.09,189.15Z"/><path class="ad13e2e1-cbf0-4a20-a3b6-c70fcc4a1135" d="M133.38,219.76a7,7,0,1,0,6.82-7.12A7,7,0,0,0,133.38,219.76Z"/></g></svg>