<svg xmlns="http://www.w3.org/2000/svg" viewBox="0 0 495.32 543.58"><defs><style>.a656b346-2961-4f35-bbf1-294ccec55c59{isolation:isolate;}.b5b1e9e8-fd7e-4e71-9a66-d9e7ba1521b3{fill:#92311d;}.a2ef37f4-4c9d-4f03-8d87-7bb78d0d5245{fill:#ba5e28;}.f4458a7d-1c4e-45bc-aaf2-caa8bf626e86{fill:#662112;}.e237e72c-06e1-4026-bce0-02ff435b9bc6{fill:#702514;}.b9a132dd-df9b-4b1f-9012-478c8bba1e72{fill:#92278f;opacity:0.25;}.b9a132dd-df9b-4b1f-9012-478c8bba1e72,.e18a007b-be42-4556-b2b5-e9f8b76b679f{mix-blend-mode:multiply;}.b91b608e-eab8-4e31-bc4f-eea58ae9168d{fill:#ffa242;}.e18a007b-be42-4556-b2b5-e9f8b76b679f,.e32b5b65-532c-46e6-9c59-b8c29e225cc6{opacity:0.5;}.e32b5b65-532c-46e6-9c59-b8c29e225cc6{mix-blend-mode:screen;}</style></defs><title>logo</title><g class="a656b346-2961-4f35-bbf1-294ccec55c59"><g id="b49ad0f0-7a8f-408e-b342-b61453b67293" data-name="Layer 1"><polygon class="b5b1e9e8-fd7e-4e71-9a66-d9e7ba1521b3" points="85.03 156.91 85.03 337.27 406.74 295.57 415.37 283.86 415.37 103.29 85.03 156.91"/><polygon class="a2ef37f4-4c9d-4f03-8d87-7bb78d0d5245" points="85.03 229.63 85.03 285.7 415.37 240.72 415.37 182.58 85.03 229.63"/><polygon class="b5b1e9e8-fd7e-4e71-9a66-d9e7ba1521b3" points="85.03 250.6 85.03 264.74 415.37 219.76 415.37 203.55 85.03 250.6"/><path class="f4458a7d-1c4e-45bc-aaf2-caa8bf626e86" d="M266.65,30.7,89.1,142a24.64,24.64,0,0,0-11.86,21.08V332.93a9.86,9.86,0,0,0,11.3,9.76l312.24-39.1c14.59-2.06,21.05-10,21.05-23.62l.43-173.56a24.62,24.62,0,0,0-7.62-18.61c-24.33-23.06-69.4-50.36-131.35-60.38A24.54,24.54,0,0,0,266.65,30.7ZM400.78,289.41,95.22,327.65a4.05,4.05,0,0,1-4.65-4V183.7a2.47,2.47,0,0,1,2.11-2.44l43.76-6.41a2.46,2.46,0,0,1,2.82,2.44v36.25a2.46,2.46,0,0,0,2.83,2.43L170,211.86a2.47,2.47,0,0,0,2.11-2.44V177.78a2.46,2.46,0,0,1,2.1-2.44l12.63-1.86A2.47,2.47,0,0,0,189,171V159.46a2.45,2.45,0,0,1,2.1-2.44l39.07-5.76a2.42,2.42,0,0,1,2.78,2.4v67.4a2.47,2.47,0,0,0,1.45,2.25l42.92,19.41a2.44,2.44,0,0,0,2.08-2.4v-99.8a2.42,2.42,0,0,1,2.06-2.4l26-3.83a2.42,2.42,0,0,1,2.78,2.39v41.88A2.41,2.41,0,0,0,313,181l13.75-2a2.42,2.42,0,0,1,2.77,2.4v23.77a2.43,2.43,0,0,0,2.78,2.4l28.43-4.2a2.43,2.43,0,0,0,2.07-2.4V124.74a2.44,2.44,0,0,1,2.08-2.4L406.44,116a2.42,2.42,0,0,1,2.77,2.4V279.66A9.86,9.86,0,0,1,400.78,289.41Z"/><path class="e237e72c-06e1-4026-bce0-02ff435b9bc6" d="M405.7,105.46,90,157.72a1.6,1.6,0,0,1-.55-3.15L404.19,96.78a4.41,4.41,0,1,1,1.59,8.67Z"/><path class="f4458a7d-1c4e-45bc-aaf2-caa8bf626e86" d="M27.3,467.46a4.08,4.08,0,0,1-1.5-1.75,4.14,4.14,0,0,1-.36-2.17,6.78,6.78,0,0,1,.62-2.14,3.93,3.93,0,0,1,1.43-1.69,4.87,4.87,0,0,1,2.08-.79,4.31,4.31,0,0,1,2.53.57,29.22,29.22,0,0,0,11.49,2.45,12.64,12.64,0,0,0,6.18-1.33,4.33,4.33,0,0,0,2.41-4.05q0-3.58-5.25-5.32l-11.32-3.75q-6.36-2.39-9-5.26T24,434.3a13.11,13.11,0,0,1,5.49-11q5.49-4.12,14.82-4.12a38.1,38.1,0,0,1,9.09,1.14,15.78,15.78,0,0,1,7.07,3.39A4.38,4.38,0,0,1,61.75,426a4.27,4.27,0,0,1-.13,2.42,7.32,7.32,0,0,1-1.18,2,3.22,3.22,0,0,1-1.82,1.14,3.5,3.5,0,0,1-2.11-.22,25.1,25.1,0,0,0-5.68-2.4,23.78,23.78,0,0,0-6-.67,17.29,17.29,0,0,0-4.26.5,7.6,7.6,0,0,0-3.27,1.68,3.75,3.75,0,0,0-1.33,2.9,4.1,4.1,0,0,0,1.82,3.49,20.87,20.87,0,0,0,5.37,2.51,12.62,12.62,0,0,0,2.61.51,12,12,0,0,1,2.64.51q3.14,1,5.37,1.84a29.23,29.23,0,0,1,4.34,2.16,13.87,13.87,0,0,1,3.39,2.78,11.48,11.48,0,0,1,2,3.6,14.7,14.7,0,0,1-4.72,16.15q-5.49,4.22-14.86,4.21Q33.27,471.11,27.3,467.46Z"/><path class="f4458a7d-1c4e-45bc-aaf2-caa8bf626e86" d="M132.63,467.53a8.3,8.3,0,0,1-2.91,2.11,8.73,8.73,0,0,1-3.6.7,9.57,9.57,0,0,1-3.68-.75,8.47,8.47,0,0,1-3.18-2.47,11,11,0,0,1-2.13-4.26L108,431.75l-9.16,31.11a11.24,11.24,0,0,1-2.13,4.26,8.5,8.5,0,0,1-3.19,2.47,9.5,9.5,0,0,1-3.66.75,8.79,8.79,0,0,1-3.6-.7,8.28,8.28,0,0,1-2.93-2.11,7,7,0,0,1-1.67-3.24l-8.72-37a6.06,6.06,0,0,1,1.58-6A5,5,0,0,1,79.93,420c2,.68,3.35,2.53,3.94,5.55L90.78,457l8-26.31a34.47,34.47,0,0,1,1.33-4.27,15.71,15.71,0,0,1,1.72-3.24,6.52,6.52,0,0,1,2.55-2.25,9.07,9.07,0,0,1,7.13,0,6.42,6.42,0,0,1,2.55,2.27,16.94,16.94,0,0,1,1.71,3.23,41.63,41.63,0,0,1,1.34,4.26l8,26.31,7-31.52Q133,421,136.06,420a4.92,4.92,0,0,1,5.4,1.32,6.1,6.1,0,0,1,1.57,6l-8.73,37A7,7,0,0,1,132.63,467.53Z"/><path class="f4458a7d-1c4e-45bc-aaf2-caa8bf626e86" d="M157.85,469.05a5.32,5.32,0,0,1-1.91-2.08,11.7,11.7,0,0,1-1-2.78,14.74,14.74,0,0,1-.32-3.1V430.15c0-1.3,0-2.39.14-3.28a11.41,11.41,0,0,1,.61-2.67,5.72,5.72,0,0,1,1.31-2.17,6.05,6.05,0,0,1,2.29-1.31,10.84,10.84,0,0,1,3.49-.49h22a4.65,4.65,0,0,1,3.35,1.34,4.43,4.43,0,0,1,1.38,3.29,4.32,4.32,0,0,1-1.38,3.26,4.71,4.71,0,0,1-3.35,1.31H166.81V440h16.05a4.66,4.66,0,0,1,3.36,1.34,4.43,4.43,0,0,1,1.38,3.29,4.32,4.32,0,0,1-1.38,3.26,4.71,4.71,0,0,1-3.36,1.31H166.81v11.42h18.44a4.16,4.16,0,0,1,3.12,1.33,4.52,4.52,0,0,1,1.27,3.27,4.47,4.47,0,0,1-1.27,3.25,4.18,4.18,0,0,1-3.12,1.31H160.71A5.29,5.29,0,0,1,157.85,469.05Z"/><path class="f4458a7d-1c4e-45bc-aaf2-caa8bf626e86" d="M204.6,469.05a5.39,5.39,0,0,1-1.91-2.08,11.25,11.25,0,0,1-1-2.78,14.1,14.1,0,0,1-.33-3.1V430.15c0-1.3,0-2.39.14-3.28a11.41,11.41,0,0,1,.61-2.67,5.62,5.62,0,0,1,1.32-2.17,5.93,5.93,0,0,1,2.28-1.31,10.84,10.84,0,0,1,3.49-.49h22a4.67,4.67,0,0,1,3.36,1.34,4.43,4.43,0,0,1,1.38,3.29,4.32,4.32,0,0,1-1.38,3.26,4.73,4.73,0,0,1-3.36,1.31H213.56V440h16.05a4.66,4.66,0,0,1,3.36,1.34,4.43,4.43,0,0,1,1.38,3.29,4.32,4.32,0,0,1-1.38,3.26,4.71,4.71,0,0,1-3.36,1.31H213.56v11.42H232a4.14,4.14,0,0,1,3.12,1.33,4.53,4.53,0,0,1,1.28,3.27,4.48,4.48,0,0,1-1.28,3.25,4.16,4.16,0,0,1-3.12,1.31H207.46A5.29,5.29,0,0,1,204.6,469.05Z"/><path class="f4458a7d-1c4e-45bc-aaf2-caa8bf626e86" d="M259.41,467.72a7.39,7.39,0,0,1-1.82-5V429.6h-9.37a4.81,4.81,0,0,1-3.43-1.38,4.54,4.54,0,0,1,0-6.65,4.81,4.81,0,0,1,3.43-1.38h31.11a4.73,4.73,0,0,1,3.41,1.38,4.51,4.51,0,0,1,1.43,3.36,4.41,4.41,0,0,1-1.43,3.31,4.76,4.76,0,0,1-3.41,1.36h-9.17v33.12a7.27,7.27,0,0,1-1.85,5,5.77,5.77,0,0,1-4.45,2.09A5.71,5.71,0,0,1,259.41,467.72Z"/><path class="f4458a7d-1c4e-45bc-aaf2-caa8bf626e86" d="M322.2,469.42a23.26,23.26,0,0,1-7.77-4.84,21.88,21.88,0,0,1-5.26-8.06,29.89,29.89,0,0,1-1.93-11,31,31,0,0,1,1.93-11.15,23.1,23.1,0,0,1,5.31-8.33,23.87,23.87,0,0,1,8-5.13,27.11,27.11,0,0,1,10-1.8,31.78,31.78,0,0,1,8.35,1,31.27,31.27,0,0,1,5.62,2.35,5.92,5.92,0,0,1,1.74,1.71,4.89,4.89,0,0,1,.79,2,6.47,6.47,0,0,1,0,2,3.86,3.86,0,0,1-.77,1.79,5.68,5.68,0,0,1-1.38,1.3,3.31,3.31,0,0,1-1.89.53,6.2,6.2,0,0,1-2.3-.48,23.89,23.89,0,0,0-9.4-2.25,22.53,22.53,0,0,0-4,.31,10.94,10.94,0,0,0-3.49,1.31,8.25,8.25,0,0,0-2.88,2.72,15.27,15.27,0,0,0-1.82,4.71,30.35,30.35,0,0,0-.72,7.07q0,7.8,3.14,11.87t9.33,4.08a23.16,23.16,0,0,0,5.8-.85,24.82,24.82,0,0,0,5.76-2.29,3,3,0,0,1,3.1.14,4.2,4.2,0,0,1,2,3.1q.48,2.92-2.38,5.18-6.1,4.67-15.34,4.67A26.44,26.44,0,0,1,322.2,469.42Z"/><path class="f4458a7d-1c4e-45bc-aaf2-caa8bf626e86" d="M363,467.73a7.3,7.3,0,0,1-1.83-5v-35.4a7.39,7.39,0,0,1,1.83-5,5.73,5.73,0,0,1,8.87,0,7.35,7.35,0,0,1,1.84,5v35.4a7.26,7.26,0,0,1-1.84,5,5.72,5.72,0,0,1-4.46,2.08A5.63,5.63,0,0,1,363,467.73Z"/><path class="f4458a7d-1c4e-45bc-aaf2-caa8bf626e86" d="M399.74,467.72a7.39,7.39,0,0,1-1.82-5V429.6h-9.37a4.81,4.81,0,0,1-3.43-1.38,4.54,4.54,0,0,1,0-6.65,4.81,4.81,0,0,1,3.43-1.38h31.11a4.73,4.73,0,0,1,3.41,1.38,4.51,4.51,0,0,1,1.43,3.36,4.41,4.41,0,0,1-1.43,3.31,4.76,4.76,0,0,1-3.41,1.36h-9.17v33.12a7.27,7.27,0,0,1-1.85,5,5.77,5.77,0,0,1-4.45,2.09A5.71,5.71,0,0,1,399.74,467.72Z"/><path class="f4458a7d-1c4e-45bc-aaf2-caa8bf626e86" d="M445.22,451l-12.54-20.45a9.69,9.69,0,0,1-1.2-4.74,5,5,0,0,1,1.43-3.58,7,7,0,0,1,3.07-1.75,4.73,4.73,0,0,1,3.7.7A8.72,8.72,0,0,1,443,425l9.13,15.85,9.58-16.19a7.16,7.16,0,0,1,2.9-3.15,4.26,4.26,0,0,1,3.24-.52,6.94,6.94,0,0,1,2.72,1.54,4.2,4.2,0,0,1,1.33,3,7.7,7.7,0,0,1-.95,4l-13.09,21.33v12.31a7.53,7.53,0,0,1-.55,2.95,5.83,5.83,0,0,1-1.43,2.11,6.44,6.44,0,0,1-2,1.24,6.33,6.33,0,0,1-2.32.45,6.26,6.26,0,0,1-2.32-.45,6.48,6.48,0,0,1-2-1.24,5.83,5.83,0,0,1-1.43-2.11,7.71,7.71,0,0,1-.54-2.95Z"/><path class="f4458a7d-1c4e-45bc-aaf2-caa8bf626e86" d="M104.5,522.43a4.36,4.36,0,0,1-1.07-2,11.2,11.2,0,0,1-.28-2.64V500.51a3.92,3.92,0,0,1,1-2.68,3.11,3.11,0,0,1,4.76,0,3.88,3.88,0,0,1,1,2.68l0,17.71H119a2.3,2.3,0,0,1,1.71.72,2.65,2.65,0,0,1,0,3.59,2.29,2.29,0,0,1-1.71.74H106.52A2.63,2.63,0,0,1,104.5,522.43Z"/><path class="f4458a7d-1c4e-45bc-aaf2-caa8bf626e86" d="M129.49,520.48q-3.3-3.5-3.29-10.42t3.29-10.43q3.28-3.48,9.74-3.48t9.73,3.48q3.3,3.5,3.29,10.43T149,520.48q-3.28,3.48-9.73,3.48T129.49,520.48ZM143.86,517q1.37-2,1.37-7c0-3.31-.46-5.65-1.37-7s-2.46-2-4.63-2a6.08,6.08,0,0,0-3.45.86,5.08,5.08,0,0,0-1.91,2.82,18.54,18.54,0,0,0-.62,5.34q0,4.95,1.38,7t4.6,2Q142.49,519.05,143.86,517Z"/><path class="f4458a7d-1c4e-45bc-aaf2-caa8bf626e86" d="M160,522.26a4,4,0,0,1-.95-2.79v-19.2a3.13,3.13,0,0,1,1.18-2.65,4.72,4.72,0,0,1,3-.9h7.33a29.71,29.71,0,0,1,3.15.15,14.26,14.26,0,0,1,2.77.59,7.34,7.34,0,0,1,2.29,1.16,5.19,5.19,0,0,1,1.47,1.93,6.51,6.51,0,0,1,.57,2.82q0,5.22-5.87,6.24v.07a9.83,9.83,0,0,1,2.4.52,3.81,3.81,0,0,1,1.55,1.08,4.83,4.83,0,0,1,.91,1.69,14.56,14.56,0,0,1,.48,2.55l.35,2.42a7.07,7.07,0,0,1-.41,4.07,2.8,2.8,0,0,1-2.66,1.26,3,3,0,0,1-2.48-1.06,6.32,6.32,0,0,1-1-3.41l-.27-2.39a4.87,4.87,0,0,0-1.14-3,4.29,4.29,0,0,0-3.09-.93h-3.74v7a3.89,3.89,0,0,1-.95,2.82,3.23,3.23,0,0,1-2.42,1A3.16,3.16,0,0,1,160,522.26Zm8.62-14.13a11.9,11.9,0,0,0,2-.14,7.36,7.36,0,0,0,1.73-.49,2.71,2.71,0,0,0,1.34-1.1,3.38,3.38,0,0,0,.48-1.86,4.39,4.39,0,0,0-.18-1.32,3.42,3.42,0,0,0-.43-1,2.34,2.34,0,0,0-.73-.66,4.63,4.63,0,0,0-.89-.41,5.73,5.73,0,0,0-1.08-.21c-.45,0-.83-.08-1.14-.09l-1.24,0h-2.81v7.26Z"/><path class="f4458a7d-1c4e-45bc-aaf2-caa8bf626e86" d="M189.47,522.86a2.83,2.83,0,0,1-1-1.12,5.47,5.47,0,0,1-.54-1.48,7.42,7.42,0,0,1-.17-1.66V502a17.26,17.26,0,0,1,.07-1.75,6.28,6.28,0,0,1,.33-1.43,3,3,0,0,1,.7-1.16,3.24,3.24,0,0,1,1.22-.7,5.73,5.73,0,0,1,1.87-.27h11.74a2.47,2.47,0,0,1,1.8.72,2.4,2.4,0,0,1,.74,1.76,2.33,2.33,0,0,1-.74,1.75,2.54,2.54,0,0,1-1.8.7h-9.41v5.67h8.59a2.47,2.47,0,0,1,1.8.72,2.38,2.38,0,0,1,.74,1.76,2.32,2.32,0,0,1-.74,1.74,2.5,2.5,0,0,1-1.8.7h-8.59v6.11h9.87a2.24,2.24,0,0,1,1.67.71,2.46,2.46,0,0,1,.68,1.75,2.43,2.43,0,0,1-.68,1.75,2.27,2.27,0,0,1-1.67.7H191A2.87,2.87,0,0,1,189.47,522.86Z"/><path class="f4458a7d-1c4e-45bc-aaf2-caa8bf626e86" d="M226,521.1a8.65,8.65,0,0,1-1.56-2.9l-5.95-14.79v17.52a3.08,3.08,0,0,1-.31,1.41,2.42,2.42,0,0,1-.81.94,3.5,3.5,0,0,1-1.11.45,2.65,2.65,0,0,1-1.22,0,3.37,3.37,0,0,1-1.12-.47,2.42,2.42,0,0,1-.81-.94,3.11,3.11,0,0,1-.31-1.38l0-19.47a4.64,4.64,0,0,1,.43-2,4.22,4.22,0,0,1,1.16-1.52,6.34,6.34,0,0,1,1.64-1,4.29,4.29,0,0,1,1.92-.26,6.13,6.13,0,0,1,1.94.51,5.09,5.09,0,0,1,1.78,1.42,8.12,8.12,0,0,1,1.36,2.45l5.33,13.11,5.32-13.11A8.35,8.35,0,0,1,235,498.7a5,5,0,0,1,1.78-1.42,6.06,6.06,0,0,1,1.94-.51,4.29,4.29,0,0,1,1.92.26,6.51,6.51,0,0,1,1.64,1,4.33,4.33,0,0,1,1.16,1.52,4.63,4.63,0,0,1,.42,2v19.47a2.84,2.84,0,0,1-.42,1.56,2.61,2.61,0,0,1-1.06,1,3.2,3.2,0,0,1-1.37.31,3.33,3.33,0,0,1-1.37-.29,2.49,2.49,0,0,1-1-1,3,3,0,0,1-.42-1.59V503.41l-6,14.79a8.82,8.82,0,0,1-1.57,2.9,3.57,3.57,0,0,1-4.67,0Z"/><path class="f4458a7d-1c4e-45bc-aaf2-caa8bf626e86" d="M265.26,522.15a3.92,3.92,0,0,1-1-2.68V500.53a4,4,0,0,1,1-2.69,3.08,3.08,0,0,1,4.75,0,3.91,3.91,0,0,1,1,2.69v18.94a3.87,3.87,0,0,1-1,2.68,3.06,3.06,0,0,1-2.39,1.12A3,3,0,0,1,265.26,522.15Z"/><path class="f4458a7d-1c4e-45bc-aaf2-caa8bf626e86" d="M279.87,522.15a4,4,0,0,1-1-2.68V502.24a17.63,17.63,0,0,1,.08-1.77,6.85,6.85,0,0,1,.34-1.48,3.09,3.09,0,0,1,.72-1.23,3.32,3.32,0,0,1,1.27-.75,5.49,5.49,0,0,1,1.93-.29h7.13a22.56,22.56,0,0,1,3.23.21,11.34,11.34,0,0,1,2.79.77,6.19,6.19,0,0,1,3.67,3.85,9.8,9.8,0,0,1,.54,3.41,7.44,7.44,0,0,1-2.66,6.2q-2.67,2.1-7.57,2.1h-4.72v6.21a3.89,3.89,0,0,1-1,2.68,3.12,3.12,0,0,1-2.39,1.12A3.08,3.08,0,0,1,279.87,522.15Zm9.39-13a11.8,11.8,0,0,0,2.06-.22,3.82,3.82,0,0,0,1.45-.64,2.62,2.62,0,0,0,.93-1.26,6.13,6.13,0,0,0,.29-2c0-1.51-.35-2.52-1.05-3a5.71,5.71,0,0,0-3.37-.78h-3.93v8Z"/><path class="f4458a7d-1c4e-45bc-aaf2-caa8bf626e86" d="M307,522a2.2,2.2,0,0,1-.8-.94,2.15,2.15,0,0,1-.19-1.16,3.5,3.5,0,0,1,.33-1.15,2.22,2.22,0,0,1,.76-.9,2.78,2.78,0,0,1,1.11-.42,2.4,2.4,0,0,1,1.36.3,15.54,15.54,0,0,0,6.15,1.31,6.74,6.74,0,0,0,3.31-.71,2.3,2.3,0,0,0,1.28-2.17c0-1.27-.93-2.22-2.8-2.84l-6.06-2a12.47,12.47,0,0,1-4.81-2.81,6,6,0,0,1-1.41-4.24,7,7,0,0,1,2.94-5.91,12.91,12.91,0,0,1,7.93-2.21,20.22,20.22,0,0,1,4.86.61,8.35,8.35,0,0,1,3.78,1.82,2.39,2.39,0,0,1,.62,2.53,3.65,3.65,0,0,1-.62,1.08,1.72,1.72,0,0,1-1,.61,1.85,1.85,0,0,1-1.13-.12,13.54,13.54,0,0,0-3-1.29,13.19,13.19,0,0,0-3.23-.35,9.52,9.52,0,0,0-2.28.26,4.11,4.11,0,0,0-1.75.9,2,2,0,0,0-.72,1.55,2.19,2.19,0,0,0,1,1.87,10.91,10.91,0,0,0,2.87,1.34,6.73,6.73,0,0,0,1.4.28,6.48,6.48,0,0,1,1.41.27c1.12.34,2.08.67,2.87,1a15.74,15.74,0,0,1,2.33,1.15,7.51,7.51,0,0,1,1.81,1.49,6.43,6.43,0,0,1,1.1,1.92,7.42,7.42,0,0,1,.41,2.53,7.29,7.29,0,0,1-2.94,6.12,12.77,12.77,0,0,1-7.95,2.25Q310.15,524,307,522Z"/><path class="f4458a7d-1c4e-45bc-aaf2-caa8bf626e86" d="M339.54,523.36a11,11,0,0,1-3.61-1.77,7.75,7.75,0,0,1-2.38-3,10,10,0,0,1-.85-4.24V500.55a4,4,0,0,1,1-2.69,3.11,3.11,0,0,1,4.76,0,3.88,3.88,0,0,1,1,2.69v13.67a4.6,4.6,0,0,0,1.37,3.6,4.76,4.76,0,0,0,3.28,1.23,4.83,4.83,0,0,0,3.3-1.23,4.57,4.57,0,0,0,1.38-3.6V500.55a3.92,3.92,0,0,1,1-2.69,3,3,0,0,1,2.37-1.11,3.09,3.09,0,0,1,2.38,1.11,3.92,3.92,0,0,1,1,2.69v13.78a9.29,9.29,0,0,1-1.48,5.32,8.86,8.86,0,0,1-4,3.25,15.12,15.12,0,0,1-5.9,1.06A16.14,16.14,0,0,1,339.54,523.36Z"/><path class="f4458a7d-1c4e-45bc-aaf2-caa8bf626e86" d="M376.22,521.1a8.65,8.65,0,0,1-1.56-2.9l-6-14.79v17.52a3.08,3.08,0,0,1-.31,1.41,2.42,2.42,0,0,1-.81.94,3.5,3.5,0,0,1-1.11.45,2.65,2.65,0,0,1-1.22,0,3.37,3.37,0,0,1-1.12-.47,2.42,2.42,0,0,1-.81-.94,3,3,0,0,1-.31-1.38l0-19.47a4.64,4.64,0,0,1,.43-2,4.22,4.22,0,0,1,1.16-1.52,6.34,6.34,0,0,1,1.64-1,4.29,4.29,0,0,1,1.92-.26,6.13,6.13,0,0,1,1.94.51,5.09,5.09,0,0,1,1.78,1.42,8.12,8.12,0,0,1,1.36,2.45l5.33,13.11,5.32-13.11a8.35,8.35,0,0,1,1.37-2.45,5,5,0,0,1,1.78-1.42,6,6,0,0,1,1.94-.51,4.29,4.29,0,0,1,1.92.26,6.51,6.51,0,0,1,1.64,1,4.33,4.33,0,0,1,1.16,1.52,4.63,4.63,0,0,1,.42,2v19.47a2.84,2.84,0,0,1-.42,1.56,2.61,2.61,0,0,1-1.06,1,3.2,3.2,0,0,1-1.37.31,3.33,3.33,0,0,1-1.37-.29,2.58,2.58,0,0,1-1.06-1,3,3,0,0,1-.41-1.59V503.41l-6,14.79a8.82,8.82,0,0,1-1.57,2.9,3.57,3.57,0,0,1-4.67,0Z"/><ellipse class="b9a132dd-df9b-4b1f-9012-478c8bba1e72" cx="299.18" cy="85.07" rx="32.69" ry="12.02" transform="translate(-10.29 53.84) rotate(-10.11)"/><circle class="b91b608e-eab8-4e31-bc4f-eea58ae9168d" cx="289.63" cy="71.91" r="24.32" transform="translate(145.89 333.44) rotate(-75.15)"/><g class="e32b5b65-532c-46e6-9c59-b8c29e225cc6"><path class="b91b608e-eab8-4e31-bc4f-eea58ae9168d" d="M279.69,61.22c-3.3,3.3-7.19,4.77-8.68,3.28s0-5.38,3.27-8.69,7.19-4.76,8.69-3.27S283,57.92,279.69,61.22Z"/></g><g class="e18a007b-be42-4556-b2b5-e9f8b76b679f"><path class="b91b608e-eab8-4e31-bc4f-eea58ae9168d" d="M314,71.91A24.31,24.31,0,0,1,278.5,93.54a24.57,24.57,0,0,0,3.23.2,27.74,27.74,0,0,0,25.48-38.66A24.24,24.24,0,0,1,314,71.91Z"/></g></g></g></svg>